<svg width="13" height="9" viewBox="0 0 13 9" fill="none" xmlns="http://www.w3.org/2000/svg">
<path d="M1.02892 1.96122C1.24526 1.76582 1.50347 1.57042 1.81053 1.45178C1.96406 1.39595 2.12457 1.36106 2.29205 1.35408C2.45256 1.35408 2.58514 1.38898 2.71076 1.4797C2.83637 1.57042 2.95501 1.71697 3.07365 1.89841C3.19228 2.07985 3.31092 2.29619 3.45747 2.53346C3.60402 2.76376 3.79244 3.02196 4.07857 3.22434C4.22511 3.32204 4.39259 3.39881 4.57404 3.44068C4.7485 3.48255 4.92994 3.48255 5.09743 3.46162C5.1393 3.46162 5.18118 3.44766 5.23003 3.44068C5.2719 3.4337 5.33471 3.41276 5.37658 3.39881C5.4673 3.36391 5.55104 3.32204 5.63478 3.28017C5.79529 3.18247 5.93486 3.06383 6.04652 2.9452C6.27681 2.70095 6.44429 2.46368 6.61178 2.26828C6.77927 2.07288 6.9328 1.94029 7.10029 1.86352C7.25382 1.79374 7.48411 1.76582 7.56785 1.80769C7.68649 1.84258 7.84699 1.98914 8.0075 2.17058C8.168 2.35202 8.33549 2.56836 8.55182 2.77771C8.66348 2.87541 8.7891 2.98009 8.94263 3.04988C8.9845 3.07081 9.0194 3.08477 9.06127 3.09873C9.0822 3.10571 9.11011 3.11268 9.13105 3.11966L9.1799 3.13362C9.24271 3.14758 9.31249 3.15455 9.3753 3.16851C9.64049 3.2034 9.8987 3.18247 10.1429 3.11966C10.6314 2.99405 11.0153 2.70095 11.2874 2.39389C11.5596 2.07986 11.741 1.75186 11.8736 1.45876C12.0062 1.16566 12.083 0.900477 12.1388 0.684141C12.2435 0.244491 12.2505 0.000244141 12.2575 0.000244141C12.2575 0.000244141 12.1877 0.237511 12.0062 0.628311C11.9155 0.823711 11.7899 1.05401 11.6294 1.29826C11.4619 1.54251 11.2525 1.80071 10.9874 2.02403C10.7222 2.24036 10.3942 2.41483 10.0383 2.44972C9.8638 2.47065 9.67538 2.44972 9.48696 2.40785C9.43811 2.39389 9.39623 2.37994 9.34738 2.36598L9.3125 2.35202C9.3125 2.35202 9.30552 2.35202 9.29854 2.35202C9.29156 2.35202 9.27062 2.33806 9.25667 2.33108C9.20084 2.29619 9.13105 2.23339 9.06824 2.1636C8.93565 2.01007 8.79608 1.80769 8.62161 1.5774C8.53787 1.46574 8.44018 1.3471 8.32154 1.22847C8.2029 1.10983 8.04937 0.998178 7.86793 0.914435C7.7772 0.879543 7.67253 0.844649 7.56785 0.837671C7.519 0.837671 7.45619 0.830691 7.4213 0.830691C7.37943 0.830691 7.33756 0.830691 7.29569 0.830691C7.12122 0.844648 6.94676 0.879545 6.7723 0.94933C6.43035 1.0889 6.1512 1.34711 5.94184 1.59136C5.73249 1.83561 5.56499 2.07288 5.41146 2.24037C5.25096 2.41483 5.12535 2.49857 4.9788 2.52648C4.79037 2.56138 4.65778 2.54044 4.51123 2.46368C4.36468 2.37994 4.21814 2.22641 4.07857 2.04497C3.93899 1.86352 3.79244 1.65417 3.63194 1.44481C3.47143 1.24243 3.27603 1.03307 3.01782 0.900475C2.76659 0.760904 2.47349 0.739971 2.23622 0.788821C2.01291 0.830692 1.80354 0.914437 1.62908 1.01912C1.26619 1.22847 1.02194 1.51459 0.833521 1.75884C0.645099 2.01007 0.505528 2.23339 0.386892 2.41483C0.156599 2.77772 0.0170288 2.97311 0.0170288 2.97311C0.0170288 2.97311 0.198473 2.82657 0.498552 2.51253C0.645102 2.359 0.826544 2.17058 1.04288 1.97518L1.02892 1.96122Z" fill="#767676"/>
<path d="M11.6153 6.58063C11.4479 6.82488 11.2385 7.08308 10.9733 7.3064C10.7081 7.52273 10.3801 7.6972 10.0242 7.73209C9.84976 7.75302 9.66134 7.73209 9.47292 7.69022C9.42407 7.67626 9.3822 7.66231 9.33335 7.64835L9.29846 7.63439C9.29846 7.63439 9.29147 7.63439 9.2845 7.63439C9.27752 7.63439 9.25658 7.62043 9.24263 7.61345C9.1868 7.57856 9.11701 7.51576 9.0542 7.44597C8.92161 7.29244 8.78204 7.08308 8.60757 6.85977C8.52383 6.74811 8.42614 6.62947 8.3075 6.51084C8.18886 6.3922 8.03533 6.28055 7.85389 6.19681C7.76316 6.16191 7.65849 6.134 7.55381 6.12004C7.50496 6.12004 7.44215 6.11306 7.40726 6.11306C7.36539 6.11306 7.32352 6.11306 7.28165 6.11306C7.10718 6.12702 6.93272 6.16192 6.75826 6.2317C6.41631 6.37127 6.13716 6.62948 5.9278 6.87373C5.71845 7.11798 5.55096 7.35525 5.39744 7.52274C5.23693 7.6972 5.11131 7.78094 4.96476 7.80885C4.77634 7.84375 4.64374 7.82281 4.49719 7.74605C4.35064 7.66231 4.2041 7.50878 4.06453 7.32734C3.92495 7.14589 3.7784 6.93654 3.6179 6.72718C3.45739 6.5248 3.26199 6.31544 3.00378 6.18285C2.75255 6.04328 2.45945 6.02234 2.22218 6.07119C1.99887 6.11306 1.78951 6.19681 1.61505 6.30149C1.25216 6.51084 1.00791 6.79696 0.819493 7.04121C0.631072 7.29244 0.491501 7.51576 0.372865 7.6972C0.142572 8.06008 0.00299072 8.25548 0.00299072 8.25548C0.00299072 8.25548 0.184435 8.10196 0.484514 7.7949C0.631064 7.64137 0.812506 7.45295 1.02884 7.25755C1.24518 7.06215 1.50339 6.85977 1.81045 6.74811C1.96398 6.69228 2.12449 6.65739 2.29197 6.65041C2.45248 6.65041 2.58507 6.68531 2.71068 6.77603C2.83629 6.86675 2.95493 7.0133 3.07357 7.19474C3.1922 7.37618 3.31084 7.59252 3.45739 7.82979C3.60394 8.06008 3.79236 8.31829 4.07849 8.52067C4.22504 8.61837 4.39252 8.69513 4.57396 8.737C4.74842 8.77888 4.92987 8.77888 5.09735 8.75794C5.13922 8.75794 5.1811 8.74398 5.22995 8.737C5.27182 8.73003 5.33463 8.70909 5.3765 8.69513C5.46722 8.66024 5.55096 8.61837 5.6347 8.56952C5.79521 8.47182 5.93478 8.35318 6.04644 8.23455C6.27673 7.99728 6.44421 7.75302 6.6117 7.55762C6.77919 7.36222 6.93272 7.22964 7.10021 7.15287C7.25374 7.08309 7.48403 7.05517 7.56777 7.09704C7.68641 7.13193 7.84691 7.27848 8.00741 7.45993C8.16792 7.64137 8.33541 7.85771 8.55174 8.06706C8.6634 8.17174 8.78902 8.26944 8.94255 8.33923C8.98442 8.36016 9.01931 8.37412 9.06119 8.38808C9.08212 8.40203 9.11003 8.40203 9.13097 8.40901H9.17982C9.24263 8.42995 9.31241 8.44391 9.37522 8.45089C9.64041 8.48578 9.89862 8.46484 10.1429 8.40203C10.6314 8.27642 11.0152 7.98332 11.2874 7.67626C11.5595 7.36223 11.741 7.03423 11.8736 6.74113C12.0061 6.44803 12.0829 6.18285 12.1387 5.95953C12.2434 5.51988 12.2504 5.27563 12.2574 5.27563C12.2574 5.27563 12.1876 5.51291 12.0061 5.90371C11.9154 6.09911 11.7898 6.3294 11.6293 6.57365L11.6153 6.58063Z" fill="#767676"/>
</svg>
