<svg width="16" height="13" viewBox="0 0 16 13" fill="none" xmlns="http://www.w3.org/2000/svg">
<path d="M14.9128 2.32861C14.7183 1.9577 14.3958 1.64214 14.0198 1.43312C13.6472 1.21804 13.2342 1.10082 12.8267 1.04339C12.4132 0.982483 11.9898 0.980483 11.5563 1.03739C11.1229 1.0943 10.6845 1.22917 10.2817 1.44117C9.87892 1.65317 9.51772 1.94577 9.22611 2.27046C8.9345 2.59516 8.69695 2.95108 8.51198 3.31309C8.13252 4.03971 7.92026 4.78203 7.76954 5.48713C7.71816 5.75653 7.67377 6.0138 7.63889 6.26848C7.59169 6.03107 7.53848 5.7902 7.47326 5.54239C7.28662 4.85267 7.02689 4.1369 6.61001 3.44357C6.39806 3.10297 6.14558 2.76321 5.83756 2.46413C5.52353 2.16158 5.15047 1.90579 4.73191 1.72879C4.31335 1.5518 3.8578 1.46661 3.42833 1.46115C2.99285 1.45221 2.56893 1.50652 2.16956 1.61543C1.7702 1.72433 1.37639 1.89301 1.02668 2.15183C0.68046 2.40458 0.40238 2.76134 0.249959 3.15023C0.0975382 3.53912 0.0562435 3.94369 0.0860041 4.30843C0.115765 4.67318 0.206078 5.01629 0.332907 5.32392C0.586567 5.93918 0.953276 6.44188 1.36595 6.80947C1.77863 7.17705 2.26731 7.42686 2.75133 7.40724C2.98858 7.39873 3.19975 7.31048 3.35684 7.19103C3.51394 7.07157 3.62547 6.93389 3.70498 6.81006C3.86499 6.54679 3.93493 6.32853 3.97587 6.17435C4.01682 6.02017 4.03129 5.9396 4.03129 5.9396C4.03129 5.9396 4.0048 6.01323 3.93982 6.15354C3.87484 6.29384 3.77136 6.50084 3.5928 6.71298C3.41424 6.92512 3.12006 7.14324 2.75814 7.10402C2.39873 7.07434 2.01266 6.82721 1.68959 6.47094C1.36652 6.11467 1.08843 5.63887 0.926414 5.10077C0.760902 4.56874 0.722967 3.94063 0.963414 3.44091C1.08189 3.19408 1.26996 2.97933 1.51111 2.81141C1.75828 2.64697 2.05251 2.52587 2.37831 2.44724C3.02991 2.28998 3.75521 2.2965 4.37054 2.56285C4.99888 2.82054 5.49323 3.32419 5.874 3.89967C6.25127 4.48122 6.52197 5.12247 6.7341 5.75416C7.14481 6.98548 7.34376 8.16729 7.48204 9.17666C7.47504 9.18878 7.48006 9.20784 7.48257 9.21737C7.50226 10.2795 7.58488 11.1355 7.64732 11.7212C7.70975 12.3069 7.76052 12.6352 7.76052 12.6352C7.76052 12.6352 7.80886 12.3156 7.86204 11.7239C7.91173 11.1383 7.97227 10.2842 7.94908 9.22807C7.95106 9.19689 7.94354 9.16828 7.94552 9.1371C8.03848 8.11575 8.18388 6.90644 8.51694 5.63573C8.69222 4.98523 8.92457 4.31915 9.27206 3.7034C9.61605 3.09372 10.0837 2.54737 10.6962 2.22201C11.3026 1.89318 12.0303 1.8122 12.7016 1.88453C13.0385 1.92546 13.3544 2.00276 13.6198 2.13981C13.8851 2.27685 14.0975 2.46411 14.2448 2.69464C14.5419 3.16525 14.5643 3.7925 14.4545 4.34342C14.3413 4.9004 14.1129 5.40705 13.8198 5.80365C13.5362 6.19766 13.175 6.49025 12.8122 6.56366C12.4553 6.64054 12.1334 6.46275 11.934 6.26683C11.7287 6.06745 11.6104 5.86984 11.5313 5.7433C11.4556 5.61071 11.42 5.53359 11.4165 5.53966C11.4165 5.53966 11.4366 5.6159 11.4957 5.76322C11.5549 5.91053 11.6411 6.12196 11.828 6.36725C11.9202 6.48513 12.0459 6.61431 12.2141 6.71144C12.3824 6.80858 12.6026 6.87108 12.8374 6.85303C13.3224 6.81782 13.7872 6.51229 14.1623 6.09842C14.541 5.67848 14.862 5.13636 15.0493 4.49279C15.1417 4.16624 15.2015 3.81282 15.1908 3.44288C15.18 3.07295 15.0997 2.67091 14.8958 2.30259L14.9128 2.32861Z" fill="#767676"/>
</svg>
