<svg width="24" height="24" viewBox="0 0 24 24" fill="none" xmlns="http://www.w3.org/2000/svg">
<path d="M19.1755 17.3079L19.1158 17.3882L19.1755 17.3079ZM19.1755 17.3079C19.5314 17.5726 19.6053 18.0758 19.3405 18.4316C19.1879 18.6368 19.0246 18.8381 18.8551 19.0298M19.1755 17.3079C18.8196 17.0432 18.3165 17.1171 18.0518 17.4729L18.0518 17.4729C17.926 17.642 17.7914 17.8079 17.6516 17.966L17.6516 17.966C17.3579 18.2982 17.3891 18.8058 17.7214 19.0996L17.7214 19.0996C17.8742 19.2346 18.0641 19.301 18.2531 19.301C18.475 19.301 18.6963 19.2094 18.8551 19.0298M18.8551 19.0298C18.8551 19.0298 18.855 19.0298 18.855 19.0298L18.7801 18.9636L18.8551 19.0298Z" fill="#00006C" stroke="#00006C" stroke-width="0.2"/>
<path d="M19.1963 15.2202L19.1963 15.2202C19.2584 15.0192 19.3126 14.8129 19.3575 14.6069L19.1963 15.2202ZM19.1963 15.2202C19.0653 15.644 19.3028 16.0937 19.7265 16.2247L19.7266 16.2247M19.1963 15.2202L19.7266 16.2247M19.7266 16.2247C19.8054 16.249 19.8852 16.2606 19.9639 16.2606C20.3067 16.2606 20.6243 16.0394 20.7309 15.6944M19.7266 16.2247L20.927 14.9485M20.927 14.9485L20.927 14.9486C20.8724 15.1989 20.8065 15.4498 20.7309 15.6944M20.927 14.9485C21.0213 14.5152 20.7464 14.0873 20.313 13.993M20.927 14.9485L19.3575 14.6069C19.4518 14.1735 19.8799 13.8987 20.313 13.993M20.7309 15.6944L20.6354 15.6649L20.7309 15.6944ZM20.313 13.993L20.2918 14.0907L20.313 13.993Z" fill="#00006C" stroke="#00006C" stroke-width="0.2"/>
<path d="M14.7145 20.9009L14.7145 20.9009C14.5319 20.4967 14.7116 20.021 15.1158 19.8384L14.7145 20.9009ZM14.7145 20.9009C14.8486 21.198 15.1411 21.3736 15.4468 21.3736C15.5575 21.3736 15.6698 21.3507 15.7769 21.3023L15.7769 21.3023L14.7145 20.9009ZM15.6827 19.5528C15.4985 19.6556 15.3078 19.7517 15.1159 19.8384L16.4658 20.9552C16.4658 20.9552 16.4658 20.9552 16.4658 20.9552C16.8531 20.739 16.9917 20.2497 16.7754 19.8625C16.5593 19.4752 16.07 19.3366 15.6827 19.5528Z" fill="#00006C" stroke="#00006C" stroke-width="0.2"/>
<path d="M8.64785 15.2212L8.64785 15.2212C8.33423 15.5349 8.33423 16.0434 8.64785 16.357C8.80468 16.5138 9.01034 16.5922 9.21578 16.5922C9.42115 16.5922 9.62687 16.5138 9.78369 16.357L9.7837 16.357L12.5679 13.5728C12.7185 13.4222 12.8031 13.2179 12.8031 13.0049V7.37988C12.8031 6.93632 12.4436 6.57676 12 6.57676C11.5564 6.57676 11.1969 6.93632 11.1969 7.37988V12.6722L8.64785 15.2212Z" fill="#00006C" stroke="#00006C" stroke-width="0.2"/>
<path d="M19.4937 7.84072C17.814 5.40832 15.0203 3.90488 12 3.90488C9.56949 3.90488 7.28397 4.85159 5.56531 6.57019L5.5653 6.57019C3.84671 8.28885 2.9 10.5744 2.9 13.0049C2.9 15.4354 3.84671 17.7209 5.5653 19.4396L5.63602 19.3689L5.56531 19.4396C7.28397 21.1582 9.56949 22.1049 12 22.1049C12.0067 22.1049 12.0126 22.1045 12.0156 22.1043L12.0157 22.1043L12.0193 22.104C12.02 22.104 12.0201 22.104 12.02 22.104L12.0176 22.004C12.0202 22.0041 12.0228 22.0042 12.0254 22.0044C12.0287 22.0047 12.0319 22.0049 12.0352 22.0049C12.2886 22.0049 12.5445 21.9942 12.7958 21.9732C13.1828 21.9408 13.4702 21.6008 13.4379 21.2138C13.4054 20.8269 13.0659 20.5393 12.6785 20.5718M19.4937 7.84072L12.0152 22.104L12.0151 22.104C12.0151 22.104 12.0153 22.104 12.0159 22.104L12.0194 22.1043L12.0195 22.1043C12.0225 22.1045 12.0285 22.1049 12.0352 22.1049C12.2913 22.1049 12.55 22.0941 12.8042 22.0728C13.2462 22.0358 13.5745 21.6475 13.5375 21.2055C13.5004 20.7636 13.1127 20.435 12.6702 20.4722L12.6785 20.5718M19.4937 7.84072V6.21973C19.4937 5.77616 19.8533 5.4166 20.2969 5.4166C20.7404 5.4166 21.1 5.77616 21.1 6.21973V8.29395C21.1 9.11403 20.6775 9.83663 20.0398 10.257C20.0175 10.273 19.9945 10.2877 19.9708 10.3012C19.6148 10.5185 19.1967 10.6439 18.75 10.6439H16.6035C16.1599 10.6439 15.8003 10.2844 15.8003 9.84082C15.8003 9.39726 16.1599 9.0377 16.6035 9.0377H18.3589M19.4937 7.84072L18.3589 9.0377M12.6785 20.5718C12.466 20.5896 12.2496 20.5986 12.0352 20.5986C12.0319 20.5986 12.0287 20.5989 12.0254 20.5991C12.0228 20.5993 12.0202 20.5994 12.0176 20.5995M12.6785 20.5718L12.0176 20.5995M18.3589 9.0377C17.0021 6.86747 14.603 5.51113 12 5.51113C7.86801 5.51113 4.50625 8.8729 4.50625 13.0049C4.50625 17.1369 7.86801 20.4986 12 20.4986C12.0067 20.4986 12.0126 20.499 12.0156 20.4993L12.0157 20.4993L12.0193 20.4995C12.0197 20.4995 12.0199 20.4995 12.02 20.4995H12.02L12.0176 20.5995M18.3589 9.0377L12.6701 20.4722C12.4604 20.4897 12.2468 20.4986 12.0352 20.4986C12.0285 20.4986 12.0225 20.499 12.0195 20.4993L12.0194 20.4993L12.0159 20.4995C12.0152 20.4995 12.015 20.4995 12.0152 20.4995L12.0176 20.5995" fill="#00006C" stroke="#00006C" stroke-width="0.2"/>
</svg>
