<svg width="60" height="60" viewBox="0 0 60 60" fill="none" xmlns="http://www.w3.org/2000/svg">
<path fill-rule="evenodd" clip-rule="evenodd" d="M2 39.146L20.854 58H38.9306L58 38.9306V20.854L39.146 2H20.6386L2 20.6386L2 39.146ZM19.8102 0H39.9744L60 20.0256V39.759L39.759 60H20.0256L0 39.9744V19.8102L19.8102 0Z" fill="#00006C"/>
<path fill-rule="evenodd" clip-rule="evenodd" d="M10.8438 13.9768V26.6778L17.1943 20.3273L10.8438 13.9768ZM20.5168 23.6499L14.1663 30.0004L20.3653 36.1993L26.7158 29.8488L20.5168 23.6499ZM30.0383 26.5263L23.8394 20.3273L30.0004 14.1663L36.1993 20.3653L30.0383 26.5263ZM30.0383 33.1714L23.6878 39.5219L30.0004 45.8345L36.3509 39.4839L30.0383 33.1714ZM39.6734 36.1614L33.3609 29.8488L39.5219 23.6878L45.8345 30.0004L39.6734 36.1614ZM39.6734 42.8065L33.3229 49.157H46.024L39.6734 42.8065ZM49.157 45.6449L42.996 39.4839L49.157 33.3229V45.6449ZM20.5168 17.0048L14.3558 10.8438H26.6778L20.5168 17.0048ZM39.5219 17.0427L33.3229 10.8438H45.7208L39.5219 17.0427ZM10.8438 33.3229L17.0427 39.5219L10.8438 45.7208V33.3229ZM20.3653 42.8444L14.0527 49.157H26.6778L20.3653 42.8444ZM49.157 14.0527L42.8444 20.3653L49.157 26.6778V14.0527Z" fill="#00006C"/>
<path fill-rule="evenodd" clip-rule="evenodd" d="M10.8438 26.6778L17.1943 20.3273L10.8438 13.9768V26.6778ZM11.8438 24.2636L15.78 20.3273L11.8438 16.391V24.2636ZM14.1663 30.0004L20.5168 23.6499L26.7158 29.8488L20.3653 36.1993L14.1663 30.0004ZM15.5805 30.0004L20.3653 34.7851L25.3016 29.8488L20.5168 25.0641L15.5805 30.0004ZM30.0383 26.5263L23.8394 20.3273L30.0004 14.1663L36.1993 20.3653L30.0383 26.5263ZM30.0383 25.1121L34.7851 20.3653L30.0004 15.5805L25.2536 20.3273L30.0383 25.1121ZM23.6878 39.5219L30.0383 33.1714L36.3509 39.4839L30.0004 45.8345L23.6878 39.5219ZM30.0004 44.4202L34.9367 39.4839L30.0383 34.5856L25.102 39.5219L30.0004 44.4202ZM39.6734 36.1614L33.3609 29.8488L39.5219 23.6878L45.8345 30.0004L39.6734 36.1614ZM39.6734 34.7472L44.4202 30.0004L39.5219 25.102L34.7751 29.8488L39.6734 34.7472ZM33.3229 49.157H46.024L39.6734 42.8065L33.3229 49.157ZM39.6734 44.2207L35.7371 48.157H43.6097L39.6734 44.2207ZM49.157 45.6449V33.3229L42.996 39.4839L49.157 45.6449ZM48.157 43.2307V35.7371L44.4102 39.4839L48.157 43.2307ZM20.5168 17.0048L14.3558 10.8438H26.6778L20.5168 17.0048ZM16.77 11.8438H24.2636L20.5168 15.5905L16.77 11.8438ZM39.5219 17.0427L33.3229 10.8438H45.7208L39.5219 17.0427ZM39.5219 15.6285L43.3066 11.8438H35.7371L39.5219 15.6285ZM10.8438 33.3229V45.7208L17.0427 39.5219L10.8438 33.3229ZM11.8438 35.7371L15.6285 39.5219L11.8438 43.3066V35.7371ZM14.0527 49.157H26.6778L20.3653 42.8444L14.0527 49.157ZM16.4669 48.157L20.3653 44.2586L24.2636 48.157H16.4669ZM42.8444 20.3653L49.157 14.0527V26.6778L42.8444 20.3653ZM48.157 24.2636V16.4669L44.2586 20.3653L48.157 24.2636Z" fill="#00006C"/>
</svg>
