<svg width="16" height="16" viewBox="0 0 16 16" fill="none" xmlns="http://www.w3.org/2000/svg">
<path d="M13.1717 7.27006C13.1519 6.83582 13.0335 6.38184 12.7621 5.98214C12.2982 5.2913 11.6715 4.74356 11.0054 4.3636C10.3343 3.9787 9.61874 3.75663 8.9279 3.64807C7.54128 3.43589 6.28296 3.6777 5.33551 4.08234C4.3782 4.48698 3.75151 5.07417 3.41102 5.52322C3.0656 5.9772 2.97183 6.27822 2.96689 6.27329C2.97183 6.27822 3.12481 5.99696 3.51958 5.62193C3.90942 5.24197 4.58051 4.78798 5.49835 4.52151C6.41125 4.25011 7.58075 4.14648 8.78973 4.41789C9.39175 4.55605 10.0036 4.78303 10.5563 5.12845C11.109 5.47387 11.6173 5.94267 11.9972 6.51015C12.313 6.974 12.3328 7.66485 12.1403 8.23233C11.9528 8.80474 11.5432 9.25378 11.0498 9.38208C10.808 9.44623 10.5415 9.44622 10.28 9.38207C10.1517 9.35247 10.0234 9.313 9.90001 9.25872C9.77665 9.20444 9.64835 9.14523 9.54966 9.08601C9.13515 8.82941 8.92296 8.39023 8.92296 7.94612C8.91309 7.51188 9.07101 7.09737 9.29307 6.81609C9.51019 6.52989 9.81119 6.37691 10.0678 6.36704C10.3293 6.36211 10.5218 6.46574 10.6451 6.53976C10.7636 6.61871 10.8228 6.67793 10.8228 6.66806C10.8228 6.66806 10.7784 6.6039 10.6698 6.50521C10.5662 6.40158 10.3737 6.25849 10.0777 6.21901C9.77666 6.1746 9.38682 6.30783 9.08581 6.61871C8.7848 6.91972 8.52818 7.36383 8.46897 7.92638C8.43936 8.20272 8.47392 8.5136 8.59235 8.80968C8.71078 9.10575 8.92296 9.38702 9.18943 9.59427C9.33253 9.70777 9.46576 9.78178 9.61873 9.86567C9.76677 9.94462 9.92468 10.0137 10.0974 10.068C10.4329 10.1766 10.8277 10.2259 11.2274 10.142C11.6222 10.0631 12.0071 9.85581 12.3032 9.5696C12.5992 9.2834 12.8262 8.9281 12.9693 8.53827C13.1124 8.14843 13.1914 7.72406 13.1716 7.28981L13.1717 7.27006Z" fill="#767676"/>
<path d="M9.57472 12.4364C8.66676 12.7226 7.50218 12.841 6.28827 12.5844C5.68132 12.461 5.07437 12.239 4.50689 11.8985C3.94435 11.5629 3.43608 11.104 3.04132 10.5415C2.72057 10.0826 2.68603 9.38679 2.87354 8.82425C3.05612 8.2469 3.46076 7.79292 3.94928 7.65969C4.19601 7.5906 4.45261 7.59059 4.71908 7.64981C4.84738 7.67942 4.97567 7.7189 5.10397 7.76825C5.22734 7.82253 5.36058 7.87679 5.4494 7.93601C5.86884 8.18767 6.08101 8.62686 6.09582 9.06603C6.11062 9.50521 5.95766 9.91478 5.74054 10.201C5.52835 10.4921 5.23227 10.65 4.97567 10.6599C4.71413 10.6747 4.51182 10.5711 4.39339 10.4921C4.27496 10.4132 4.2108 10.3589 4.21574 10.3638C4.21574 10.3638 4.26015 10.428 4.37365 10.5217C4.48221 10.6204 4.6648 10.7635 4.97074 10.803C5.27175 10.8376 5.65666 10.6994 5.9626 10.3934C6.26361 10.0924 6.51034 9.63844 6.55968 9.0759C6.58436 8.79463 6.54981 8.49363 6.42644 8.19262C6.30801 7.89654 6.08596 7.62513 5.8195 7.41788C5.67146 7.30932 5.53821 7.2353 5.39017 7.15635C5.2372 7.08233 5.07931 7.01324 4.91153 6.96389C4.57105 6.86027 4.17628 6.82079 3.77658 6.90468C3.38181 6.9935 3.00183 7.2057 2.71069 7.49684C2.41955 7.78798 2.1975 8.14821 2.0544 8.53805C1.91129 8.92788 1.84221 9.35224 1.87182 9.78648C1.90143 10.2207 2.02973 10.6747 2.2962 11.0695C2.76992 11.7505 3.40153 12.2933 4.07757 12.6634C4.75854 13.0384 5.47406 13.2506 6.16491 13.3493C7.55153 13.5417 8.80985 13.2802 9.74743 12.8657C10.6998 12.4462 11.3216 11.8541 11.6571 11.4001C11.9976 10.9412 12.0815 10.6402 12.0914 10.6402C12.0864 10.6352 11.9384 10.9116 11.5486 11.3014C11.1637 11.6863 10.5024 12.1502 9.58952 12.4314L9.57472 12.4364Z" fill="#767676"/>
</svg>
