<svg width="13" height="13" viewBox="0 0 13 13" fill="none" xmlns="http://www.w3.org/2000/svg">
<path d="M12.9459 7.36118C12.9347 6.99718 12.8612 6.61343 12.662 6.26277C12.4725 5.90956 12.1397 5.61991 11.7796 5.477C11.4168 5.32444 11.0469 5.2978 10.7157 5.31783C10.3783 5.33432 10.0602 5.40256 9.76316 5.49111L9.55313 5.55675C9.4758 5.57711 9.3879 5.61575 9.3132 5.64575C9.15676 5.71795 9.01262 5.79726 8.8834 5.8933C8.62232 6.07573 8.40691 6.29266 8.21083 6.5045C7.94001 6.80321 7.7096 7.11711 7.50203 7.41983C7.46446 7.12997 7.4427 6.84112 7.43412 6.54363C7.40993 5.96084 7.41473 5.37041 7.4125 4.79217C7.41027 4.21393 7.40452 3.64178 7.36625 3.08337C7.32799 2.52495 7.26072 1.97418 7.07835 1.4382C6.9854 1.17326 6.86698 0.909854 6.68351 0.673914C6.50005 0.437974 6.24714 0.25133 5.9766 0.152015C5.69991 0.0491516 5.42141 0.0346229 5.16923 0.059676C4.92057 0.0786346 4.65342 0.143802 4.43457 0.253106C3.99335 0.477808 3.69176 0.81563 3.44464 1.14427C3.20367 1.47646 3.01981 1.80911 2.86846 2.12803C2.78575 2.29968 2.71886 2.47235 2.659 2.63281C2.63372 2.35006 2.59262 2.06629 2.54097 1.80081C2.4788 1.49676 2.40345 1.20135 2.28239 0.928303C2.22363 0.788734 2.15167 0.657804 2.05424 0.528416C2.00684 0.468543 1.94099 0.398024 1.86811 0.339692C1.7917 0.287455 1.71441 0.250956 1.63623 0.230196C1.4702 0.191222 1.30939 0.228398 1.18195 0.292962C1.06066 0.361076 0.986799 0.432197 0.912946 0.503324C0.781055 0.646581 0.687828 0.779656 0.624492 0.889358C0.4943 1.11486 0.439743 1.23775 0.436224 1.24385C0.436224 1.24385 0.539961 1.14935 0.73337 0.984724C0.826555 0.908508 0.952261 0.818564 1.09641 0.739266C1.16848 0.699616 1.25286 0.667067 1.317 0.655345C1.37763 0.649718 1.44088 0.653736 1.49006 0.682131C1.51466 0.696329 1.53221 0.722713 1.55328 0.743005C1.57083 0.769392 1.57609 0.788682 1.59275 0.830807C1.62608 0.915057 1.65853 1.01505 1.68393 1.12722C1.73121 1.35768 1.75475 1.61505 1.77036 1.90035C1.79545 2.4674 1.79149 3.09895 1.78838 3.77162C1.78216 5.11697 1.8138 6.35415 1.86765 7.25473C1.91797 8.1614 2.00368 8.72283 2.00368 8.72283C1.99753 8.71928 2.14551 8.17901 2.32888 7.29349C2.50611 6.40443 2.70905 5.17267 2.71794 3.78011C2.71721 3.56841 2.70944 3.3689 2.70519 3.16329C2.81961 2.87993 2.96392 2.5732 3.14338 2.26238C3.31227 1.96984 3.51368 1.66357 3.75199 1.3786C3.99644 1.09717 4.29096 0.828405 4.64251 0.673825C4.81828 0.596535 4.99754 0.57001 5.20753 0.561232C5.414 0.558549 5.61255 0.583794 5.78295 0.657795C6.12727 0.799702 6.3572 1.16811 6.47814 1.61174C6.60523 2.05891 6.64264 2.5762 6.6572 3.10468C6.66825 3.63925 6.65293 4.1911 6.63319 4.76479C6.61346 5.33847 6.58932 5.934 6.5924 6.55336C6.59395 6.86304 6.60778 7.17982 6.64621 7.5108C6.68027 7.80675 6.73277 8.11334 6.85115 8.4336C6.45006 9.07152 6.08326 9.66423 5.69544 10.1798C5.18712 10.8615 4.63849 11.4142 4.03909 11.6857C3.73939 11.8215 3.43447 11.8811 3.15507 11.8823C2.86953 11.88 2.61213 11.8289 2.38463 11.7544C2.15712 11.6799 1.96213 11.5917 1.79263 11.502C1.63893 11.4133 1.52127 11.3047 1.45458 11.1931C1.38788 11.0814 1.3484 10.9936 1.31681 10.9347C1.28171 10.882 1.25801 10.852 1.25801 10.852C1.25801 10.852 1.27556 10.8784 1.30715 10.9373C1.33874 10.9962 1.36503 11.0926 1.42206 11.2068C1.48524 11.3245 1.58882 11.4575 1.75392 11.569C1.91287 11.6771 2.10345 11.7871 2.33621 11.8808C2.56898 11.9746 2.84041 12.0582 3.15317 12.0843C3.46594 12.1105 3.81389 12.0758 4.15752 11.9491C4.85706 11.7029 5.48918 11.1334 6.06338 10.4654C6.44061 10.0249 6.79855 9.53276 7.17056 9.01619L7.19426 9.04613C7.29784 9.17907 7.41109 9.30945 7.52786 9.43375C7.75787 9.68844 8.01689 9.9355 8.31283 10.147C8.60526 10.3646 8.94075 10.5502 9.3211 10.6722C9.6953 10.7908 10.1249 10.8275 10.5326 10.746C10.9404 10.6645 11.3157 10.483 11.6181 10.2432C11.9266 10.0069 12.1746 9.71936 12.3699 9.40954C12.7604 8.78991 12.9876 8.08408 12.9749 7.35354L12.9459 7.36118ZM11.5663 8.91309C11.2637 9.38037 10.8145 9.74672 10.3171 9.84149C9.82242 9.94591 9.28748 9.75084 8.82381 9.41813C8.59198 9.25177 8.37159 9.05139 8.1679 8.83628C8.06606 8.72873 7.96773 8.61507 7.86941 8.50142C7.83956 8.46794 7.83078 8.45474 7.81937 8.43191C7.80797 8.40907 7.7869 8.38878 7.7755 8.36594C7.75531 8.32991 7.7325 8.28424 7.71583 8.24211L7.75454 8.17507C8.0597 7.7743 8.37541 7.35525 8.73238 6.99252C8.91086 6.81115 9.10427 6.64653 9.30557 6.51084C9.40753 6.44781 9.51213 6.39444 9.61935 6.3507C9.6712 6.33188 9.72304 6.31306 9.78104 6.29779L9.98404 6.24434C10.4964 6.10945 11.0543 6.0659 11.4566 6.2494C11.6577 6.34115 11.8052 6.48319 11.9088 6.67299C12.0123 6.86279 12.0648 7.11253 12.0629 7.37145C12.0652 7.89283 11.8812 8.45292 11.5786 8.92019L11.5663 8.91309Z" fill="#767676"/>
</svg>
