<svg width="28" height="28" viewBox="0 0 28 28" fill="none" xmlns="http://www.w3.org/2000/svg">
<path d="M3.98326 11.6667H17.5C18.1443 11.6667 18.6666 11.1444 18.6666 10.5001C18.6666 9.85573 18.1443 9.33341 17.5 9.33341H3.98326L6.6583 6.65837C7.1139 6.20277 7.1139 5.46405 6.6583 5.00845C6.2027 4.55285 5.46398 4.55285 5.00838 5.00845L0.341673 9.6751C0.314493 9.70228 0.28879 9.73088 0.264399 9.76063C0.253353 9.77408 0.243728 9.7883 0.233392 9.80214C0.220923 9.81876 0.208071 9.835 0.196478 9.85234C0.185376 9.86891 0.175751 9.88614 0.165579 9.90314C0.156228 9.91879 0.146384 9.9341 0.137743 9.95023C0.128446 9.96757 0.120571 9.98545 0.112259 10.0032C0.104329 10.02 0.0959619 10.0365 0.0887978 10.0537C0.0816885 10.0709 0.0758916 10.0885 0.0696572 10.106C0.06304 10.1245 0.0559854 10.1426 0.0502979 10.1614C0.0449932 10.1789 0.0411104 10.1967 0.0366807 10.2144C0.0318135 10.2336 0.0264541 10.2526 0.0225713 10.2722C0.0185244 10.2927 0.0161182 10.3134 0.013165 10.334C0.0107588 10.351 0.00747754 10.3678 0.00578223 10.385C-0.00176465 10.4616 -0.00176465 10.5387 0.00578223 10.6153C0.00747754 10.6325 0.0107041 10.6492 0.013165 10.6663C0.0161182 10.6869 0.0185244 10.7077 0.022626 10.7281C0.0265088 10.7477 0.0318682 10.7666 0.0367354 10.7858C0.041165 10.8035 0.0450479 10.8213 0.0503525 10.8388C0.05604 10.8576 0.0630947 10.8758 0.0697119 10.8942C0.076001 10.9117 0.0817432 10.9293 0.0888525 10.9465C0.0959619 10.9638 0.104384 10.9802 0.112313 10.997C0.120681 11.0147 0.128556 11.0326 0.137853 11.05C0.146493 11.0661 0.156282 11.0813 0.165634 11.097C0.175806 11.114 0.185431 11.1313 0.196532 11.1479C0.208071 11.1652 0.220923 11.1814 0.233337 11.198C0.243728 11.2119 0.253353 11.2261 0.264454 11.2396C0.288681 11.2691 0.31422 11.2975 0.341181 11.3245C0.341399 11.3247 0.341509 11.3249 0.341728 11.3251L5.00838 15.9917C5.46398 16.4473 6.2027 16.4473 6.6583 15.9917C7.1139 15.5361 7.1139 14.7974 6.6583 14.3418L3.98326 11.6667Z" fill="#00006C"/>
<path d="M27.7355 18.2395C27.7467 18.2259 27.7563 18.2117 27.7667 18.1977C27.7791 18.1812 27.7919 18.165 27.8034 18.1478C27.8146 18.1312 27.8242 18.1139 27.8344 18.0968C27.8437 18.0812 27.8535 18.066 27.862 18.05C27.8713 18.0326 27.8793 18.0146 27.8876 17.9969C27.8956 17.9801 27.9039 17.9637 27.911 17.9465C27.9181 17.9293 27.9239 17.9116 27.9302 17.8941C27.9368 17.8757 27.9439 17.8576 27.9495 17.8388C27.9548 17.8213 27.9587 17.8034 27.9632 17.7858C27.968 17.7666 27.9734 17.7476 27.9773 17.7281C27.9813 17.7076 27.9837 17.6869 27.9867 17.6663C27.9891 17.6493 27.9924 17.6325 27.9941 17.6152C28.0017 17.5387 28.0017 17.4615 27.9941 17.385C27.9924 17.3677 27.9892 17.351 27.9867 17.3339C27.9838 17.3133 27.9814 17.2926 27.9773 17.2721C27.9734 17.2526 27.968 17.2336 27.9632 17.2144C27.9587 17.1967 27.9548 17.1789 27.9495 17.1614C27.9439 17.1426 27.9368 17.1244 27.9302 17.106C27.9239 17.0885 27.9181 17.0709 27.911 17.0537C27.9039 17.0365 27.8956 17.0201 27.8876 17.0033C27.8793 16.9856 27.8714 16.9676 27.862 16.9502C27.8535 16.9342 27.8437 16.919 27.8344 16.9034C27.8242 16.8863 27.8145 16.869 27.8034 16.8524C27.7919 16.8352 27.7791 16.819 27.7667 16.8025C27.7563 16.7885 27.7466 16.7743 27.7355 16.7607C27.7115 16.7314 27.6861 16.7033 27.6594 16.6765C27.659 16.676 27.6586 16.6756 27.6582 16.6752L22.9916 12.0086C22.536 11.553 21.7972 11.553 21.3416 12.0086C20.886 12.4642 20.886 13.2029 21.3416 13.6585L24.0167 16.3335H10.5C9.85563 16.3335 9.33331 16.8559 9.33331 17.5002C9.33331 18.1445 9.85563 18.6668 10.5 18.6668H24.0167L21.3416 21.3419C20.886 21.7975 20.886 22.5362 21.3416 22.9918C21.7972 23.4474 22.536 23.4474 22.9916 22.9918L27.6582 18.3251C27.6587 18.3247 27.659 18.3243 27.6594 18.3239C27.6861 18.2969 27.7115 18.2688 27.7355 18.2395Z" fill="#00006C"/>
</svg>
