<svg width="24" height="24" viewBox="0 0 24 24" fill="none" xmlns="http://www.w3.org/2000/svg">
<g clip-path="url(#clip0_139_2398)">
<path d="M23.625 1.82125C23.625 1.43311 23.4739 1.06804 23.1993 0.793843C22.6501 0.244663 21.6936 0.244663 21.1445 0.793843L12 9.93832L2.85553 0.793843C2.30635 0.244663 1.3499 0.244663 0.800715 0.793843C0.526155 1.06804 0.375 1.43311 0.375 1.82125C0.375 2.20934 0.526155 2.5744 0.800723 2.84865L9.94519 11.9931L0.800723 21.1376C0.526155 21.4118 0.375 21.7769 0.375 22.165C0.375 22.5531 0.526155 22.9182 0.800723 23.1924C1.3499 23.7416 2.30635 23.7416 2.85554 23.1924L12 14.0479L21.1445 23.1924C21.4191 23.467 21.7838 23.6181 22.1719 23.6181C22.56 23.6181 22.9247 23.467 23.1993 23.1924C23.4739 22.9182 23.625 22.5531 23.625 22.165C23.625 21.7769 23.4739 21.4118 23.1993 21.1376L14.0548 11.9931L23.1993 2.84866C23.4739 2.57441 23.625 2.20934 23.625 1.82125Z" fill="#767676"/>
</g>
<defs>
<clipPath id="clip0_139_2398">
<rect width="24" height="24" fill="white"/>
</clipPath>
</defs>
</svg>
