<svg width="24" height="24" viewBox="0 0 24 24" fill="none" xmlns="http://www.w3.org/2000/svg">
<g clip-path="url(#clip0_111_1100)">
<path d="M23.9624 11.4339C23.9281 11.1773 23.6922 10.9971 23.4358 11.0313C23.1791 11.0655 22.9989 11.3013 23.0331 11.5579C23.0526 11.7041 23.0625 11.8528 23.0625 12C23.0625 13.5772 21.9472 15.0804 19.922 16.233C17.8135 17.4329 15.0001 18.0938 12 18.0938C10.1042 18.0938 8.28328 17.8296 6.66741 17.3326C6.17039 15.7167 5.90625 13.8958 5.90625 12C5.90625 8.99991 6.56709 6.18647 7.767 4.07803C8.91956 2.0528 10.4228 0.9375 12 0.9375C13.3235 0.9375 14.3773 1.70072 15.1361 2.53983H14.656C14.3972 2.53983 14.1873 2.74969 14.1873 3.00858C14.1873 3.26747 14.3972 3.47733 14.656 3.47733H16.1103C16.3692 3.47733 16.5791 3.26747 16.5791 3.00858V1.55423C16.5791 1.29534 16.3692 1.08548 16.1103 1.08548C15.8515 1.08548 15.6416 1.29534 15.6416 1.55423V1.71216C14.5545 0.599906 13.293 0 12 0C10.0713 0 8.27864 1.28358 6.95217 3.6143C5.67314 5.86181 4.96875 8.83988 4.96875 12C4.96875 13.7363 5.18184 15.4174 5.58563 16.9528C5.052 16.7404 4.54744 16.5001 4.07803 16.233C2.05284 15.0804 0.9375 13.5772 0.9375 12C0.9375 10.6687 1.70972 9.61008 2.55469 8.85023V9.32789C2.55469 9.58678 2.76459 9.79664 3.02344 9.79664C3.28228 9.79664 3.49219 9.58678 3.49219 9.32789V7.87355C3.49219 7.61466 3.28228 7.4048 3.02344 7.4048H1.56914C1.3103 7.4048 1.10039 7.61466 1.10039 7.87355C1.10039 8.13244 1.3103 8.3423 1.56914 8.3423H1.72889C0.606 9.43312 0 10.7005 0 12C0 13.9287 1.28358 15.7214 3.6143 17.0478C4.31808 17.4483 5.09348 17.7924 5.92369 18.0763C6.20752 18.9065 6.55167 19.6819 6.95217 20.3857C8.27864 22.7164 10.0713 24 12 24C13.1057 24 14.2038 23.5604 15.1754 22.7286C15.372 22.5602 15.395 22.2643 15.2266 22.0676C15.0583 21.871 14.7624 21.848 14.5657 22.0163C13.7549 22.7106 12.8916 23.0625 12 23.0625C10.4228 23.0625 8.91956 21.9472 7.767 19.922C7.49986 19.4525 7.25958 18.948 7.04723 18.4144C8.58263 18.8182 10.2637 19.0312 12 19.0312C15.1601 19.0312 18.1382 18.3269 20.3857 17.0478C22.7164 15.7214 24 13.9287 24 12C24 11.8115 23.9873 11.621 23.9624 11.4339Z" fill="#767676"/>
<path d="M23.3861 9.75568C23.3857 9.75488 23.3849 9.75343 23.3842 9.75211C23.2598 9.52744 22.9772 9.44461 22.7509 9.56715C22.5233 9.69043 22.4387 9.97491 22.562 10.2025C22.5626 10.2038 22.5651 10.2083 22.5658 10.2095C22.6513 10.3641 22.8114 10.4514 22.9764 10.4514C23.0532 10.4514 23.131 10.4325 23.2029 10.3928C23.4294 10.2675 23.5115 9.98222 23.3861 9.75568Z" fill="#767676"/>
<path d="M16.378 20.6163C16.1677 20.4657 15.8733 20.5168 15.7223 20.7265C15.7215 20.7276 15.7207 20.7287 15.7199 20.7298C15.5708 20.9409 15.6185 21.2361 15.8293 21.3857C15.9108 21.4435 16.0048 21.4712 16.0981 21.4712C16.2461 21.4712 16.3924 21.4016 16.4844 21.2726C16.6345 21.0621 16.5882 20.7668 16.378 20.6163Z" fill="#767676"/>
<path d="M15.3054 10.6496C15.2975 9.99044 14.7564 9.45415 14.0994 9.45415H12.446V8.21777C12.446 8.07237 12.5643 7.9541 12.7097 7.9541H14.0689C14.3277 7.9541 14.5376 7.74424 14.5376 7.48535C14.5376 7.22646 14.3277 7.0166 14.0689 7.0166H12.7097C12.0474 7.0166 11.5085 7.55543 11.5085 8.21777V12.0019C11.5085 12.6643 12.0474 13.2031 12.7097 13.2031H14.0994C14.7564 13.2031 15.2975 12.6668 15.3054 12.0076C15.3055 12.0057 15.3055 12.0038 15.3055 12.0019V10.6553C15.3055 10.6534 15.3055 10.6515 15.3054 10.6496ZM14.3679 11.9984C14.3649 12.1459 14.2449 12.2656 14.0993 12.2656H12.7097C12.5643 12.2656 12.446 12.1473 12.446 12.0019V10.3916H14.0993V10.3916C14.2449 10.3916 14.365 10.5113 14.3679 10.6588V11.9984Z" fill="#767676"/>
<path d="M18.4167 7.0166H17.0222C16.3599 7.0166 15.821 7.55543 15.821 8.21777V12.0019C15.821 12.6643 16.3599 13.2031 17.0222 13.2031H18.4167C19.0791 13.2031 19.6179 12.6643 19.6179 12.0019V8.21777C19.6179 7.55543 19.0791 7.0166 18.4167 7.0166ZM18.6804 12.0019C18.6804 12.1474 18.5622 12.2656 18.4167 12.2656H17.0222C16.8768 12.2656 16.7585 12.1474 16.7585 12.0019V8.21777C16.7585 8.07237 16.8768 7.9541 17.0222 7.9541H18.4167C18.5622 7.9541 18.6804 8.07237 18.6804 8.21777V12.0019Z" fill="#767676"/>
<path d="M9.791 7.0166H8.59424C7.93189 7.0166 7.39307 7.55543 7.39307 8.21777V8.23432C7.39307 8.49321 7.60297 8.70307 7.86182 8.70307C8.12066 8.70307 8.33057 8.49321 8.33057 8.23432V8.21777C8.33057 8.07237 8.44883 7.9541 8.59424 7.9541H9.791C9.93641 7.9541 10.0547 8.07237 10.0547 8.21777V9.64113H8.85233C8.59349 9.64113 8.38358 9.85099 8.38358 10.1099C8.38358 10.3688 8.59349 10.5786 8.85233 10.5786H10.0547V12.0019C10.0547 12.1474 9.93641 12.2656 9.791 12.2656H8.59424C8.44883 12.2656 8.33057 12.1474 8.33057 12.0019V11.9371C8.33057 11.6782 8.12066 11.4683 7.86182 11.4683C7.60297 11.4683 7.39307 11.6782 7.39307 11.9371V12.0019C7.39307 12.6643 7.93189 13.2031 8.59424 13.2031H9.791C10.4533 13.2031 10.9922 12.6643 10.9922 12.0019V8.21777C10.9922 7.55543 10.4533 7.0166 9.791 7.0166Z" fill="#767676"/>
<path d="M21.5133 6.24194C20.8277 6.24194 20.2699 6.79971 20.2699 7.4853C20.2699 8.1709 20.8277 8.72866 21.5133 8.72866C22.1989 8.72866 22.7566 8.1709 22.7566 7.4853C22.7566 6.79971 22.1989 6.24194 21.5133 6.24194ZM21.5133 7.79112C21.3446 7.79112 21.2074 7.65391 21.2074 7.48526C21.2074 7.3166 21.3446 7.1794 21.5133 7.1794C21.6819 7.1794 21.8191 7.3166 21.8191 7.48526C21.8191 7.65391 21.6819 7.79112 21.5133 7.79112Z" fill="#767676"/>
</g>
<defs>
<clipPath id="clip0_111_1100">
<rect width="24" height="24" fill="white"/>
</clipPath>
</defs>
</svg>
