<svg width="25" height="15" viewBox="0 0 25 15" fill="none" xmlns="http://www.w3.org/2000/svg">
<path d="M23.2647 0.336299L12.4989 12.2911L1.73306 0.336299C1.54071 0.122274 1.2825 0.00245361 1.01361 0.00245361C0.744732 0.00245361 0.486518 0.122274 0.294168 0.336299C0.201033 0.440251 0.127042 0.564328 0.0765298 0.701265C0.0260178 0.838201 0 0.985244 0 1.13378C0 1.28231 0.0260178 1.42935 0.0765298 1.56629C0.127042 1.70323 0.201033 1.82731 0.294168 1.93126L11.7471 14.6517C11.9483 14.875 12.218 15 12.4989 15C12.7798 15 13.0495 14.875 13.2507 14.6517L24.7036 1.93371C24.7974 1.82968 24.872 1.7053 24.9229 1.56791C24.9738 1.43052 25 1.2829 25 1.13378C25 0.984653 24.9738 0.837037 24.9229 0.699647C24.872 0.562256 24.7974 0.437875 24.7036 0.333844C24.5113 0.119819 24.2531 0 23.9842 0C23.7153 0 23.4571 0.119819 23.2647 0.333844V0.336299Z" fill="#0099D9"/>
</svg>
