<svg width="24" height="24" viewBox="0 0 24 24" fill="none" xmlns="http://www.w3.org/2000/svg">
<path d="M19.0594 12.4778C18.8638 12.4778 18.684 12.3505 18.6185 12.1665C18.5531 11.9825 18.6102 11.7703 18.762 11.6463C18.9159 11.5206 19.1378 11.5064 19.3067 11.6108C19.4743 11.7145 19.5599 11.9187 19.5166 12.1109C19.4692 12.322 19.2764 12.4778 19.0594 12.4778Z" fill="#767676"/>
<path d="M11.1546 15.4097C11.0901 15.4097 11.025 15.3964 10.9634 15.3689C10.778 15.286 10.6671 15.0932 10.6886 14.8912L10.892 12.9854H9.41259C9.24816 12.9854 9.09576 12.8993 9.01097 12.7584C8.92617 12.6175 8.92139 12.4425 8.99841 12.2972L11.3105 7.93405C11.3918 7.78072 11.5511 7.68481 11.7247 7.68481H14.1606C14.3271 7.68481 14.4811 7.77313 14.5652 7.9168C14.6493 8.06047 14.6508 8.23799 14.5693 8.38316L13.2836 10.6715H14.5873C14.7725 10.6715 14.9404 10.7806 15.0157 10.9498C15.0908 11.1191 15.0593 11.3169 14.9352 11.4544L11.5026 15.2551C11.4117 15.3559 11.2844 15.4097 11.1546 15.4097ZM10.1916 12.0479H11.4135C11.5465 12.0479 11.6732 12.1044 11.7621 12.2032C11.851 12.3021 11.8937 12.4341 11.8796 12.5664L11.774 13.5559L13.5323 11.6089H12.4827C12.3162 11.6089 12.1622 11.5206 12.0781 11.3769C11.994 11.2333 11.9925 11.0557 12.074 10.9106L13.3597 8.62227H12.0069L10.1916 12.0479Z" fill="#767676"/>
<path d="M16.997 4.43115H7.00299C6.7441 4.43115 6.53424 4.64101 6.53424 4.8999V21.4687C6.53424 21.7275 6.7441 21.9374 7.00299 21.9374H16.997C17.2559 21.9374 17.4658 21.7275 17.4658 21.4687V4.8999C17.4658 4.64106 17.2559 4.43115 16.997 4.43115ZM7.47174 5.36865H16.5283V17.3505H7.47174V5.36865ZM16.5283 20.9999H7.47174V18.288H16.5283V20.9999Z" fill="#767676"/>
<path d="M19.0595 10.3497C19.3184 10.3497 19.5283 10.1399 19.5283 9.88097V4.24533C19.5283 3.21056 18.6864 2.36873 17.6516 2.36873H16.1182V1.41211C16.1182 0.633469 15.4847 0 14.7061 0H9.29391C8.51527 0 7.8818 0.633469 7.8818 1.41211V2.36873H6.34838C5.31362 2.36873 4.47174 3.21056 4.47174 4.24533V22.1233C4.47174 23.1581 5.31357 24 6.34838 24H17.6516C18.6864 24 19.5283 23.1581 19.5283 22.1233V14.119C19.5283 13.8602 19.3184 13.6503 19.0595 13.6503C18.8006 13.6503 18.5908 13.8602 18.5908 14.119V22.1234C18.5908 22.6412 18.1695 23.0625 17.6516 23.0625H6.34838C5.83055 23.0625 5.40924 22.6412 5.40924 22.1234V4.24533C5.40924 3.7275 5.83051 3.30623 6.34838 3.30623H17.6516C18.1695 3.30623 18.5908 3.7275 18.5908 4.24533V9.88097C18.5908 10.1398 18.8006 10.3497 19.0595 10.3497ZM8.8193 2.36873V1.41211C8.8193 1.15041 9.03221 0.9375 9.29391 0.9375H14.7061C14.9678 0.9375 15.1807 1.15041 15.1807 1.41211V2.36873H8.8193Z" fill="#767676"/>
</svg>
