<svg width="25" height="32" viewBox="0 0 25 32" fill="none" xmlns="http://www.w3.org/2000/svg">
<path d="M21.9272 0H3.07283C1.41121 0 0 1.28486 0 2.94606V29.6752C0.00488961 31.7836 2.69105 32.773 4.21817 31.2929L11.4049 24.4046C11.9809 23.8285 13.0191 23.8285 13.5951 24.4046L20.7818 31.2929C22.3096 32.7735 24.9954 31.7827 25 29.6752V2.94606C25 1.28486 23.5888 0 21.9272 0V0ZM23.0442 29.6752C23.0417 30.1216 22.4629 30.269 22.1635 29.9658C20.7268 28.5863 16.6296 24.6593 14.9794 23.08C13.6811 21.7783 11.3208 21.7779 10.0232 23.0775C8.88319 24.1684 6.6517 26.3072 4.89261 27.9932L2.84615 29.9544C2.55127 30.2543 1.96523 30.1542 1.95578 29.6922V2.94606C1.95578 2.34713 2.46215 1.87516 3.07283 1.87516H21.9271C22.5369 1.87516 23.0442 2.34638 23.0442 2.94606V29.6752Z" fill="black"/>
</svg>
