<svg width="17" height="11" viewBox="0 0 17 11" fill="none" xmlns="http://www.w3.org/2000/svg">
<path fill-rule="evenodd" clip-rule="evenodd" d="M0.353778 5.13229C0.260009 5.22605 0.207331 5.35323 0.207331 5.48584C0.207331 5.61845 0.260009 5.74562 0.353778 5.83939L4.59642 10.082C4.69019 10.1758 4.81736 10.2285 4.94997 10.2285C5.08258 10.2285 5.20976 10.1758 5.30353 10.082C5.39729 9.98827 5.44997 9.86109 5.44997 9.72848C5.44997 9.59587 5.39729 9.4687 5.30353 9.37493L1.91436 5.98576L16.2637 5.98647C16.3294 5.98647 16.3945 5.97352 16.4553 5.94836C16.516 5.9232 16.5712 5.88633 16.6177 5.83984C16.6642 5.79335 16.701 5.73816 16.7262 5.67742C16.7514 5.61668 16.7643 5.55158 16.7643 5.48584C16.7643 5.4201 16.7514 5.355 16.7262 5.29426C16.701 5.23352 16.6642 5.17833 16.6177 5.13184C16.5712 5.08535 16.516 5.04848 16.4553 5.02332C16.3945 4.99816 16.3294 4.98521 16.2637 4.98521L1.91436 4.98592L5.30353 1.59675C5.39729 1.50298 5.44997 1.37581 5.44997 1.2432C5.44997 1.11059 5.39729 0.983414 5.30353 0.889646C5.20976 0.795878 5.08258 0.743199 4.94997 0.743199C4.81736 0.743199 4.69019 0.795878 4.59642 0.889646L0.353778 5.13229Z" fill="black"/>
</svg>
