<svg width="11" height="13" viewBox="0 0 11 13" fill="none" xmlns="http://www.w3.org/2000/svg">
<path d="M9.98934 8.87642C9.8699 8.44334 9.69018 8.12537 9.54029 7.88831C9.51271 7.77154 9.44672 7.68824 9.389 7.62902C9.32441 7.56796 9.27174 7.51737 9.22228 7.48224L9.08259 7.37191L9.21176 7.49402C9.25253 7.53412 9.30521 7.5847 9.36111 7.65072C9.41014 7.7149 9.46744 7.80317 9.47807 7.90082L9.47442 7.91442C9.60693 8.1614 9.75371 8.49243 9.82509 8.91263C9.8983 9.32603 9.89427 9.83541 9.67332 10.3304C9.46107 10.8205 9.03373 11.2893 8.44877 11.5774C8.16064 11.719 7.83174 11.8204 7.48674 11.8447C7.1486 11.8707 6.79437 11.8196 6.49172 11.6583C6.18908 11.497 5.95862 11.231 5.82921 10.8901C5.7645 10.7196 5.72587 10.5343 5.70461 10.339C5.69398 10.2413 5.69022 10.1455 5.68828 10.0429L5.69224 9.89081L5.69855 9.8123L5.70767 9.77827L5.69941 9.75417C5.70895 9.6911 5.74134 9.59769 5.76686 9.50244C5.79925 9.40903 5.84032 9.31065 5.88827 9.21411C5.97911 9.01239 6.07683 8.81251 6.18323 8.60767C6.39603 8.19799 6.63489 7.77342 6.86871 7.3402C7.33132 6.46511 7.81859 5.55288 8.18355 4.52038C8.36008 3.99888 8.51462 3.44961 8.53408 2.82769C8.53695 2.51489 8.50227 2.17745 8.35548 1.84643C8.21739 1.51045 7.94433 1.21123 7.63342 1.02583C7.25932 0.801625 6.87119 0.712204 6.49958 0.670969C6.12797 0.629734 5.77974 0.638531 5.43292 0.669568C5.07236 0.696925 4.68854 0.783661 4.32907 0.971739C3.96961 1.15982 3.67205 1.47389 3.4999 1.81425C3.31907 2.15957 3.23982 2.51024 3.19351 2.84786C3.15406 3.18732 3.14937 3.50693 3.16023 3.8234C3.18379 4.44955 3.26817 5.04094 3.35115 5.61009C3.43413 6.17925 3.51571 6.72616 3.55975 7.24841C3.60378 7.77067 3.62217 8.27876 3.53296 8.72156C3.44879 9.173 3.24188 9.53322 2.90805 9.73546C2.74114 9.83658 2.54538 9.90809 2.34316 9.94871C2.14095 9.98932 1.93047 10.0058 1.74284 9.99203C1.3589 9.96937 1.05485 9.78582 0.914506 9.4857C0.767293 9.18373 0.767368 8.82642 0.828808 8.51473C0.960377 7.88639 1.33826 7.3824 1.76961 7.22816C1.98276 7.14672 2.19785 7.16789 2.36768 7.22069C2.54255 7.28213 2.6758 7.36158 2.77289 7.43864C2.97394 7.5946 3.05505 7.70384 3.06373 7.69888C3.06373 7.69888 2.99132 7.58468 2.80442 7.40334C2.70915 7.31947 2.5832 7.2128 2.40511 7.13591C2.22703 7.05903 1.98993 7.01009 1.73558 7.08049C1.48306 7.14409 1.23248 7.31029 1.02911 7.54749C0.825733 7.78469 0.65765 8.08239 0.555986 8.43435C0.463009 8.78134 0.410381 9.19748 0.576487 9.62118C0.659539 9.83303 0.811679 10.0342 1.01638 10.1766C1.22108 10.3189 1.46278 10.4056 1.70534 10.4341C1.95294 10.4713 2.19088 10.4621 2.44297 10.4276C2.68821 10.3912 2.9476 10.3294 3.19593 10.1991C3.44427 10.0687 3.66598 9.87293 3.8332 9.63334C4.00042 9.39375 4.10264 9.12214 4.17556 8.84999C4.30767 8.30201 4.3176 7.74316 4.29641 7.19057C4.26836 6.63613 4.20597 6.07252 4.15228 5.50392C4.0899 4.94029 4.03116 4.36303 4.02918 3.7937C4.02537 3.23118 4.07188 2.64568 4.30892 2.22791C4.42401 2.0181 4.58309 1.86383 4.78797 1.7583C4.99286 1.65277 5.25225 1.59101 5.52999 1.57063C5.83015 1.54897 6.1317 1.54956 6.41728 1.58232C6.70285 1.61509 6.97063 1.68684 7.16706 1.8051C7.33099 1.90737 7.4446 2.03261 7.518 2.19812C7.59139 2.36363 7.62274 2.57622 7.62115 2.80185C7.61797 3.25312 7.49358 3.74484 7.34536 4.21558C7.03156 5.167 6.58226 6.07481 6.15077 6.94364C5.93068 7.38054 5.71928 7.81247 5.50788 8.24441C5.40653 8.45789 5.30334 8.67819 5.21389 8.90216C5.16917 9.01414 5.12263 9.13293 5.08981 9.2554C5.057 9.37787 5.02236 9.50714 5.00103 9.66915L4.99835 9.73406L5.00114 9.77856L4.99986 9.86572C4.99901 9.92383 5.0032 9.99058 5.00921 10.0505C5.01437 10.1686 5.03145 10.2971 5.05034 10.4189C5.08812 10.6623 5.15702 10.8996 5.25885 11.1238C5.45381 11.5771 5.82718 11.9688 6.26896 12.1601C6.70892 12.3582 7.16517 12.3856 7.57786 12.3285C7.99055 12.2714 8.36837 12.1247 8.68986 11.941C9.34335 11.5619 9.78935 10.9959 9.98047 10.42C10.1803 9.8391 10.1367 9.2878 10.0154 8.86152L9.98934 8.87642Z" fill="#767676"/>
</svg>
