<svg width="17" height="16" viewBox="0 0 17 16" fill="none" xmlns="http://www.w3.org/2000/svg">
<path d="M2.20037 7.44766C2.57004 7.43545 3.01665 7.4435 3.52463 7.47087C3.7799 7.48932 4.05076 7.50871 4.33369 7.53507L4.84328 7.58753C5.09157 7.61807 5.36404 7.66257 5.63999 7.70101C5.65395 7.67684 5.65838 7.65522 5.66281 7.6336L5.66978 7.62152L5.66815 7.5964L5.66842 7.54014L5.66337 7.3116C5.662 7.23023 5.65178 7.1921 5.64692 7.11677L5.6344 7.01284L5.58562 6.88798C5.5531 6.80474 5.50244 6.71103 5.47596 6.63128L5.45459 6.57059C5.45459 6.57059 5.44694 6.542 5.44439 6.53246C5.43928 6.5134 5.43161 6.4848 5.4265 6.46573C5.40096 6.3704 5.3875 6.28205 5.37404 6.19369C5.33068 5.82216 5.40333 5.44509 5.61082 5.11362C6.0172 4.43767 6.89106 3.94298 7.82224 3.79565C8.33676 3.71398 8.85776 3.73274 9.30898 3.87238C9.76973 4.00947 10.1547 4.26394 10.4345 4.60277C10.7143 4.94159 10.889 5.36478 10.9823 5.78934C11.029 6.00162 11.0566 6.219 11.0721 6.42941L11.0783 6.58611L11.0769 6.71421L11.0719 6.84836L11.0532 7.36936C11.2887 7.35223 11.5242 7.3351 11.7311 7.32564L12.164 7.3016L12.8948 7.26417C13.3528 7.23851 13.7555 7.19703 14.0803 7.15086C14.7334 7.0525 15.0768 6.90428 15.0768 6.90428C15.0768 6.90428 14.7129 6.97623 14.0664 6.96556C13.7444 6.96499 13.3489 6.93813 12.8946 6.90148L12.1635 6.84196L11.9645 6.82377C11.9022 6.82003 11.8147 6.81791 11.8027 6.81093C11.7438 6.80114 11.6911 6.79485 11.6443 6.79205L11.6709 6.66233L11.6849 6.63815L11.6797 6.61909C11.6797 6.61909 11.6797 6.61908 11.6842 6.59746L11.6919 6.41659C11.6999 6.17945 11.6932 5.9258 11.6554 5.67029C11.5893 5.15669 11.4195 4.59936 11.0677 4.10614C10.7159 3.61291 10.1766 3.22099 9.56987 3.01574C8.96314 2.81049 8.29939 2.77377 7.65838 2.87911C7.07712 2.97867 6.52397 3.18309 6.03704 3.48215C5.55616 3.78469 5.13451 4.19397 4.86652 4.70001C4.59248 5.20257 4.52232 5.79866 4.63259 6.30552C4.65627 6.432 4.68946 6.55592 4.73569 6.67125C4.74336 6.69985 4.75707 6.73194 4.76822 6.7545C4.77682 6.76752 4.78193 6.78659 4.78449 6.79613L4.79657 6.8031C4.79657 6.8031 4.81028 6.83519 4.81888 6.84821C4.83607 6.87425 4.85931 6.90379 4.87302 6.93588L4.88834 6.99307C4.88834 6.99307 4.89949 7.01563 4.88996 7.01818L4.8709 7.02329L4.72025 7.03301L4.67606 7.03973L4.56354 7.03924L4.3385 7.03823C4.04416 7.04558 3.76191 7.0599 3.50128 7.07865C2.97653 7.12219 2.52873 7.18598 2.15882 7.25444C1.41899 7.39137 1.03301 7.57144 1.03301 7.57144C1.03301 7.57144 1.44548 7.47113 2.17783 7.45881L2.20037 7.44766Z" fill="#767676"/>
<path d="M1.17627 10.0314C1.17627 10.0314 4.34036 10.3433 8.22509 10.1606C12.1003 9.98051 15.2226 9.37378 15.2226 9.37378C15.2226 9.37378 12.0585 9.06193 8.17983 9.24807C4.30114 9.43421 1.17882 10.0409 1.17882 10.0409L1.17627 10.0314Z" fill="#767676"/>
</svg>
