<svg width="24" height="24" viewBox="0 0 24 24" fill="none" xmlns="http://www.w3.org/2000/svg">
<path d="M12 5.40232C9.66997 5.40232 7.77195 7.27092 7.77195 9.57097C7.77195 11.871 9.66997 13.7396 12 13.7396C14.33 13.7396 16.2281 11.871 16.2281 9.57097C16.2281 7.27092 14.33 5.40232 12 5.40232ZM12 12.4452C10.3899 12.4452 9.08228 11.1543 9.08228 9.57089C9.08228 7.98747 10.3899 6.69669 12 6.69669C13.6101 6.69669 14.9177 7.98754 14.9177 9.57097C14.9177 11.1544 13.6102 12.4452 12 12.4452Z" fill="#00006C" stroke="#00006C" stroke-width="0.2"/>
<path d="M7.89518 16.8403L7.97961 16.7867L7.89518 16.8403C8.62906 17.9964 9.41829 19.0977 10.118 19.9414C10.6786 20.6174 11.0646 20.9904 11.3509 21.1947C11.6423 21.4026 11.8342 21.4382 12 21.4382C12.1684 21.4382 12.3561 21.4024 12.6421 21.194C12.9227 20.9897 13.3021 20.6165 13.8607 19.9405L13.7836 19.8768L13.8607 19.9404C14.5618 19.0919 15.3513 17.9913 16.0844 16.8413C16.6458 15.9607 17.3984 14.6986 18.0109 13.3816C18.6219 12.0679 19.1 10.6863 19.1 9.57078C19.1 5.70994 15.9137 2.57151 12 2.57151C8.0863 2.57151 4.9 5.70994 4.9 9.57085C4.9 10.6908 5.37485 12.0731 5.98174 13.3861C6.59013 14.7022 7.33759 15.9618 7.89518 16.8403ZM15.1456 15.8825C14.4296 17.028 13.7431 17.9873 13.176 18.7091C12.6544 19.373 12.2373 19.8313 11.9923 20.0499C11.7477 19.8379 11.3354 19.391 10.8166 18.7329C10.2522 18.0168 9.56615 17.0563 8.84011 15.8899C8.00176 14.5429 7.34335 13.2921 6.89486 12.2116C6.4454 11.1287 6.2104 10.2255 6.2104 9.57085C6.21033 6.42656 8.80625 3.86588 12 3.86588C15.1937 3.86588 17.7896 6.42656 17.7896 9.57085C17.7896 10.2214 17.5534 11.122 17.1015 12.2036C16.6505 13.2829 15.9885 14.5339 15.1456 15.8825Z" fill="#00006C" stroke="#00006C" stroke-width="0.2"/>
</svg>
