<svg width="320" height="57" viewBox="0 0 320 57" fill="none" xmlns="http://www.w3.org/2000/svg">
<path fill-rule="evenodd" clip-rule="evenodd" d="M148.817 54.8129L131.027 37.0226V19.5863L148.613 2H166.049L183.84 19.7903V36.8186L165.845 54.8129H148.817ZM166.878 0H147.785L129.027 18.7578V37.851L147.989 56.8129H166.674L185.84 37.6471V18.9618L166.878 0ZM40.3682 19.5195C39.6389 18.5992 38.5064 18.139 36.9709 18.139C35.4547 18.139 34.3318 18.5896 33.6025 19.4907C32.8731 20.392 32.5084 21.619 32.5084 23.1721C32.5084 24.1116 32.6716 24.9264 32.9979 25.6167C33.3434 26.2877 33.7656 26.8917 34.2646 27.4286C34.7637 27.9655 35.3011 28.464 35.8769 28.9241C36.4527 29.3651 36.9901 29.8252 37.4891 30.3046C37.9882 30.7648 38.4009 31.2728 38.7271 31.8289C39.0726 32.3657 39.2454 33.0081 39.2454 33.7559C39.2454 34.6761 39.0534 35.3855 38.6696 35.884C38.2857 36.3826 37.6907 36.6318 36.8846 36.6318C36.0784 36.6318 35.4835 36.3826 35.0995 35.884C34.7157 35.3855 34.5237 34.6761 34.5237 33.7559V32.4904H32.4221V33.6407C32.4221 35.1747 32.7867 36.4017 33.5161 37.322C34.2455 38.2233 35.3875 38.6738 36.9421 38.6738C38.4968 38.6738 39.6389 38.2233 40.3682 37.322C41.1167 36.4017 41.491 35.1747 41.491 33.6407C41.491 32.7013 41.3182 31.896 40.9728 31.225C40.6465 30.5347 40.2338 29.9211 39.7348 29.3843C39.2358 28.8474 38.6887 28.3585 38.0938 27.9175C37.5179 27.4573 36.9805 26.9972 36.4815 26.537C35.9825 26.0576 35.5602 25.54 35.2147 24.984C34.8884 24.428 34.7253 23.776 34.7253 23.0283C34.7253 22.1271 34.9077 21.4272 35.2723 20.9288C35.637 20.4303 36.2224 20.181 37.0285 20.181C37.8347 20.181 38.42 20.4303 38.7847 20.9288C39.1494 21.4272 39.3317 22.1367 39.3317 23.057V23.7185H41.4622V23.1721C41.4622 21.6382 41.0975 20.4207 40.3682 19.5195ZM2.07288 38.4725L2.85022 34.4172H7.94611L8.72345 38.4725H10.9691L7.11121 18.3403H3.85791L0 38.4725H2.07288ZM7.62939 32.4904H3.13812L5.35498 20.8712L7.62939 32.4904ZM66.4044 38.4725V20.3823H62.6905V18.3403H72.364V20.3823H68.6501V38.4725H66.4044ZM101.861 19.5195C101.17 18.7334 100.028 18.3403 98.4352 18.3403H93.9438V38.4725H96.1895V29.8732H97.773C98.7135 29.8732 99.4332 30.0936 99.9323 30.5347C100.451 30.9565 100.71 31.733 100.71 32.8643V36.0278C100.71 36.699 100.738 37.207 100.796 37.5521C100.854 37.8781 100.95 38.1849 101.084 38.4725H103.358C103.166 38.1273 103.051 37.7534 103.013 37.3508C102.974 36.929 102.955 36.4976 102.955 36.0566V32.9218C102.955 31.8289 102.763 30.9277 102.379 30.2183C101.996 29.4897 101.343 28.9912 100.422 28.7228C101.285 28.4543 101.919 27.975 102.322 27.2848C102.725 26.5945 102.926 25.6934 102.926 24.5813V22.942C102.926 21.4464 102.571 20.3057 101.861 19.5195ZM99.9611 27.2848C99.462 27.649 98.7615 27.8312 97.8594 27.8312H96.1895V20.3823H98.3776C99.2221 20.3823 99.8171 20.6124 100.163 21.0726C100.527 21.5327 100.71 22.223 100.71 23.1433V25.0702C100.71 26.1631 100.46 26.9012 99.9611 27.2848ZM217.334 38.6738H214.263L211.508 18.139H213.689L216.043 35.6229L218.282 18.1683H220.492L222.702 35.6522L224.969 18.139H226.921L224.194 38.6738H221.238L219.315 24.7395L217.334 38.6738ZM250.952 34.5375L250.177 38.6738H248.111L251.957 18.139H255.2L259.046 38.6738H256.807L256.032 34.5375H250.952ZM251.239 32.572H255.717L253.449 20.7206L251.239 32.572ZM283.677 20.2218V38.6738H285.915V20.2218H289.618V18.139H279.974V20.2218H283.677ZM314.059 38.6738V20.2218H310.356V18.139H320V20.2218H316.297V38.6738H314.059ZM139.294 25.2603V13.234L145.307 19.2472L139.294 25.2603ZM142.44 28.4064L148.453 22.3932L154.323 28.2628L148.31 34.276L142.44 28.4064ZM151.599 19.2472L157.469 25.1168L163.303 19.2831L157.433 13.4135L151.599 19.2472ZM151.456 37.4221L157.469 31.4089L163.446 37.3862L157.433 43.3994L151.456 37.4221ZM160.615 28.2628L166.592 34.2401L172.426 28.4064L166.449 22.4291L160.615 28.2628ZM160.579 46.5454L166.592 40.5322L172.606 46.5454H160.579ZM169.739 37.3862L175.572 43.22V31.5525L169.739 37.3862ZM142.62 10.2673L148.453 16.1011L154.287 10.2673H142.62ZM160.579 10.2673L166.449 16.137L172.319 10.2673H160.579ZM145.164 37.4221L139.294 31.5525V43.2917L145.164 37.4221ZM142.333 46.5454L148.31 40.5681L154.287 46.5454H142.333ZM169.595 19.2831L175.572 13.3058V25.2603L169.595 19.2831ZM21.9037 28.5776C21.9037 29.4281 21.2142 30.1177 20.3636 30.1177C19.5131 30.1177 18.8235 29.4281 18.8235 28.5776C18.8235 27.7271 19.5131 27.0375 20.3636 27.0375C21.2142 27.0375 21.9037 27.7271 21.9037 28.5776ZM51.508 30.1177C52.3586 30.1177 53.0481 29.4281 53.0481 28.5776C53.0481 27.7271 52.3586 27.0375 51.508 27.0375C50.6574 27.0375 49.9679 27.7271 49.9679 28.5776C49.9679 29.4281 50.6574 30.1177 51.508 30.1177ZM84.1925 28.5776C84.1925 29.4281 83.503 30.1177 82.6524 30.1177C81.8018 30.1177 81.1123 29.4281 81.1123 28.5776C81.1123 27.7271 81.8018 27.0375 82.6524 27.0375C83.503 27.0375 84.1925 27.7271 84.1925 28.5776ZM116.193 30.1177C117.043 30.1177 117.733 29.4281 117.733 28.5776C117.733 27.7271 117.043 27.0375 116.193 27.0375C115.342 27.0375 114.652 27.7271 114.652 28.5776C114.652 29.4281 115.342 30.1177 116.193 30.1177ZM200.214 28.5776C200.214 29.4281 199.524 30.1177 198.674 30.1177C197.823 30.1177 197.134 29.4281 197.134 28.5776C197.134 27.7271 197.823 27.0375 198.674 27.0375C199.524 27.0375 200.214 27.7271 200.214 28.5776ZM238.032 30.1177C238.883 30.1177 239.572 29.4281 239.572 28.5776C239.572 27.7271 238.883 27.0375 238.032 27.0375C237.182 27.0375 236.492 27.7271 236.492 28.5776C236.492 29.4281 237.182 30.1177 238.032 30.1177ZM270.374 28.5776C270.374 29.4281 269.685 30.1177 268.834 30.1177C267.984 30.1177 267.294 29.4281 267.294 28.5776C267.294 27.7271 267.984 27.0375 268.834 27.0375C269.685 27.0375 270.374 27.7271 270.374 28.5776ZM300.321 30.1177C301.171 30.1177 301.861 29.4281 301.861 28.5776C301.861 27.7271 301.171 27.0375 300.321 27.0375C299.47 27.0375 298.781 27.7271 298.781 28.5776C298.781 29.4281 299.47 30.1177 300.321 30.1177Z" fill="#121212"/>
</svg>
