<svg width="24" height="24" viewBox="0 0 24 24" fill="none" xmlns="http://www.w3.org/2000/svg">
<g clip-path="url(#clip0_137_1491)">
<path d="M9.46875 21.1875C9.34552 21.1875 9.22449 21.2377 9.13733 21.3248C9.05017 21.412 9 21.533 9 21.6562C9 21.7795 9.05017 21.9005 9.13733 21.9877C9.22449 22.0748 9.34552 22.125 9.46875 22.125C9.59198 22.125 9.71301 22.0748 9.80017 21.9877C9.88733 21.9005 9.9375 21.7795 9.9375 21.6562C9.9375 21.533 9.88733 21.412 9.80017 21.3248C9.71301 21.2377 9.59198 21.1875 9.46875 21.1875Z" fill="#767676"/>
<path d="M23.4996 6.39001C22.8334 5.72388 21.7496 5.72388 21.0835 6.39001L18.9375 8.53601V1.59375C18.9375 0.715027 18.2225 0 17.3438 0H1.59375C0.715027 0 0 0.715027 0 1.59375V22.4062C0 23.285 0.715027 24 1.59375 24H17.3438C18.2225 24 18.9375 23.285 18.9375 22.4062V13.3683L23.4996 8.80609C24.1657 8.13995 24.1657 7.05615 23.4996 6.39001V6.39001ZM18 1.59375V9.47351L17.0625 10.411V2.34375C17.0625 2.08484 16.8527 1.875 16.5938 1.875H13.461V0.9375H17.3438C17.7056 0.9375 18 1.23193 18 1.59375ZM15.4406 14.449L16.0734 13.0274L16.8622 13.8162L15.4406 14.449ZM12.5235 0.9375V2.84766C12.5235 3.13843 12.2869 3.375 11.9962 3.375H6.94135C6.65057 3.375 6.414 3.13843 6.414 2.84766V0.9375H12.5235ZM17.3438 23.0625H1.59375C1.23193 23.0625 0.9375 22.7681 0.9375 22.4062V1.59375C0.9375 1.23193 1.23193 0.9375 1.59375 0.9375H5.4765V1.875H2.34375C2.08484 1.875 1.875 2.08484 1.875 2.34375V21.6562C1.875 21.9152 2.08484 22.125 2.34375 22.125H7.59375C7.85266 22.125 8.0625 21.9152 8.0625 21.6562C8.0625 21.3973 7.85266 21.1875 7.59375 21.1875H2.8125V2.8125H5.4765V2.84766C5.4765 3.65533 6.13367 4.3125 6.94135 4.3125H11.9962C12.8038 4.3125 13.461 3.65533 13.461 2.84766V2.8125H16.125V11.3485L15.5911 11.8823C15.5506 11.9229 15.5178 11.9707 15.4944 12.0231L14.0874 15.1833C14.0085 15.3607 14.0469 15.5682 14.1841 15.7055C14.274 15.7952 14.3939 15.8428 14.5157 15.8428C14.5801 15.8428 14.645 15.8297 14.7063 15.8024L16.125 15.1707V21.1875H11.3438C11.0848 21.1875 10.875 21.3973 10.875 21.6562C10.875 21.9152 11.0848 22.125 11.3438 22.125H16.5938C16.8525 22.125 17.0625 21.9152 17.0625 21.6562V14.7532L17.8665 14.3952C17.916 14.3732 17.9608 14.3427 18 14.3051V22.4062C18 22.7681 17.7056 23.0625 17.3438 23.0625V23.0625ZM21.0895 9.89026L17.6759 13.3041L16.5855 12.2137L20.8121 7.98706L21.9025 9.07745L21.0895 9.89026ZM22.8367 8.14325L22.5654 8.41443L21.4752 7.32422L21.7463 7.05304C22.047 6.75238 22.5361 6.75238 22.8367 7.05304C23.1372 7.35352 23.1372 7.84259 22.8367 8.14325V8.14325Z" fill="#767676"/>
<path d="M7.59375 5.625H4.59375C4.33484 5.625 4.125 5.83484 4.125 6.09375V9.09375C4.125 9.35266 4.33484 9.5625 4.59375 9.5625H7.59375C7.85266 9.5625 8.0625 9.35266 8.0625 9.09375V6.09375C8.0625 5.83484 7.85266 5.625 7.59375 5.625ZM7.125 8.625H5.0625V6.5625H7.125V8.625Z" fill="#767676"/>
<path d="M7.59375 10.7812H4.59375C4.33484 10.7812 4.125 10.9911 4.125 11.25V14.25C4.125 14.5089 4.33484 14.7188 4.59375 14.7188H7.59375C7.85266 14.7188 8.0625 14.5089 8.0625 14.25V11.25C8.0625 10.9911 7.85266 10.7812 7.59375 10.7812ZM7.125 13.7812H5.0625V11.7188H7.125V13.7812Z" fill="#767676"/>
<path d="M7.59375 15.9375H4.59375C4.33484 15.9375 4.125 16.1473 4.125 16.4062V19.4062C4.125 19.6652 4.33484 19.875 4.59375 19.875H7.59375C7.85266 19.875 8.0625 19.6652 8.0625 19.4062V16.4062C8.0625 16.1473 7.85266 15.9375 7.59375 15.9375ZM7.125 18.9375H5.0625V16.875H7.125V18.9375Z" fill="#767676"/>
<path d="M10.949 8.9834C11.0405 9.07495 11.1605 9.12073 11.2804 9.12073C11.4003 9.12073 11.5203 9.07495 11.6118 8.9834L13.7281 6.86707C13.9111 6.68414 13.9111 6.38733 13.7281 6.20422C13.545 6.02112 13.2482 6.02112 13.0651 6.20422L11.2804 7.98895L10.569 7.27759C10.3859 7.09448 10.0893 7.09448 9.90601 7.27759C9.72308 7.46069 9.72308 7.75751 9.90601 7.94043L10.949 8.9834Z" fill="#767676"/>
<path d="M10.949 14.1395C11.0369 14.2274 11.1561 14.2768 11.2804 14.2768C11.4047 14.2768 11.5239 14.2274 11.6118 14.1395L13.7281 12.0234C13.9111 11.8403 13.9111 11.5434 13.7281 11.3603C13.545 11.1774 13.2482 11.1774 13.0651 11.3603L11.2804 13.1452L10.569 12.4339C10.3859 12.2508 10.0893 12.2508 9.90601 12.4339C9.72308 12.6168 9.72308 12.9136 9.90601 13.0967L10.949 14.1395Z" fill="#767676"/>
<path d="M11.8171 18.5693L12.5438 19.2959C12.6354 19.3875 12.7553 19.4332 12.8752 19.4332C12.9952 19.4332 13.1151 19.3875 13.2067 19.2959C13.3898 19.1128 13.3898 18.816 13.2067 18.6331L12.4801 17.9063L13.2067 17.1796C13.3898 16.9966 13.3898 16.6998 13.2067 16.5167C13.0236 16.3336 12.7269 16.3336 12.5438 16.5167L11.8171 17.2433L11.0905 16.5167C10.9074 16.3338 10.6108 16.3336 10.4275 16.5167C10.2446 16.6998 10.2446 16.9966 10.4275 17.1796L11.1542 17.9063L10.4275 18.6331C10.2446 18.816 10.2446 19.1128 10.4275 19.2959C10.519 19.3875 10.6392 19.4332 10.7591 19.4332C10.879 19.4332 10.999 19.3875 11.0905 19.2959L11.8171 18.5693Z" fill="#767676"/>
</g>
<defs>
<clipPath id="clip0_137_1491">
<rect width="24" height="24" fill="white"/>
</clipPath>
</defs>
</svg>
