<svg width="24" height="24" viewBox="0 0 24 24" fill="none" xmlns="http://www.w3.org/2000/svg">
<g clip-path="url(#clip0_111_1101)">
<path d="M18.3705 14.6854L18.5483 15.3476L16.4006 14.1075C16.7055 13.4677 16.875 12.7522 16.875 12C16.875 11.5125 16.7996 11.0351 16.659 10.5754C16.8143 10.4325 16.9279 10.2499 16.9838 10.0414C17.0614 9.7511 17.0216 9.44773 16.8713 9.18785C16.7213 8.9276 16.4786 8.74123 16.1884 8.6636C15.9776 8.60698 15.7613 8.61448 15.5588 8.67898C14.7229 7.7831 13.5934 7.23935 12.375 7.14598V4.6556L12.8599 5.14048L13.3901 4.61023L12 3.21973L10.6099 4.60985L11.1401 5.1401L11.625 4.65523V7.1456C10.4066 7.23898 9.27714 7.7831 8.44127 8.6786C8.23877 8.6141 8.02239 8.60698 7.81164 8.66323C7.52139 8.74085 7.27876 8.92723 7.12877 9.1871C6.97877 9.44735 6.93864 9.75035 7.01626 10.041C7.07214 10.2499 7.18577 10.4325 7.34101 10.575C7.20039 11.0351 7.12501 11.5125 7.12501 12C7.12501 12.7522 7.29452 13.4677 7.59977 14.1075L5.45214 15.3476L5.62989 14.6854L4.90539 14.4911L4.39651 16.3901L6.29551 16.899L6.48976 16.1745L5.82751 15.9971L7.97626 14.7566C8.64939 15.7414 9.67914 16.4666 10.905 16.7471C11.0175 17.2485 11.4649 17.625 12 17.625C12.5351 17.625 12.9825 17.2485 13.0958 16.7471C14.3216 16.4666 15.351 15.7414 16.0245 14.7566L18.1733 15.9971L17.511 16.1745L17.7053 16.899L19.6043 16.3901L19.0954 14.4911L18.3705 14.6854ZM15.9941 9.38773C16.0909 9.4136 16.1715 9.47548 16.2214 9.56248C16.2716 9.6491 16.2851 9.74998 16.2593 9.84673C16.2334 9.94348 16.1715 10.0245 16.0845 10.0744C15.9041 10.1782 15.675 10.1156 15.5723 9.93748C15.4691 9.75823 15.5306 9.52835 15.7095 9.42523C15.7676 9.39185 15.8318 9.37498 15.8966 9.37498C15.9293 9.37498 15.9619 9.3791 15.9941 9.38773ZM14.961 9.13498C14.736 9.47885 14.7038 9.9326 14.9228 10.3125C15.1313 10.6725 15.51 10.8746 15.8993 10.8746C15.9214 10.8746 15.9435 10.8675 15.9656 10.866C16.0703 11.2327 16.125 11.6126 16.125 12C16.125 12.6161 15.9896 13.2022 15.747 13.7302L13.7711 12.5895C13.833 12.4031 13.875 12.207 13.875 12C13.875 11.0947 13.2296 10.3372 12.375 10.1629V7.8956C13.3594 7.98485 14.2721 8.42323 14.961 9.13498ZM10.875 12C10.875 11.3797 11.3798 10.875 12 10.875C12.6203 10.875 13.125 11.3797 13.125 12C13.125 12.6202 12.6203 13.125 12 13.125C11.3798 13.125 10.875 12.6202 10.875 12ZM7.77826 9.56248C7.82852 9.47585 7.90914 9.41398 8.00551 9.3881C8.10226 9.3626 8.20314 9.37535 8.29014 9.4256C8.46939 9.52873 8.53089 9.7586 8.42739 9.93748C8.32464 10.1164 8.09476 10.179 7.91514 10.0747C7.82852 10.0249 7.76664 9.94385 7.74039 9.8471C7.71414 9.75035 7.72802 9.6491 7.77826 9.56248ZM7.87501 12C7.87501 11.6126 7.92976 11.2327 8.03439 10.866C8.05651 10.8671 8.07826 10.8746 8.10039 10.8746C8.48964 10.8746 8.86876 10.6729 9.07689 10.3121C9.29589 9.93223 9.26364 9.47885 9.03864 9.13498C9.72752 8.42285 10.6403 7.98485 11.6246 7.8956V10.1629C10.77 10.3372 10.1246 11.0944 10.1246 12C10.1246 12.207 10.1666 12.4031 10.2289 12.5895L8.25301 13.7302C8.01039 13.2022 7.87501 12.6161 7.87501 12ZM12 16.875C11.793 16.875 11.625 16.7066 11.625 16.5C11.625 16.2934 11.793 16.125 12 16.125C12.207 16.125 12.375 16.2934 12.375 16.5C12.375 16.7066 12.207 16.875 12 16.875ZM13.0028 16.0005C12.8183 15.6315 12.4403 15.375 12 15.375C11.5598 15.375 11.1818 15.6315 10.9973 16.0005C10.0125 15.7564 9.18226 15.1706 8.62614 14.3809L10.6039 13.239C10.9478 13.626 11.4431 13.875 12 13.875C12.5569 13.875 13.0523 13.626 13.3961 13.2394L15.3739 14.3812C14.8181 15.1706 13.9875 15.7564 13.0028 16.0005Z" fill="#767676"/>
<path d="M22.5 3C22.3267 3 22.1647 3.04237 22.0181 3.11287L20.8875 1.98225C20.9576 1.83525 21 1.67325 21 1.5C21 0.87975 20.4953 0.375 19.875 0.375C19.2547 0.375 18.75 0.87975 18.75 1.5C18.75 1.67325 18.7924 1.83525 18.8629 1.98187L17.7323 3.1125C17.5852 3.04238 17.4233 3 17.25 3C17.0925 3 16.9429 3.033 16.8068 3.09188C15.3368 2.298 13.6811 1.875 12 1.875C9.85575 1.875 7.82662 2.53762 6.1005 3.78075L4.70888 2.08012C4.81238 1.90987 4.875 1.713 4.875 1.5C4.875 0.87975 4.37025 0.375 3.75 0.375C3.12975 0.375 2.625 0.87975 2.625 1.5C2.625 1.82625 2.76675 2.118 2.98913 2.3235L1.57125 5.63212C1.54725 5.63063 1.52437 5.625 1.5 5.625C0.87975 5.625 0.375 6.12975 0.375 6.75C0.375 7.37025 0.87975 7.875 1.5 7.875C2.0655 7.875 2.53012 7.45463 2.60887 6.91088L3.33525 6.76538C2.37937 8.34075 1.875 10.1318 1.875 12C1.875 16.7302 5.1705 20.8245 9.75 21.8647V22.875H12.819C12.9742 23.3104 13.3868 23.625 13.875 23.625C14.4952 23.625 15 23.1203 15 22.5C15 22.2124 14.8883 21.9529 14.7105 21.7537C19.0496 20.5519 22.125 16.5709 22.125 12C22.125 10.3189 21.702 8.66325 20.9081 7.19363C20.967 7.0575 21 6.9075 21 6.75C21 6.57675 20.9576 6.41475 20.8871 6.26813L22.0177 5.1375C22.1648 5.20762 22.3267 5.25 22.5 5.25C23.1203 5.25 23.625 4.74525 23.625 4.125C23.625 3.50475 23.1203 3 22.5 3ZM19.875 7.125C19.668 7.125 19.5 6.95662 19.5 6.75C19.5 6.54338 19.668 6.375 19.875 6.375C20.082 6.375 20.25 6.54338 20.25 6.75C20.25 6.95662 20.082 7.125 19.875 7.125ZM19.875 5.625C19.8705 5.625 19.8664 5.62612 19.8615 5.6265C19.4183 5.0805 18.9195 4.58138 18.3735 4.13812C18.3739 4.13363 18.375 4.1295 18.375 4.125C18.375 3.95175 18.3326 3.78975 18.2621 3.64313L19.3927 2.5125C19.5398 2.58262 19.7017 2.625 19.875 2.625C20.0483 2.625 20.2103 2.58262 20.3569 2.51213L21.4875 3.64275C21.4174 3.78975 21.375 3.95175 21.375 4.125C21.375 4.29825 21.4174 4.46025 21.4879 4.60687L20.3573 5.7375C20.2102 5.66738 20.0483 5.625 19.875 5.625ZM19.875 1.125C20.082 1.125 20.25 1.29338 20.25 1.5C20.25 1.70662 20.082 1.875 19.875 1.875C19.668 1.875 19.5 1.70662 19.5 1.5C19.5 1.29338 19.668 1.125 19.875 1.125ZM17.625 4.125C17.625 4.33162 17.457 4.5 17.25 4.5C17.043 4.5 16.875 4.33162 16.875 4.125C16.875 3.91838 17.043 3.75 17.25 3.75C17.457 3.75 17.625 3.91838 17.625 4.125ZM7.125 5.25C7.332 5.25 7.5 5.41838 7.5 5.625C7.5 5.83162 7.332 6 7.125 6C6.918 6 6.75 5.83162 6.75 5.625C6.75 5.41838 6.918 5.25 7.125 5.25ZM3.75 1.125C3.957 1.125 4.125 1.29338 4.125 1.5C4.125 1.70662 3.957 1.875 3.75 1.875C3.543 1.875 3.375 1.70662 3.375 1.5C3.375 1.29338 3.543 1.125 3.75 1.125ZM3.67912 2.61788C3.70312 2.61937 3.72563 2.625 3.75 2.625C3.8835 2.625 4.0095 2.59763 4.12838 2.55488L6.16613 5.04525C6.08963 5.17125 6.03863 5.31262 6.0165 5.4645L2.46225 6.1755C2.40675 6.08325 2.34 5.99963 2.26125 5.92688L3.67912 2.61788ZM1.5 7.125C1.293 7.125 1.125 6.95662 1.125 6.75C1.125 6.54338 1.293 6.375 1.5 6.375C1.707 6.375 1.875 6.54338 1.875 6.75C1.875 6.95662 1.707 7.125 1.5 7.125ZM9.75 19.5C9.75 19.2934 9.918 19.125 10.125 19.125C10.332 19.125 10.5 19.2934 10.5 19.5C10.5 19.7066 10.332 19.875 10.125 19.875C9.918 19.875 9.75 19.7066 9.75 19.5ZM10.5 20.556C10.8176 20.4428 11.0677 20.1926 11.181 19.875H13.5V21.444C13.1824 21.5572 12.9322 21.8074 12.819 22.125H10.5V20.556ZM13.875 22.875C13.668 22.875 13.5 22.7066 13.5 22.5C13.5 22.2934 13.668 22.125 13.875 22.125C14.082 22.125 14.25 22.2934 14.25 22.5C14.25 22.7066 14.082 22.875 13.875 22.875ZM14.25 21.0941V19.125H11.181C11.0258 18.6896 10.6132 18.375 10.125 18.375C9.50475 18.375 9 18.8797 9 19.5C9 19.9883 9.31462 20.4008 9.75 20.556V21.0941C5.5965 20.0704 2.625 16.3226 2.625 12C2.625 10.0297 3.23063 8.15287 4.37025 6.55838L6.16313 6.19988C6.36 6.52763 6.7155 6.75 7.125 6.75C7.74525 6.75 8.25 6.24525 8.25 5.625C8.25 5.00475 7.74525 4.5 7.125 4.5C6.9915 4.5 6.8655 4.52738 6.74662 4.57013L6.57638 4.362C8.16638 3.22875 10.0305 2.625 12 2.625C13.4768 2.625 14.9321 2.97713 16.239 3.6405C16.1681 3.78788 16.125 3.95062 16.125 4.125C16.125 4.74525 16.6297 5.25 17.25 5.25C17.5826 5.25 17.8785 5.10225 18.0848 4.87238C18.4594 5.19225 18.8081 5.541 19.128 5.91525C18.8977 6.1215 18.75 6.41738 18.75 6.75C18.75 7.37025 19.2547 7.875 19.875 7.875C20.0494 7.875 20.2121 7.83187 20.3595 7.761C21.0225 9.06787 21.375 10.5232 21.375 12C21.375 16.3226 18.4035 20.0704 14.25 21.0941ZM22.5 4.5C22.293 4.5 22.125 4.33162 22.125 4.125C22.125 3.91838 22.293 3.75 22.5 3.75C22.707 3.75 22.875 3.91838 22.875 4.125C22.875 4.33162 22.707 4.5 22.5 4.5Z" fill="#767676"/>
</g>
<defs>
<clipPath id="clip0_111_1101">
<rect width="24" height="24" fill="white"/>
</clipPath>
</defs>
</svg>
