<svg width="24" height="24" viewBox="0 0 24 24" fill="none" xmlns="http://www.w3.org/2000/svg">
<g clip-path="url(#clip0_111_1104)">
<path d="M7.5 3.75H2.25V4.5H7.5V3.75Z" fill="#767676"/>
<path d="M6 5.25H2.25V6H6V5.25Z" fill="#767676"/>
<path d="M3.75 2.25H3V3H3.75V2.25Z" fill="#767676"/>
<path d="M7.5 2.25H4.5V3H7.5V2.25Z" fill="#767676"/>
<path d="M21.75 3.75H16.5V4.5H21.75V3.75Z" fill="#767676"/>
<path d="M20.25 5.25H16.5V6H20.25V5.25Z" fill="#767676"/>
<path d="M18 2.25H17.25V3H18V2.25Z" fill="#767676"/>
<path d="M21.75 2.25H18.75V3H21.75V2.25Z" fill="#767676"/>
<path d="M22.125 0.75H16.125C15.8266 0.75 15.5405 0.868526 15.3295 1.0795C15.1185 1.29048 15 1.57663 15 1.875V2.73075C14.1505 2.45604 13.2672 2.29994 12.375 2.26688V1.5H11.625V2.26688C10.7328 2.29994 9.84948 2.45604 9 2.73075V1.875C9 1.57663 8.88147 1.29048 8.6705 1.0795C8.45952 0.868526 8.17337 0.75 7.875 0.75H1.875C1.57663 0.75 1.29048 0.868526 1.0795 1.0795C0.868526 1.29048 0.75 1.57663 0.75 1.875V6.375C0.75 6.67337 0.868526 6.95952 1.0795 7.1705C1.29048 7.38147 1.57663 7.5 1.875 7.5H3.34912C2.68613 8.7777 2.31472 10.1865 2.26163 11.625H1.5V12.375H2.26275C2.31584 13.8135 2.68726 15.2223 3.35025 16.5H1.875C1.57663 16.5 1.29048 16.6185 1.0795 16.8295C0.868526 17.0405 0.75 17.3266 0.75 17.625V22.125C0.75 22.4234 0.868526 22.7095 1.0795 22.9205C1.29048 23.1315 1.57663 23.25 1.875 23.25H7.875C8.17337 23.25 8.45952 23.1315 8.6705 22.9205C8.88147 22.7095 9 22.4234 9 22.125V21.2692C9.84948 21.544 10.7328 21.7001 11.625 21.7331V22.5H12.375V21.7331C13.2672 21.7001 14.1505 21.544 15 21.2692V22.125C15 22.4234 15.1185 22.7095 15.3295 22.9205C15.5405 23.1315 15.8266 23.25 16.125 23.25H22.125C22.4234 23.25 22.7095 23.1315 22.9205 22.9205C23.1315 22.7095 23.25 22.4234 23.25 22.125V17.625C23.25 17.3266 23.1315 17.0405 22.9205 16.8295C22.7095 16.6185 22.4234 16.5 22.125 16.5H20.6509C21.3139 15.2223 21.6853 13.8135 21.7384 12.375H22.5V11.625H21.7372C21.6842 10.1865 21.3127 8.7777 20.6497 7.5H22.125C22.4234 7.5 22.7095 7.38147 22.9205 7.1705C23.1315 6.95952 23.25 6.67337 23.25 6.375V1.875C23.25 1.57663 23.1315 1.29048 22.9205 1.0795C22.7095 0.868526 22.4234 0.75 22.125 0.75ZM1.5 6.375V1.875C1.5 1.77554 1.53951 1.68016 1.60984 1.60984C1.68016 1.53951 1.77554 1.5 1.875 1.5H7.875C7.97446 1.5 8.06984 1.53951 8.14017 1.60984C8.21049 1.68016 8.25 1.77554 8.25 1.875V6.375C8.25 6.47446 8.21049 6.56984 8.14017 6.64017C8.06984 6.71049 7.97446 6.75 7.875 6.75H6C5.90054 6.75 5.80516 6.78951 5.73484 6.85983C5.66451 6.93016 5.625 7.02554 5.625 7.125V7.5L4.725 6.825C4.66009 6.77632 4.58114 6.75 4.5 6.75H1.875C1.77554 6.75 1.68016 6.71049 1.60984 6.64017C1.53951 6.56984 1.5 6.47446 1.5 6.375ZM4.20938 7.5H4.37512L5.775 8.55C5.83071 8.59178 5.89696 8.61723 5.96632 8.62349C6.03568 8.62974 6.10542 8.61655 6.16771 8.58541C6.22999 8.55427 6.28238 8.50639 6.31899 8.44715C6.35561 8.38791 6.375 8.31964 6.375 8.25V7.5H7.875C8.17337 7.5 8.45952 7.38147 8.6705 7.1705C8.88147 6.95952 9 6.67337 9 6.375V3.5205C9.84484 3.2221 10.7297 3.05233 11.625 3.01688V11.625H3.01275C3.07172 10.1734 3.48236 8.75782 4.20938 7.5ZM8.25 22.125C8.25 22.2245 8.21049 22.3198 8.14017 22.3902C8.06984 22.4605 7.97446 22.5 7.875 22.5H1.875C1.77554 22.5 1.68016 22.4605 1.60984 22.3902C1.53951 22.3198 1.5 22.2245 1.5 22.125V17.625C1.5 17.5255 1.53951 17.4302 1.60984 17.3598C1.68016 17.2895 1.77554 17.25 1.875 17.25H4.5C4.58114 17.25 4.66009 17.2237 4.725 17.175L5.625 16.5V16.875C5.625 16.9745 5.66451 17.0698 5.73484 17.1402C5.80516 17.2105 5.90054 17.25 6 17.25H7.875C7.97446 17.25 8.06984 17.2895 8.14017 17.3598C8.21049 17.4302 8.25 17.5255 8.25 17.625V22.125ZM9 20.4795V17.625C9 17.3266 8.88147 17.0405 8.6705 16.8295C8.45952 16.6185 8.17337 16.5 7.875 16.5H6.375V15.75C6.375 15.6804 6.35561 15.6121 6.31899 15.5529C6.28238 15.4936 6.22999 15.4457 6.16771 15.4146C6.10542 15.3834 6.03568 15.3703 5.96632 15.3765C5.89696 15.3828 5.83071 15.4082 5.775 15.45L4.37512 16.5H4.20938C3.48236 15.2422 3.07172 13.8266 3.01275 12.375H11.625V20.9831C10.7297 20.9477 9.84484 20.7779 9 20.4795ZM22.5 17.625V22.125C22.5 22.2245 22.4605 22.3198 22.3902 22.3902C22.3198 22.4605 22.2245 22.5 22.125 22.5H16.125C16.0255 22.5 15.9302 22.4605 15.8598 22.3902C15.7895 22.3198 15.75 22.2245 15.75 22.125V17.625C15.75 17.5255 15.7895 17.4302 15.8598 17.3598C15.9302 17.2895 16.0255 17.25 16.125 17.25H18C18.0995 17.25 18.1948 17.2105 18.2652 17.1402C18.3355 17.0698 18.375 16.9745 18.375 16.875V16.5L19.275 17.175C19.3399 17.2237 19.4189 17.25 19.5 17.25H22.125C22.2245 17.25 22.3198 17.2895 22.3902 17.3598C22.4605 17.4302 22.5 17.5255 22.5 17.625ZM19.7906 16.5H19.6249L18.225 15.45C18.1693 15.4082 18.103 15.3828 18.0337 15.3765C17.9643 15.3703 17.8946 15.3834 17.8323 15.4146C17.77 15.4457 17.7176 15.4936 17.681 15.5529C17.6444 15.6121 17.625 15.6804 17.625 15.75V16.5H16.125C15.8266 16.5 15.5405 16.6185 15.3295 16.8295C15.1185 17.0405 15 17.3266 15 17.625V20.4795C14.1552 20.7779 13.2703 20.9477 12.375 20.9831V12.375H20.9872C20.9283 13.8266 20.5176 15.2422 19.7906 16.5ZM20.9872 11.625H12.375V3.01688C13.2703 3.05233 14.1552 3.2221 15 3.5205V6.375C15 6.67337 15.1185 6.95952 15.3295 7.1705C15.5405 7.38147 15.8266 7.5 16.125 7.5H17.625V8.25C17.625 8.31964 17.6444 8.38791 17.681 8.44715C17.7176 8.50639 17.77 8.55427 17.8323 8.58541C17.8946 8.61655 17.9643 8.62974 18.0337 8.62349C18.103 8.61723 18.1693 8.59178 18.225 8.55L19.6249 7.5H19.7906C20.5176 8.75782 20.9283 10.1734 20.9872 11.625ZM22.5 6.375C22.5 6.47446 22.4605 6.56984 22.3902 6.64017C22.3198 6.71049 22.2245 6.75 22.125 6.75H19.5C19.4189 6.75 19.3399 6.77632 19.275 6.825L18.375 7.5V7.125C18.375 7.02554 18.3355 6.93016 18.2652 6.85983C18.1948 6.78951 18.0995 6.75 18 6.75H16.125C16.0255 6.75 15.9302 6.71049 15.8598 6.64017C15.7895 6.56984 15.75 6.47446 15.75 6.375V1.875C15.75 1.77554 15.7895 1.68016 15.8598 1.60984C15.9302 1.53951 16.0255 1.5 16.125 1.5H22.125C22.2245 1.5 22.3198 1.53951 22.3902 1.60984C22.4605 1.68016 22.5 1.77554 22.5 1.875V6.375Z" fill="#767676"/>
<path d="M7.5 19.5H2.25V20.25H7.5V19.5Z" fill="#767676"/>
<path d="M6 21H2.25V21.75H6V21Z" fill="#767676"/>
<path d="M3.75 18H3V18.75H3.75V18Z" fill="#767676"/>
<path d="M7.5 18H4.5V18.75H7.5V18Z" fill="#767676"/>
<path d="M21.75 19.5H16.5V20.25H21.75V19.5Z" fill="#767676"/>
<path d="M20.25 21H16.5V21.75H20.25V21Z" fill="#767676"/>
<path d="M18 18H17.25V18.75H18V18Z" fill="#767676"/>
<path d="M21.75 18H18.75V18.75H21.75V18Z" fill="#767676"/>
<path d="M13.875 10.125H13.125V10.875H13.875V10.125Z" fill="#767676"/>
<path d="M15.375 10.125H14.625V10.875H15.375V10.125Z" fill="#767676"/>
<path d="M10.875 10.125H10.125V10.875H10.875V10.125Z" fill="#767676"/>
<path d="M10.875 13.125H10.125V13.875H10.875V13.125Z" fill="#767676"/>
<path d="M9.375 13.125H8.625V13.875H9.375V13.125Z" fill="#767676"/>
<path d="M10.875 14.625H10.125V15.375H10.875V14.625Z" fill="#767676"/>
<path d="M15.375 13.125H14.625V13.875H15.375V13.125Z" fill="#767676"/>
<path d="M13.875 13.125H13.125V13.875H13.875V13.125Z" fill="#767676"/>
<path d="M13.875 14.625H13.125V15.375H13.875V14.625Z" fill="#767676"/>
<path d="M15.375 14.625H14.625V15.375H15.375V14.625Z" fill="#767676"/>
</g>
<defs>
<clipPath id="clip0_111_1104">
<rect width="24" height="24" fill="white"/>
</clipPath>
</defs>
</svg>
