<svg width="11" height="14" viewBox="0 0 11 14" fill="none" xmlns="http://www.w3.org/2000/svg">
<path d="M2.74636 3.29273C3.09194 3.79525 3.38119 4.46089 3.53363 5.24635C3.61628 5.66393 3.66682 6.10822 3.68765 6.56966C1.58981 6.61351 0.0674794 6.87202 0.0674794 6.87202C0.0674794 6.87202 1.58753 7.22706 3.68333 7.41297C3.67806 7.55478 3.66687 7.70002 3.65566 7.84527C3.51364 9.69868 2.98819 11.3408 2.40913 12.4098C2.11663 12.946 1.81398 13.3412 1.5688 13.5889C1.32361 13.8365 1.16431 13.9448 1.16431 13.9448C1.16431 13.9448 1.35542 13.8917 1.65732 13.701C1.96628 13.5226 2.37783 13.1789 2.78405 12.675C3.60596 11.6699 4.3996 9.97084 4.56246 7.93397C4.57608 7.77917 4.58021 7.62168 4.58788 7.47031C4.79298 7.48251 5.00402 7.49128 5.221 7.49662C5.55892 7.5056 5.88737 7.51189 6.2028 7.50936C6.25559 7.985 6.35945 8.43932 6.50971 8.85053C6.80558 9.65113 7.16244 10.3104 7.49245 10.8546C7.81893 11.3926 8.13044 11.8087 8.35952 12.0682C8.59214 12.3339 8.74347 12.4588 8.74347 12.4588C8.74347 12.4588 8.63615 12.3003 8.47483 11.9935C8.31351 11.6866 8.1136 11.2306 7.89633 10.6622C7.67905 10.0938 7.43734 9.40067 7.24331 8.63923C7.15569 8.28165 7.10019 7.89737 7.0744 7.49594C9.00985 7.43156 10.3862 7.20834 10.3862 7.20834C10.3862 7.20834 9.01423 6.89026 7.07262 6.69697C7.07916 6.52993 7.09164 6.35946 7.1136 6.19168C7.21169 5.31873 7.45065 4.51138 7.75323 3.81424C8.05581 3.1171 8.44097 2.53554 8.82086 2.09581C9.20076 1.65607 9.58133 1.35471 9.85946 1.17781C10.14 0.991351 10.311 0.917102 10.3075 0.91098C10.3075 0.91098 10.1176 0.938945 9.79469 1.05193C9.47174 1.16492 9.00379 1.36979 8.50905 1.76154C8.01078 2.14718 7.49166 2.71628 7.06799 3.45068C6.65026 4.18165 6.32203 5.08135 6.20454 6.07163C6.1813 6.26464 6.16995 6.45079 6.16453 6.63351C5.85985 6.61349 5.54329 6.60034 5.21726 6.5845C4.9908 6.57647 4.76789 6.57456 4.5509 6.56922C4.50421 6.04924 4.41478 5.53761 4.26707 5.07596C4.00701 4.21386 3.56501 3.48946 3.07585 3.0127C2.59504 2.52295 2.10386 2.27593 1.76639 2.14424C1.42893 2.01255 1.22864 1.98124 1.22864 1.98124C1.22864 1.98124 1.40855 2.07329 1.69833 2.27333C1.98811 2.47337 2.38054 2.81007 2.72612 3.31258L2.74636 3.29273Z" fill="#767676"/>
</svg>
