<svg width="24" height="24" viewBox="0 0 24 24" fill="none" xmlns="http://www.w3.org/2000/svg">
<g clip-path="url(#clip0_111_1098)">
<path d="M1.59998 11.9999C1.56623 17.7436 6.19509 22.4271 11.9387 22.4608C17.6824 22.4946 22.3659 17.8657 22.3996 12.1221C22.4006 11.951 22.3974 11.78 22.39 11.6091C22.39 11.6059 22.39 11.6031 22.39 11.5999C22.39 11.5968 22.3876 11.5919 22.3876 11.5879C22.1114 5.85082 17.2367 1.42385 11.4996 1.69999C5.99062 1.96516 1.64666 6.48476 1.59998 11.9999ZM21.564 11.1999H14.8C14.5791 11.1999 14.4 11.379 14.4 11.5999C14.4 11.8208 14.5791 11.9999 14.8 11.9999H21.6C21.6 12.2695 21.586 12.5359 21.564 12.7999H17.2C16.9791 12.7999 16.8 12.979 16.8 13.1999C16.8 13.4208 16.9791 13.5999 17.2 13.5999H21.464C21.0586 15.9826 19.77 18.125 17.8551 19.5999H12.8C12.5791 19.5999 12.4 19.7789 12.4 19.9999C12.4 20.2208 12.5791 20.3998 12.8 20.3998H16.64C12.3861 22.7557 7.04216 21.552 4.20923 17.5999H9.59999C9.82091 17.5999 9.99998 17.4208 9.99998 17.1999C9.99998 16.9789 9.82087 16.7999 9.59999 16.7999H3.69159C3.54116 16.5407 3.40279 16.274 3.27637 15.9999H12C12.2209 15.9999 12.4 15.8208 12.4 15.5999C12.4 15.379 12.2209 15.1999 12 15.1999H2.9504C2.40421 13.6616 2.26152 12.009 2.53598 10.3999H12C12.2209 10.3999 12.4 10.2208 12.4 9.99991C12.4 9.77904 12.2209 9.59993 12 9.59993H2.70398C2.81029 9.19141 2.94388 8.79049 3.10396 8.39993H9.59999C9.82091 8.39993 9.99998 8.22082 9.99998 7.99994C9.99998 7.77902 9.82087 7.59996 9.59999 7.59996H3.47198C5.90099 2.89062 11.6877 1.04201 16.3971 3.47098C16.7069 3.63077 17.0078 3.80735 17.2984 3.99991H14C13.7791 3.99991 13.6 4.17902 13.6 4.3999C13.6 4.62082 13.7791 4.79988 14 4.79988H18.3396C20.2018 6.43587 21.3575 8.72984 21.564 11.1999Z" fill="#767676"/>
<path d="M2.4 4.8C3.72548 4.8 4.8 3.72548 4.8 2.4C4.8 1.07452 3.72548 0 2.4 0C1.07452 0 0 1.07452 0 2.4C0.0013125 3.72492 1.07508 4.79869 2.4 4.8ZM2.4 0.800016C3.28364 0.800016 3.99998 1.51636 3.99998 2.4C3.99998 3.28364 3.28364 3.99998 2.4 3.99998C1.51636 3.99998 0.800016 3.28364 0.800016 2.4C0.800016 1.51636 1.51636 0.800016 2.4 0.800016Z" fill="#767676"/>
<path d="M22.8 21.6001C22.1373 21.6001 21.6 22.1374 21.6 22.8001C21.6 23.4628 22.1373 24.0001 22.8 24.0001C23.4627 24.0001 24 23.4629 24 22.8001C24 22.1373 23.4627 21.6001 22.8 21.6001ZM22.8 23.2001C22.5791 23.2001 22.4 23.021 22.4 22.8001C22.4 22.5792 22.5791 22.4001 22.8 22.4001C23.0209 22.4001 23.2 22.5792 23.2 22.8001C23.2 23.021 23.0209 23.2001 22.8 23.2001Z" fill="#767676"/>
<path d="M22.4 17.6001C21.5164 17.6001 20.8 18.3164 20.8 19.2001C20.8 20.0837 21.5164 20.8001 22.4 20.8001C23.2837 20.8001 24 20.0837 24 19.2001C24 18.3164 23.2837 17.6001 22.4 17.6001ZM22.4 20.0001C21.9582 20.0001 21.6 19.6419 21.6 19.2001C21.6 18.7582 21.9582 18.4001 22.4 18.4001C22.8419 18.4001 23.2 18.7582 23.2 19.2001C23.2 19.6419 22.8418 20.0001 22.4 20.0001Z" fill="#767676"/>
</g>
<defs>
<clipPath id="clip0_111_1098">
<rect width="24" height="24" fill="white"/>
</clipPath>
</defs>
</svg>
