<svg width="24" height="24" viewBox="0 0 24 24" fill="none" xmlns="http://www.w3.org/2000/svg">
<g clip-path="url(#clip0_111_1103)">
<path d="M17.841 14.6168C17.9859 14.3649 18.0775 14.0861 18.1104 13.7975C18.1432 13.5088 18.1165 13.2165 18.0319 12.9386C17.969 12.7321 17.9557 12.5137 17.9932 12.3012C18.0307 12.0886 18.1178 11.8879 18.2475 11.7154C18.4224 11.4834 18.5477 11.2178 18.6156 10.9353C18.6835 10.6528 18.6925 10.3594 18.6421 10.0732C18.5917 9.78708 18.4829 9.51437 18.3226 9.27206C18.1623 9.02975 17.9538 8.82303 17.7101 8.66475C17.5292 8.54711 17.3787 8.38842 17.2707 8.20159C17.1627 8.01477 17.1004 7.80509 17.0887 7.58963C17.0736 7.29948 16.9989 7.01555 16.8693 6.75551C16.7398 6.49548 16.558 6.26491 16.3354 6.07815C16.1129 5.89139 15.8542 5.75245 15.5757 5.66998C15.2971 5.5875 15.0045 5.56326 14.7161 5.59875C14.5019 5.62476 14.2846 5.59996 14.0818 5.52634C13.879 5.45271 13.6964 5.33235 13.5487 5.175C13.3505 4.96251 13.1108 4.79296 12.8444 4.67686C12.578 4.56075 12.2906 4.50056 12 4.5C11.7094 4.50047 11.422 4.56062 11.1556 4.67673C10.8891 4.79285 10.6494 4.96244 10.4512 5.175C10.3037 5.33235 10.1211 5.4528 9.91842 5.5266C9.71569 5.60041 9.49846 5.62551 9.28425 5.59987C8.99586 5.56432 8.70323 5.58853 8.4246 5.67098C8.14596 5.75343 7.88729 5.89236 7.66468 6.07912C7.44207 6.26588 7.2603 6.49648 7.13068 6.75654C7.00105 7.0166 6.92636 7.30057 6.91125 7.59075C6.8996 7.80617 6.83729 8.0158 6.72939 8.20262C6.62148 8.38943 6.47103 8.54815 6.29025 8.66587C6.04653 8.82409 5.83799 9.03077 5.67758 9.27305C5.51718 9.51533 5.40836 9.78803 5.35788 10.0742C5.3074 10.3603 5.31636 10.6538 5.38418 10.9363C5.45201 11.2189 5.57725 11.4844 5.75212 11.7165C5.8818 11.889 5.96894 12.0897 6.00647 12.3023C6.04401 12.5148 6.03087 12.7332 5.96812 12.9398C5.88308 13.2176 5.85614 13.51 5.88899 13.7987C5.92183 14.0874 6.01375 14.3663 6.15904 14.618C6.30432 14.8696 6.49984 15.0887 6.73345 15.2615C6.96705 15.4343 7.23373 15.5572 7.51687 15.6225C7.72706 15.6713 7.92277 15.769 8.08808 15.9076C8.2534 16.0463 8.38365 16.222 8.46825 16.4205C8.51291 16.519 8.56533 16.6138 8.625 16.704V23.625C8.62509 23.6971 8.64594 23.7676 8.68507 23.8281C8.72419 23.8886 8.77992 23.9366 8.8456 23.9663C8.91127 23.9959 8.98411 24.0061 9.05538 23.9954C9.12666 23.9848 9.19336 23.9538 9.2475 23.9063L12 21.4988L14.7525 23.9063C14.8063 23.9541 14.873 23.9853 14.9442 23.9959C15.0154 24.0066 15.0883 23.9963 15.1537 23.9663C15.2195 23.9367 15.2754 23.8888 15.3147 23.8282C15.3539 23.7677 15.3748 23.6971 15.375 23.625V16.7029C15.4343 16.6127 15.4866 16.518 15.5314 16.4198C15.616 16.2211 15.7464 16.0453 15.9119 15.9066C16.0773 15.7678 16.2732 15.6701 16.4835 15.6214C16.7664 15.5556 17.0329 15.4326 17.2664 15.2598C17.4999 15.087 17.6954 14.8681 17.841 14.6168ZM9.375 17.4274C9.67631 17.6079 10.0191 17.7074 10.3702 17.7164C10.7214 17.7254 11.0688 17.6436 11.379 17.4788C11.458 17.4411 11.5404 17.411 11.625 17.3888V20.8305L9.375 22.8V17.4274ZM12.375 20.8305V17.3888C12.4598 17.4106 12.5421 17.4408 12.621 17.4788C12.9312 17.6436 13.2786 17.7254 13.6298 17.7164C13.9809 17.7074 14.3237 17.6079 14.625 17.4274V22.8L12.375 20.8305ZM17.1915 14.2418C17.0983 14.4047 16.9722 14.5466 16.8213 14.6582C16.6704 14.7699 16.4979 14.849 16.3147 14.8905C15.989 14.9663 15.6858 15.1178 15.4297 15.3328C15.1737 15.5479 14.9719 15.8203 14.841 16.128C14.7678 16.3008 14.6599 16.4567 14.5238 16.5859C14.3877 16.7152 14.2265 16.815 14.0502 16.8792C13.8739 16.9434 13.6862 16.9706 13.4989 16.9591C13.3116 16.9476 13.1287 16.8977 12.9615 16.8124C12.6636 16.661 12.3342 16.5821 12 16.5821C11.6658 16.5821 11.3364 16.661 11.0385 16.8124C10.8711 16.8975 10.688 16.9473 10.5005 16.9586C10.3131 16.9699 10.1253 16.9424 9.94893 16.8779C9.77256 16.8134 9.61136 16.7133 9.47539 16.5837C9.33941 16.4542 9.23159 16.298 9.15862 16.125C9.02788 15.8173 8.82632 15.5449 8.57035 15.3298C8.31439 15.1148 8.01125 14.9632 7.68562 14.8875C7.50274 14.8454 7.33048 14.766 7.17958 14.6545C7.02868 14.5429 6.90237 14.4014 6.80851 14.2389C6.71465 14.0764 6.65526 13.8963 6.63404 13.7098C6.61281 13.5233 6.6302 13.3345 6.68512 13.155C6.78234 12.8353 6.80278 12.4972 6.74479 12.1682C6.6868 11.8392 6.55201 11.5284 6.35137 11.2613C6.23847 11.1114 6.1576 10.9399 6.1138 10.7574C6.07 10.575 6.0642 10.3854 6.09677 10.2007C6.12934 10.0159 6.19958 9.83974 6.30312 9.68325C6.40666 9.52676 6.54128 9.39324 6.69862 9.291C6.97865 9.10867 7.21168 8.86281 7.37876 8.57343C7.54583 8.28404 7.64224 7.9593 7.66012 7.62562C7.66994 7.43822 7.71822 7.25485 7.80195 7.08691C7.88568 6.91897 8.00308 6.77006 8.14684 6.64944C8.29061 6.52883 8.45765 6.43909 8.63759 6.38581C8.81752 6.33253 9.00649 6.31685 9.19275 6.33975C9.52449 6.38024 9.8611 6.34176 10.1751 6.22746C10.4892 6.11315 10.7718 5.92626 10.9999 5.682C11.1278 5.54475 11.2826 5.4353 11.4547 5.36047C11.6267 5.28564 11.8124 5.24702 12 5.24702C12.1876 5.24702 12.3733 5.28564 12.5453 5.36047C12.7174 5.4353 12.8722 5.54475 13.0001 5.682C13.2281 5.92645 13.5106 6.11348 13.8247 6.2278C14.1388 6.34212 14.4755 6.38048 14.8072 6.33975C14.9935 6.31685 15.1825 6.33254 15.3624 6.38585C15.5424 6.43915 15.7094 6.52893 15.8532 6.64959C15.9969 6.77025 16.1142 6.91921 16.1979 7.08719C16.2816 7.25518 16.3298 7.43858 16.3395 7.626C16.3576 7.95961 16.4542 8.28424 16.6213 8.57354C16.7884 8.86283 17.0214 9.10864 17.3014 9.291C17.4588 9.3932 17.5934 9.5267 17.697 9.6832C17.8006 9.8397 17.8708 10.0159 17.9034 10.2007C17.9359 10.3855 17.93 10.575 17.8862 10.7575C17.8423 10.94 17.7613 11.1114 17.6482 11.2613C17.4476 11.5285 17.3129 11.8393 17.255 12.1684C17.1971 12.4975 17.2176 12.8357 17.3149 13.1554C17.3709 13.3351 17.3888 13.5245 17.3676 13.7116C17.3464 13.8986 17.2864 14.0792 17.1915 14.2418Z" fill="#767676"/>
<path d="M12 7.125C11.1842 7.125 10.3866 7.36693 9.70827 7.82019C9.02992 8.27345 8.50121 8.91769 8.189 9.67143C7.87679 10.4252 7.7951 11.2546 7.95426 12.0547C8.11343 12.8549 8.50629 13.5899 9.08319 14.1668C9.66008 14.7437 10.3951 15.1366 11.1953 15.2957C11.9954 15.4549 12.8248 15.3732 13.5786 15.061C14.3323 14.7488 14.9766 14.2201 15.4298 13.5417C15.8831 12.8634 16.125 12.0658 16.125 11.25C16.1237 10.1564 15.6887 9.10792 14.9154 8.33461C14.1421 7.5613 13.0936 7.12629 12 7.125ZM12 14.625C11.3325 14.625 10.68 14.4271 10.125 14.0562C9.56994 13.6854 9.13735 13.1583 8.88191 12.5416C8.62646 11.9249 8.55963 11.2463 8.68985 10.5916C8.82008 9.93688 9.14151 9.33552 9.61352 8.86351C10.0855 8.39151 10.6869 8.07007 11.3416 7.93985C11.9963 7.80962 12.6749 7.87646 13.2916 8.13191C13.9083 8.38735 14.4354 8.81993 14.8062 9.37495C15.1771 9.92997 15.375 10.5825 15.375 11.25C15.374 12.1448 15.0181 13.0027 14.3854 13.6354C13.7527 14.2681 12.8948 14.624 12 14.625Z" fill="#767676"/>
<path d="M14.1776 10.172L12.9052 9.98711L12.3375 8.83436C12.303 8.77581 12.2538 8.72727 12.1948 8.69355C12.1358 8.65983 12.0691 8.64209 12.0011 8.64209C11.9332 8.64209 11.8664 8.65983 11.8074 8.69355C11.7484 8.72727 11.6992 8.77581 11.6647 8.83436L11.0959 9.98711L9.82387 10.172C9.75503 10.1823 9.69043 10.2116 9.63728 10.2565C9.58413 10.3015 9.54454 10.3603 9.52294 10.4265C9.50134 10.4926 9.49858 10.5635 9.51497 10.6312C9.53136 10.6988 9.56625 10.7605 9.61574 10.8095L10.5364 11.7069L10.3189 12.9744C10.3071 13.0433 10.3149 13.1141 10.3413 13.1789C10.3677 13.2436 10.4117 13.2997 10.4683 13.3408C10.5249 13.3819 10.5918 13.4063 10.6616 13.4113C10.7313 13.4163 10.8011 13.4018 10.863 13.3692L12 12.7734L13.1381 13.3711C13.2 13.4035 13.2697 13.418 13.3394 13.4129C13.4091 13.4079 13.476 13.3834 13.5325 13.3424C13.589 13.3013 13.633 13.2453 13.6594 13.1806C13.6858 13.1159 13.6935 13.0451 13.6819 12.9762L13.4644 11.7091L14.3854 10.8114C14.4349 10.7624 14.4697 10.7007 14.4862 10.6331C14.5026 10.5655 14.4998 10.4946 14.4783 10.4285C14.4567 10.3623 14.4172 10.3035 14.3641 10.2585C14.311 10.2135 14.2464 10.1842 14.1776 10.1739V10.172ZM12.7999 11.3094C12.7564 11.3518 12.7239 11.4042 12.7051 11.462C12.6864 11.5198 12.6819 11.5813 12.6922 11.6412L12.8145 12.3537L12.1744 12.0162C12.1206 11.9878 12.0608 11.9729 12 11.9729C11.9392 11.9729 11.8793 11.9878 11.8256 12.0162L11.1855 12.3537L11.3077 11.6412C11.318 11.5813 11.3136 11.5198 11.2949 11.462C11.2761 11.4042 11.2436 11.3518 11.2001 11.3094L10.6822 10.805L11.3977 10.7007C11.4579 10.692 11.5151 10.6688 11.5642 10.633C11.6134 10.5973 11.6532 10.5501 11.6801 10.4956L12 9.84761L12.3199 10.4956C12.3468 10.5501 12.3865 10.5973 12.4357 10.633C12.4849 10.6688 12.5421 10.692 12.6022 10.7007L13.3177 10.805L12.7999 11.3094Z" fill="#767676"/>
<path d="M12 3.75C12.0995 3.75 12.1948 3.71049 12.2652 3.64016C12.3355 3.56984 12.375 3.47446 12.375 3.375V0.375C12.375 0.275544 12.3355 0.180161 12.2652 0.109835C12.1948 0.0395088 12.0995 0 12 0C11.9005 0 11.8052 0.0395088 11.7348 0.109835C11.6645 0.180161 11.625 0.275544 11.625 0.375V3.375C11.625 3.47446 11.6645 3.56984 11.7348 3.64016C11.8052 3.71049 11.9005 3.75 12 3.75Z" fill="#767676"/>
<path d="M8.64 4.11795C8.67804 4.20985 8.75103 4.28287 8.84291 4.32095C8.93479 4.35903 9.03804 4.35905 9.12994 4.32101C9.22183 4.28297 9.29485 4.20998 9.33294 4.1181C9.37102 4.02622 9.37104 3.92297 9.333 3.83107L8.74612 2.41432C8.72726 2.36882 8.69962 2.32748 8.66478 2.29266C8.62995 2.25784 8.58859 2.23022 8.54308 2.21138C8.49757 2.19254 8.44879 2.18285 8.39953 2.18286C8.35027 2.18287 8.3015 2.19259 8.256 2.21145C8.2105 2.23031 8.16915 2.25795 8.13433 2.29279C8.09951 2.32763 8.07189 2.36898 8.05305 2.41449C8.01501 2.50641 8.01503 2.60968 8.05312 2.70157L8.64 4.11795Z" fill="#767676"/>
<path d="M3.16424 7.99612L4.58099 8.58299C4.62645 8.60168 4.6751 8.61136 4.72424 8.61149C4.81103 8.61155 4.89515 8.58149 4.96226 8.52646C5.02937 8.47143 5.07531 8.39482 5.09226 8.30971C5.1092 8.22459 5.0961 8.13623 5.05518 8.05969C5.01426 7.98315 4.94806 7.92318 4.86787 7.88999L3.44999 7.30349C3.4043 7.28338 3.35505 7.2726 3.30514 7.27178C3.25522 7.27096 3.20565 7.28011 3.15932 7.2987C3.11298 7.31728 3.07083 7.34494 3.03533 7.38003C2.99982 7.41513 2.97168 7.45696 2.95256 7.50307C2.93343 7.54918 2.92371 7.59865 2.92395 7.64857C2.9242 7.69849 2.93441 7.74786 2.95399 7.79379C2.97356 7.83971 3.00211 7.88126 3.03796 7.916C3.07381 7.95075 3.11623 7.97799 3.16274 7.99612H3.16424Z" fill="#767676"/>
<path d="M5.07076 14.1198C5.03269 14.028 4.95971 13.955 4.86788 13.917C4.77605 13.8789 4.67287 13.8789 4.58101 13.9169L3.16426 14.5038C3.11662 14.521 3.07297 14.5477 3.03592 14.5822C2.99888 14.6168 2.96922 14.6585 2.94873 14.7048C2.92824 14.7511 2.91735 14.8011 2.91672 14.8518C2.91608 14.9024 2.92571 14.9527 2.94503 14.9995C2.96435 15.0463 2.99295 15.0887 3.02912 15.1242C3.06528 15.1597 3.10825 15.1874 3.15545 15.2058C3.20264 15.2242 3.25307 15.2329 3.3037 15.2313C3.35432 15.2297 3.4041 15.2178 3.45001 15.1964L4.86639 14.6099C4.91203 14.5912 4.95354 14.5637 4.98852 14.5289C5.02351 14.4941 5.05129 14.4528 5.07027 14.4073C5.08926 14.3617 5.09907 14.3129 5.09916 14.2636C5.09924 14.2142 5.08959 14.1654 5.07076 14.1198Z" fill="#767676"/>
<path d="M6.16649 5.94637C6.23722 6.01468 6.33194 6.05247 6.43027 6.05162C6.52859 6.05077 6.62265 6.01133 6.69217 5.9418C6.7617 5.87227 6.80114 5.77822 6.802 5.67989C6.80285 5.58157 6.76505 5.48684 6.69674 5.41612L4.57499 3.29512C4.54076 3.25792 4.49935 3.22803 4.45327 3.20724C4.40719 3.18646 4.35738 3.1752 4.30684 3.17415C4.2563 3.17311 4.20607 3.18229 4.15916 3.20115C4.11226 3.22001 4.06965 3.24816 4.03391 3.28391C3.99816 3.31965 3.97001 3.36226 3.95115 3.40916C3.93229 3.45607 3.92311 3.5063 3.92415 3.55684C3.9252 3.60738 3.93646 3.65719 3.95724 3.70327C3.97803 3.74935 4.00792 3.79076 4.04512 3.82499L6.16649 5.94637Z" fill="#767676"/>
<path d="M4.5 11.25C4.5 11.1505 4.46049 11.0552 4.39016 10.9848C4.31984 10.9145 4.22446 10.875 4.125 10.875H1.125C1.02554 10.875 0.930161 10.9145 0.859835 10.9848C0.789509 11.0552 0.75 11.1505 0.75 11.25C0.75 11.3495 0.789509 11.4448 0.859835 11.5152C0.930161 11.5855 1.02554 11.625 1.125 11.625H4.125C4.22446 11.625 4.31984 11.5855 4.39016 11.5152C4.46049 11.4448 4.5 11.3495 4.5 11.25Z" fill="#767676"/>
<path d="M6.16649 16.5535L4.04512 18.6749C4.00792 18.7091 3.97803 18.7505 3.95724 18.7966C3.93646 18.8427 3.9252 18.8925 3.92415 18.943C3.92311 18.9936 3.93229 19.0438 3.95115 19.0907C3.97001 19.1376 3.99816 19.1802 4.03391 19.216C4.06965 19.2517 4.11226 19.2799 4.15916 19.2987C4.20607 19.3176 4.2563 19.3268 4.30684 19.3257C4.35738 19.3247 4.40719 19.3134 4.45327 19.2926C4.49935 19.2718 4.54076 19.242 4.57499 19.2048L6.69637 17.0838C6.76468 17.013 6.80247 16.9183 6.80162 16.82C6.80077 16.7217 6.76133 16.6276 6.6918 16.5581C6.62227 16.4885 6.52822 16.4491 6.42989 16.4483C6.33157 16.4474 6.23684 16.4852 6.16612 16.5535H6.16649Z" fill="#767676"/>
<path d="M14.8699 4.32087C14.9154 4.33974 14.9642 4.34946 15.0134 4.34948C15.0627 4.3495 15.1115 4.33981 15.157 4.32097C15.2025 4.30213 15.2439 4.27451 15.2787 4.23968C15.3135 4.20485 15.3412 4.1635 15.36 4.11799L15.9465 2.70012C15.9666 2.65442 15.9774 2.60518 15.9782 2.55526C15.9791 2.50535 15.9699 2.45577 15.9513 2.40944C15.9327 2.36311 15.9051 2.32095 15.87 2.28545C15.8349 2.24994 15.793 2.2218 15.7469 2.20268C15.7008 2.18356 15.6514 2.17383 15.6014 2.17408C15.5515 2.17432 15.5021 2.18453 15.4562 2.20411C15.4103 2.22369 15.3687 2.25224 15.334 2.28808C15.2993 2.32393 15.272 2.36635 15.2539 2.41287L14.667 3.82962C14.648 3.87518 14.6381 3.92406 14.638 3.97344C14.6379 4.02282 14.6475 4.07174 14.6664 4.11739C14.6852 4.16303 14.7129 4.20451 14.7478 4.23942C14.7828 4.27434 14.8242 4.30202 14.8699 4.32087Z" fill="#767676"/>
<path d="M18.9292 8.38012C18.9576 8.44857 19.0057 8.50707 19.0673 8.54825C19.1289 8.58943 19.2013 8.61144 19.2754 8.61149C19.3246 8.61139 19.3734 8.60171 19.419 8.58299L20.8357 7.99612C20.8823 7.97799 20.9247 7.95075 20.9605 7.916C20.9964 7.88126 21.0249 7.83971 21.0445 7.79379C21.0641 7.74786 21.0743 7.69849 21.0745 7.64857C21.0748 7.59865 21.0651 7.54918 21.0459 7.50307C21.0268 7.45696 20.9987 7.41513 20.9632 7.38003C20.9277 7.34494 20.8855 7.31728 20.8392 7.2987C20.7928 7.28011 20.7433 7.27096 20.6934 7.27178C20.6434 7.2726 20.5942 7.28338 20.5485 7.30349L19.1321 7.88999C19.0866 7.90884 19.0453 7.93648 19.0104 7.97131C18.9756 8.00615 18.948 8.04751 18.9291 8.09302C18.9103 8.13854 18.9006 8.18732 18.9006 8.23658C18.9007 8.28584 18.9104 8.33462 18.9292 8.38012Z" fill="#767676"/>
<path d="M20.8357 14.5038L19.419 13.9169C19.3271 13.8789 19.2239 13.8789 19.132 13.917C19.0401 13.9551 18.9671 14.0281 18.9291 14.12C18.891 14.2119 18.891 14.3151 18.9291 14.407C18.9672 14.4989 19.0402 14.5719 19.1321 14.6099L20.55 15.1964C20.5957 15.2166 20.6449 15.2273 20.6949 15.2282C20.7448 15.229 20.7943 15.2198 20.8407 15.2012C20.887 15.1827 20.9292 15.155 20.9647 15.1199C21.0002 15.0848 21.0283 15.043 21.0474 14.9969C21.0666 14.9508 21.0763 14.9013 21.076 14.8514C21.0758 14.8014 21.0656 14.7521 21.046 14.7062C21.0264 14.6602 20.9979 14.6187 20.962 14.5839C20.9262 14.5492 20.8838 14.522 20.8372 14.5038H20.8357Z" fill="#767676"/>
<path d="M17.5688 6.05624C17.6682 6.05622 17.7636 6.0167 17.8339 5.94637L19.9549 3.82499C19.9921 3.79076 20.022 3.74935 20.0428 3.70327C20.0635 3.65719 20.0748 3.60738 20.0758 3.55684C20.0769 3.5063 20.0677 3.45607 20.0489 3.40916C20.03 3.36226 20.0018 3.31965 19.9661 3.28391C19.9303 3.24816 19.8877 3.22001 19.8408 3.20115C19.7939 3.18229 19.7437 3.17311 19.6932 3.17415C19.6426 3.1752 19.5928 3.18646 19.5467 3.20724C19.5006 3.22803 19.4592 3.25792 19.425 3.29512L17.304 5.41612C17.2516 5.46856 17.2159 5.53537 17.2014 5.60811C17.187 5.68084 17.1944 5.75623 17.2228 5.82474C17.2511 5.89325 17.2992 5.95181 17.3608 5.99302C17.4225 6.03422 17.495 6.05623 17.5691 6.05624H17.5688Z" fill="#767676"/>
<path d="M22.875 10.875H19.875C19.7755 10.875 19.6802 10.9145 19.6098 10.9848C19.5395 11.0552 19.5 11.1505 19.5 11.25C19.5 11.3495 19.5395 11.4448 19.6098 11.5152C19.6802 11.5855 19.7755 11.625 19.875 11.625H22.875C22.9745 11.625 23.0698 11.5855 23.1402 11.5152C23.2105 11.4448 23.25 11.3495 23.25 11.25C23.25 11.1505 23.2105 11.0552 23.1402 10.9848C23.0698 10.9145 22.9745 10.875 22.875 10.875Z" fill="#767676"/>
<path d="M17.8339 16.5535C17.7632 16.4852 17.6684 16.4474 17.5701 16.4483C17.4718 16.4491 17.3777 16.4885 17.3082 16.5581C17.2387 16.6276 17.1992 16.7217 17.1984 16.82C17.1975 16.9183 17.2353 17.013 17.3036 17.0838L19.425 19.2048C19.4962 19.2703 19.59 19.3058 19.6867 19.3038C19.7835 19.3018 19.8757 19.2624 19.9441 19.194C20.0125 19.1256 20.0519 19.0334 20.0539 18.9366C20.0559 18.8399 20.0204 18.7461 19.9549 18.6749L17.8339 16.5535Z" fill="#767676"/>
</g>
<defs>
<clipPath id="clip0_111_1103">
<rect width="24" height="24" fill="white"/>
</clipPath>
</defs>
</svg>
