<svg width="17" height="11" viewBox="0 0 17 11" fill="none" xmlns="http://www.w3.org/2000/svg">
<path fill-rule="evenodd" clip-rule="evenodd" d="M16.6181 5.13229C16.7119 5.22605 16.7646 5.35323 16.7646 5.48584C16.7646 5.61845 16.7119 5.74562 16.6181 5.83939L12.3755 10.082C12.2817 10.1758 12.1546 10.2285 12.022 10.2285C11.8893 10.2285 11.7622 10.1758 11.6684 10.082C11.5746 9.98827 11.522 9.86109 11.522 9.72848C11.522 9.59587 11.5746 9.4687 11.6684 9.37493L15.0576 5.98576L0.708244 5.98647C0.6425 5.98647 0.5774 5.97352 0.516661 5.94836C0.455921 5.9232 0.400732 5.88633 0.354244 5.83984C0.307756 5.79335 0.27088 5.73816 0.245721 5.67742C0.220562 5.61668 0.207612 5.55158 0.207612 5.48584C0.207612 5.4201 0.220562 5.355 0.245721 5.29426C0.27088 5.23352 0.307756 5.17833 0.354244 5.13184C0.400732 5.08535 0.455921 5.04848 0.516661 5.02332C0.5774 4.99816 0.6425 4.98521 0.708244 4.98521L15.0576 4.98592L11.6684 1.59675C11.5746 1.50298 11.522 1.37581 11.522 1.2432C11.522 1.11059 11.5746 0.983414 11.6684 0.889646C11.7622 0.795878 11.8893 0.743199 12.022 0.743199C12.1546 0.743199 12.2817 0.795878 12.3755 0.889646L16.6181 5.13229Z" fill="black"/>
</svg>
