<svg width="24" height="24" viewBox="0 0 24 24" fill="none" xmlns="http://www.w3.org/2000/svg">
<path d="M2.24999 22.4946H21.75C22.5773 22.4946 23.25 21.8219 23.25 20.9946C23.25 20.1674 22.5773 19.4946 21.75 19.4946H21.375V10.8818L21.943 11.1974C22.1204 11.2971 22.3518 11.2343 22.4528 11.0518C22.5535 10.8707 22.4883 10.6424 22.307 10.5419L12.7619 5.23902C12.8751 5.28452 13.6065 4.95104 13.7249 4.92327L14.5206 5.22082C14.6382 5.26477 14.7686 5.24756 14.87 5.17486C14.9714 5.10254 15.0304 4.98443 15.0271 4.85974L15.0033 3.95355L15.5273 3.23688C15.5991 3.1391 15.6189 3.01275 15.5808 2.89776C15.5427 2.78277 15.4515 2.69324 15.3358 2.65735L14.5214 2.40503L14.0391 1.66492C13.9006 1.45251 13.5491 1.45251 13.4106 1.66492L12.9287 2.40503L12.1139 2.65735C11.9982 2.69324 11.907 2.78277 11.8689 2.89776C11.8308 3.01294 11.8506 3.13928 11.9224 3.23706L12.4468 3.95355L12.423 4.85974C12.4207 4.94525 12.4495 5.02655 12.4994 5.09322C12.3098 4.997 12.0367 4.77093 11.8176 4.91689C11.8176 4.91687 8.71344 6.64296 8.71344 6.64296C7.11804 6.15262 6.05447 4.39252 6.45703 2.70054C6.53947 2.37875 6.13934 2.11169 5.87439 2.31329C3.8196 3.68828 3.54741 6.85042 5.28751 8.54613L1.69299 10.5417C1.51208 10.6422 1.44653 10.8705 1.54724 11.0516C1.6482 11.2344 1.87939 11.2969 2.05701 11.1976L2.625 10.8822V19.4946H2.25C1.42273 19.4946 0.75 20.1674 0.75 20.9946C0.75 21.8219 1.42273 22.4946 2.25 22.4946L2.24999 22.4946ZM13.2799 3.08123C13.4682 3.04491 13.6208 2.69058 13.7248 2.55645C13.8303 2.69207 13.9809 3.04354 14.1702 3.08123L14.6118 3.21819C14.5251 3.36347 14.2251 3.65948 14.25 3.84531C14.25 3.84533 14.2628 4.32378 14.2628 4.32378C14.1653 4.29488 13.8242 4.13867 13.7248 4.14798C13.6272 4.13805 13.2823 4.29543 13.1873 4.3236L13.2001 3.84533C13.226 3.66074 12.9237 3.3615 12.8379 3.21819L13.2799 3.08123ZM4.87499 5.68243C4.87499 4.90423 5.14672 4.15734 5.62719 3.56316C5.66475 6.35586 8.67672 8.31258 11.2152 7.28808C9.54034 10.3283 4.9045 9.17919 4.87499 5.68243ZM5.8969 9.06581C8.2066 10.7531 11.6964 9.39123 12.2754 6.5761C12.3577 6.25422 11.9571 5.98748 11.6927 6.1889C11.1877 6.54568 10.6043 6.74428 9.99499 6.78861L12 5.67364L20.6303 10.4681C20.6147 10.4808 20.6304 19.4753 20.625 19.4946H16.125V18.3696C17.6086 18.3306 17.6081 16.1583 16.125 16.1196H13.875C13.9414 15.42 13.4493 14.9283 12.75 14.9946V14.6196H13.875C14.4954 14.6196 15 14.115 15 13.4946V11.2446C15 10.6243 14.4954 10.1196 13.875 10.1196H9.375C8.75463 10.1196 8.25 10.6243 8.25 11.2446V13.4946C8.25 14.115 8.75463 14.6196 9.375 14.6196H10.5V14.9946C9.80035 14.9282 9.30862 15.4203 9.375 16.1196H7.125C5.64157 16.1584 5.64186 18.331 7.125 18.3696V19.4946H3.37499C3.3698 19.4686 3.38497 10.4908 3.36977 10.4688L5.8969 9.06581H5.8969ZM7.12499 17.6196C6.63509 17.6119 6.62978 16.8785 7.12499 16.8696H16.125C16.6149 16.8773 16.6202 17.6108 16.125 17.6196H7.12499ZM15.375 18.3696V19.4946H14.625V18.3696H15.375ZM13.875 18.3696V19.4946H9.37499V18.3696H13.875ZM8.62499 18.3696V19.4946H7.87499V18.3696H8.62499ZM11.25 13.1196C10.8365 13.1196 10.5 13.4562 10.5 13.8696H9.37499C9.16808 13.8696 8.99999 13.7015 8.99999 13.4946V11.2446C8.99999 11.0379 9.16808 10.8696 9.37499 10.8696H13.875C14.0819 10.8696 14.25 11.0379 14.25 11.2446V13.4946C14.25 13.7015 14.0819 13.8696 13.875 13.8696H12.75C12.75 13.4562 12.4134 13.1196 12 13.1196H11.25ZM12 13.8696V14.9946H11.25V13.8696H12ZM12.9375 15.7446C13.1484 15.7506 13.1292 15.9682 13.125 16.1196H10.125C10.1209 15.9679 10.1016 15.7507 10.3125 15.7446H12.9375ZM2.24999 20.2446H21.75C22.734 20.2688 22.7429 21.7179 21.75 21.7446H2.24999C1.26743 21.721 1.25587 20.2716 2.24999 20.2446Z" fill="#767676"/>
<path d="M8.09657 4.32855L8.07313 5.23492C8.0702 5.35962 8.12879 5.47754 8.2306 5.55005C8.33204 5.62256 8.46241 5.63958 8.5796 5.59582L9.375 5.29846C9.46734 5.32391 10.221 5.63928 10.3019 5.61963C10.5059 5.62418 10.6866 5.4397 10.6769 5.23492L10.6534 4.32855L11.1775 3.61188C11.2493 3.5141 11.269 3.38775 11.231 3.27276C11.1929 3.15777 11.1017 3.06824 10.986 3.03235L10.1715 2.78003L9.68921 2.03992C9.55079 1.82751 9.19922 1.82751 9.0608 2.03992L8.5785 2.78003L7.76404 3.03235C7.64832 3.06824 7.55713 3.15777 7.51905 3.27276C7.48096 3.38775 7.50074 3.5141 7.57251 3.61188L8.09656 4.32855H8.09657ZM8.9297 3.45624C9.1177 3.41987 9.27101 3.06547 9.37501 2.93146C9.48048 3.06707 9.63108 3.41854 9.82032 3.45624L10.262 3.5932C10.1753 3.73847 9.8753 4.03432 9.90015 4.22013C9.90015 4.22015 9.9126 4.69879 9.9126 4.69879C9.81501 4.66983 9.47453 4.51367 9.37501 4.52298C9.27728 4.51301 8.93244 4.67059 8.83741 4.69879L8.84986 4.22015C8.87564 4.0359 8.57355 3.73643 8.48805 3.59319L8.9297 3.45623V3.45624Z" fill="#767676"/>
<path d="M16.1254 11.9945C16.2455 12.0193 16.9262 11.6232 17.0427 11.5799C17.48 11.3523 17.1515 10.6955 16.7073 10.909L15.9573 11.284C15.6046 11.4529 15.7409 12.0031 16.1254 11.9945Z" fill="#767676"/>
<path d="M15.9573 13.455L16.7073 13.83C17.1493 14.0429 17.4814 13.3882 17.0427 13.1591C17.0427 13.1591 16.2927 12.7841 16.2927 12.7841C15.8481 12.5721 15.52 13.2268 15.9573 13.455Z" fill="#767676"/>
<path d="M6.20728 11.5799L6.95728 11.9549C7.39921 12.1679 7.73145 11.5131 7.29273 11.284C7.29273 11.284 6.54273 10.909 6.54273 10.909C6.09843 10.6957 5.76991 11.352 6.20728 11.5799Z" fill="#767676"/>
<path d="M6.95726 12.7841L6.20726 13.1591C5.85463 13.328 5.99086 13.8782 6.37535 13.8696C6.49547 13.8943 7.17621 13.4984 7.29271 13.455C7.72988 13.2269 7.40185 12.5719 6.95726 12.7841Z" fill="#767676"/>
</svg>
