<svg width="10" height="14" viewBox="0 0 10 14" fill="none" xmlns="http://www.w3.org/2000/svg">
<path d="M8.73603 2.62235L8.75885 2.47254C8.77055 2.38269 8.78713 2.29773 8.80391 2.20281C8.83727 2.02292 8.88079 1.83287 8.92939 1.63775L9.22623 0.451999L8.91805 0.682027L8.26127 1.17275C8.05407 1.33111 7.88299 1.42405 7.70702 1.5121C7.49101 1.61089 7.466 1.61636 7.38065 1.65286C7.30038 1.68429 7.22011 1.71572 7.14003 1.73719C6.81933 1.84299 6.49412 1.92399 6.17908 1.99483C5.55426 2.12146 4.96576 2.17271 4.47784 2.17221C3.98991 2.17172 3.60296 2.09956 3.34589 2.00497C3.0939 1.9053 2.98175 1.78301 2.98156 1.79297C2.98156 1.79297 3.03823 1.9512 3.26875 2.13094C3.4942 2.31577 3.88373 2.51235 4.39922 2.6318C4.90963 2.75633 5.54073 2.81877 6.2437 2.77028C6.59763 2.74848 6.96717 2.69152 7.35253 2.58944C7.40253 2.57852 7.45272 2.55763 7.5078 2.54162C6.72356 3.44308 5.30663 5.13353 3.87728 7.20759C3.29022 6.67129 2.68091 6.25493 2.20816 5.98528C1.68638 5.67675 1.33066 5.53428 1.33066 5.53428C1.33066 5.53428 1.53348 5.85895 1.89767 6.33484C2.2472 6.79608 2.73349 7.39408 3.3442 7.99464C1.49779 10.7788 0.347028 13.1213 0.347028 13.1213C0.347028 13.1213 2.08094 11.2604 4.00961 8.59912C4.47535 8.97346 4.93267 9.2683 5.32746 9.44984C5.8799 9.71794 6.26159 9.80513 6.26159 9.80513C6.26159 9.80513 6.01326 9.5162 5.61353 9.07585C5.31617 8.74803 4.96099 8.32175 4.53176 7.86206C4.56242 7.82164 4.58819 7.77632 4.61885 7.7359C6.16595 5.49525 7.31149 3.42172 7.82343 2.4409C7.83847 2.43563 7.84843 2.43543 7.83358 2.43074C7.83358 2.43074 7.83358 2.43075 7.84373 2.42059L7.8535 2.43036C7.8535 2.43036 7.85801 2.45516 7.85254 2.48016L7.84611 2.55497C7.81884 2.9339 7.82165 3.30228 7.86978 3.6449C7.95098 4.33539 8.17827 4.93841 8.45866 5.37111C8.74392 5.8087 9.06743 6.07129 9.30342 6.22604C9.5394 6.38078 9.68786 6.42769 9.68278 6.43277C9.68278 6.43277 9.57025 6.3304 9.40008 6.1196C9.23479 5.9137 9.01694 5.59429 8.86606 5.15907C8.7101 4.72893 8.62599 4.18787 8.63289 3.57533C8.63381 3.2716 8.66499 2.94736 8.7161 2.62274L8.73603 2.62235Z" fill="#767676"/>
</svg>
