<svg width="16" height="11" viewBox="0 0 16 11" fill="none" xmlns="http://www.w3.org/2000/svg">
<path d="M13.7643 7.17397C13.7364 7.43218 13.6806 7.74621 13.5689 8.09514C13.4573 8.44407 13.2898 8.82091 13.0386 9.1838C12.7873 9.5397 12.4244 9.88165 11.9848 10.0142C11.5521 10.1538 11.0566 10.0491 10.61 9.7351C10.4984 9.65834 10.3867 9.56762 10.282 9.4769C10.1773 9.3792 10.0657 9.26754 9.98892 9.17682C9.82144 8.97444 9.7028 8.72321 9.61906 8.44407C9.45157 7.8788 9.43762 7.20886 9.45855 6.51101C9.50043 5.40141 9.64 4.2988 9.64698 3.23806C9.64698 2.70768 9.62604 2.18429 9.52834 1.68183C9.50043 1.55622 9.47949 1.43758 9.44459 1.31197C9.43064 1.24916 9.4097 1.19334 9.38876 1.13053L9.36085 1.03981C9.3469 0.997934 9.33293 0.949087 9.312 0.907216C9.24221 0.725773 9.17244 0.558283 9.08172 0.411733L8.9561 0.195399L8.89329 0.0907193C8.89329 0.0907193 8.85142 0.00697835 8.83049 -2.20505e-07C8.62811 0.1954 8.44666 0.369865 8.2722 0.551307L8.14658 0.683902L8.0419 0.795556L7.89535 0.970021C7.69995 1.20729 7.53247 1.43758 7.37894 1.6609C7.07886 2.10753 6.86951 2.53322 6.73691 2.89611C6.709 2.97287 6.68108 3.04964 6.66015 3.11942C6.56245 2.72862 6.44381 2.35178 6.2833 2.00285C6.19956 1.80745 6.10185 1.61903 5.99717 1.44456L5.92041 1.31197L5.80876 1.13053C5.71106 0.98398 5.61336 0.844404 5.51566 0.711811L5.12485 0.823471C5.00622 0.858364 4.85269 0.907215 4.80384 0.928151C4.65729 0.983979 4.5247 1.05377 4.39211 1.13053C4.1339 1.27708 3.90361 1.45154 3.71519 1.64694C3.49187 1.87026 3.33136 2.11451 3.2197 2.35178C2.99639 1.96098 2.69631 1.58414 2.2776 1.35384C2.22177 1.32593 2.17291 1.29801 2.11709 1.27708C2.08917 1.26312 2.04032 1.24218 1.99845 1.2352L1.92169 1.21427C1.81701 1.19333 1.71233 1.1724 1.60765 1.16542C1.39829 1.14448 1.18196 1.15147 0.965624 1.20729C0.756267 1.26312 0.553885 1.3678 0.407335 1.51435C0.260785 1.6609 0.163091 1.82838 0.107262 1.98889C-0.00439559 2.30991 -0.0113736 2.59603 0.00956237 2.84028C0.0235194 3.08453 0.0723647 3.28691 0.114237 3.44741C0.204958 3.76843 0.309636 3.92196 0.309636 3.92196C0.309636 3.92196 0.260792 3.74749 0.260792 3.42647C0.260792 3.26597 0.260783 3.07057 0.295675 2.85423C0.330568 2.6379 0.393377 2.39365 0.52597 2.19127C0.651585 1.98191 0.840009 1.84932 1.08426 1.83536C1.20987 1.82838 1.34944 1.83537 1.49599 1.87724C1.57276 1.89817 1.64255 1.91911 1.71931 1.94702L1.77514 1.96796C1.77514 1.96796 1.77513 1.96796 1.78909 1.97494C1.81701 1.99587 1.84493 2.00982 1.87284 2.03076C2.10313 2.19127 2.29854 2.47041 2.45206 2.80538C2.61257 3.14035 2.73818 3.52418 2.84984 3.92893C3.06617 4.73845 3.21272 5.55494 3.33834 6.30165L3.68029 8.29752C3.78497 8.86976 3.88267 9.33733 3.95943 9.65136C4.04317 9.97238 4.10599 10.1399 4.10599 10.1399C4.10599 10.1399 4.09901 9.95842 4.10599 9.6374L4.14088 8.26262C4.15484 7.6834 4.15483 6.98555 4.11296 6.21093C4.06411 5.43631 3.98037 4.58492 3.73612 3.68468C3.65238 3.37763 3.5477 3.07755 3.42209 2.78445C3.57562 2.5402 3.79194 2.28897 4.07806 2.08659C4.25951 1.96098 4.46189 1.84932 4.69218 1.7586C4.80384 1.71673 4.92247 1.67486 5.04809 1.63996C5.13183 1.61903 5.11788 1.62601 5.13184 1.62601C5.14579 1.62601 5.15277 1.62601 5.16673 1.62601C5.16673 1.63996 5.17371 1.65392 5.17371 1.66788L5.17371 1.67486L5.20162 1.73069L5.25745 1.84932C5.33421 2.00983 5.404 2.17732 5.46681 2.35178C5.5994 2.70071 5.70408 3.07057 5.7948 3.46137C5.98322 4.27786 6.08092 5.10133 6.16466 5.84804C6.24841 6.60173 6.32518 7.2926 6.40892 7.87183C6.56943 9.03725 6.79273 9.73511 6.79273 9.72813C6.79273 9.72813 6.79274 9.00236 6.86252 7.85089C6.89044 7.27167 6.93231 6.58079 6.93231 5.80617C6.93231 5.06644 6.89044 4.24995 6.70899 3.39159C6.76482 3.27295 6.82763 3.14036 6.90439 2.99381C7.08583 2.67279 7.33706 2.30293 7.67901 1.91911C7.97909 1.5632 8.56529 1.00491 8.6281 1.01189C8.63508 0.997933 8.63508 1.02585 8.64206 1.03283L8.65602 1.06074C8.65602 1.06074 8.66997 1.10261 8.66997 1.11657C8.68393 1.15146 8.69091 1.19334 8.69091 1.22125L8.69091 1.24916C8.69091 1.24916 8.70486 1.29801 8.71184 1.32593C8.7258 1.37478 8.73278 1.43061 8.73976 1.47946C8.7607 1.58414 8.77465 1.69579 8.78163 1.80745C8.8235 2.2471 8.8235 2.72862 8.78861 3.2241C8.7258 4.22902 8.55832 5.31069 8.50947 6.49007C8.48853 7.2298 8.50946 7.98348 8.74674 8.72321C8.86537 9.0861 9.0538 9.442 9.31898 9.7351C9.45856 9.88863 9.58417 9.99331 9.72374 10.105C9.86331 10.2166 10.0029 10.3143 10.1564 10.405C10.4635 10.5865 10.7984 10.7121 11.1543 10.754C11.5033 10.7958 11.8662 10.747 12.1662 10.6144C12.4663 10.4888 12.7175 10.3004 12.9129 10.091C13.1083 9.88165 13.2619 9.65834 13.3875 9.442C13.6248 8.99538 13.7504 8.56271 13.8132 8.17889C13.876 7.79506 13.883 7.46707 13.869 7.1949C13.8411 6.65755 13.7434 6.37841 13.7504 6.37143C13.7504 6.37143 13.7783 6.66454 13.7225 7.18793L13.7643 7.17397Z" fill="#767676"/>
<path d="M15.1738 6.81788C15.09 6.53176 14.9574 6.20377 14.8109 5.86182L14.5946 5.32446L14.4969 5.08719C14.455 4.98949 14.4201 4.88481 14.3852 4.77315L14.1758 4.08228L13.6594 4.51495C13.485 4.66848 13.3105 4.82898 13.143 5.00345L13.0732 5.08021L13.0104 5.15L12.8918 5.28957C12.7383 5.47101 12.5987 5.65246 12.4801 5.82692C12.2358 6.18283 12.0404 6.51082 11.8799 6.79694C11.5659 7.36221 11.3914 7.73207 11.3914 7.73207C11.3914 7.73207 11.7403 7.51573 12.2358 7.09004C12.4801 6.88068 12.7662 6.62248 13.0663 6.33636L13.5338 5.88973L13.7711 5.66642C13.7711 5.66642 13.7781 5.65944 13.785 5.65944C13.785 5.65944 13.7851 5.65944 13.792 5.65944C13.792 5.66641 13.792 5.6385 13.8269 5.70829C13.9386 5.90369 14.0572 6.07117 14.1689 6.23168C14.3992 6.54572 14.6155 6.8109 14.79 7.02724C15.1459 7.46689 15.3343 7.77394 15.3343 7.77394C15.3343 7.77394 15.3343 7.40408 15.1529 6.83882L15.1738 6.81788Z" fill="#767676"/>
</svg>
