<svg width="24" height="24" viewBox="0 0 24 24" fill="none" xmlns="http://www.w3.org/2000/svg">
<g clip-path="url(#clip0_111_1105)">
<path d="M21.5484 6.40781L21.9234 5.95781C22.0641 5.78906 22.0594 5.55 21.9188 5.38125C21.7781 5.2125 21.5391 5.17969 21.3516 5.29219L20.8641 5.5875C20.7375 5.44687 20.6062 5.31094 20.475 5.17969C18.2062 2.91094 15.1969 1.66406 12 1.66406C11.9953 1.66406 11.9906 1.66406 11.9859 1.66406C9.13594 1.66406 6.375 2.68594 4.20938 4.53281C4.06406 4.65937 4.04531 4.87969 4.17188 5.02969C4.29844 5.17969 4.51875 5.19375 4.66875 5.06719C5.46094 4.39219 6.3375 3.83437 7.27031 3.40312L7.72969 4.44375C5.61562 5.42813 3.89062 7.12031 2.86875 9.21094L1.80469 8.78906C2.25469 7.85156 2.83125 6.97031 3.52969 6.17813C3.65625 6.03281 3.64219 5.8125 3.49687 5.68125C3.35156 5.55469 3.13125 5.56875 3 5.71406C1.06875 7.9125 0 10.7344 0 13.6641C0 16.6547 1.10625 19.5234 3.12187 21.7359C3.23438 21.8625 3.39844 21.9281 3.55781 21.9281C3.68438 21.9281 3.81094 21.8859 3.91406 21.8063L5.00625 20.9578C5.1375 20.8594 5.21719 20.7047 5.23125 20.5406C5.24531 20.3766 5.18906 20.2125 5.07656 20.0953C3.44531 18.3375 2.54531 16.0547 2.54531 13.6641C2.54531 8.45156 6.7875 4.20938 12 4.20938C14.5828 4.20938 16.9312 5.25469 18.6375 6.94219L16.3312 8.34375C15.1078 7.35 13.5891 6.80156 12 6.80156C8.21719 6.80156 5.1375 9.88125 5.1375 13.6641C5.1375 15.8766 6.19219 17.85 7.82812 19.1063C7.17656 19.3313 6.70312 19.95 6.70312 20.6766C6.70312 21.5906 7.44844 22.3359 8.3625 22.3359H12.375C12.5672 22.3359 12.7266 22.1766 12.7266 21.9844C12.7266 21.7922 12.5672 21.6328 12.375 21.6328H8.3625C7.83281 21.6328 7.40625 21.2016 7.40625 20.6766C7.40625 20.1516 7.8375 19.7203 8.3625 19.7203H15.6375C16.1672 19.7203 16.5938 20.1516 16.5938 20.6766C16.5938 21.2016 16.1625 21.6328 15.6375 21.6328H14.0156C13.8234 21.6328 13.6641 21.7922 13.6641 21.9844C13.6641 22.1766 13.8234 22.3359 14.0156 22.3359H15.6375C16.5516 22.3359 17.2969 21.5906 17.2969 20.6766C17.2969 19.95 16.8281 19.3313 16.1766 19.1063C16.2703 19.0359 16.3594 18.9656 16.4484 18.8906C17.6719 17.85 18.4969 16.4062 18.7641 14.8266C18.7969 14.6344 18.6703 14.4516 18.4781 14.4188C18.2859 14.3859 18.1031 14.5125 18.0703 14.7047C17.8266 16.1203 17.0906 17.4141 15.9938 18.3516C15.6984 18.6047 15.3797 18.825 15.0469 19.0125H8.9625C7.10156 17.9531 5.84531 15.9516 5.84531 13.6594C5.84531 10.2656 8.60625 7.5 12.0047 7.5C13.3453 7.5 14.6344 7.93125 15.6937 8.72812L14.3766 9.52969C13.6781 9.12656 12.8672 8.89688 12.0047 8.89688C9.37969 8.89688 7.24219 11.0344 7.24219 13.6594C7.24219 16.2844 9.375 18.4266 12 18.4266C14.625 18.4266 16.7625 16.2891 16.7625 13.6641C16.7625 13.2141 16.7016 12.7781 16.5844 12.3656L17.6109 11.1328C17.8969 11.7656 18.075 12.45 18.1359 13.1578C18.15 13.35 18.3234 13.4953 18.5156 13.4813C18.7078 13.4672 18.8531 13.2937 18.8391 13.1016C18.7641 12.1969 18.5156 11.3297 18.1078 10.5422L19.8656 8.43281C20.8687 9.93281 21.4547 11.7328 21.4547 13.6688C21.4547 16.0594 20.5547 18.3469 18.9234 20.1C18.8109 20.2219 18.7547 20.3812 18.7687 20.5453C18.7828 20.7094 18.8625 20.8594 18.9938 20.9625L20.0859 21.8109C20.325 21.9984 20.6766 21.9656 20.8781 21.7406C22.8891 19.5281 24 16.6641 24 13.6688C24 11.0109 23.1375 8.48906 21.5484 6.40781ZM3.56719 21.1828C2.44687 19.9266 1.63125 18.45 1.1625 16.8656L2.25469 16.5328C2.68125 17.9859 3.43594 19.3359 4.47656 20.4797L3.56719 21.1828ZM1.84219 13.6641C1.84219 14.4047 1.92188 15.1406 2.08125 15.8531L0.989063 16.1859C0.801563 15.3656 0.703125 14.5219 0.703125 13.6641C0.703125 12.2016 0.984375 10.7719 1.52344 9.44062L2.58281 9.8625C2.10469 11.0344 1.84219 12.3188 1.84219 13.6641ZM15.6188 4.17188C14.4938 3.74062 13.275 3.50625 12 3.50625C10.725 3.50625 9.50625 3.74531 8.38125 4.17188L7.92188 3.12656C9.21094 2.62969 10.5891 2.3625 11.9906 2.3625H12.0047C13.4203 2.3625 14.8031 2.625 16.0875 3.12656L15.6188 4.17188ZM16.2703 4.44844L16.7297 3.40312C17.9203 3.95625 19.0172 4.72031 19.9781 5.67656C20.0719 5.77031 20.1609 5.86406 20.25 5.95781L19.2562 6.5625C18.3984 5.69063 17.3906 4.96875 16.2703 4.44844ZM12 17.7234C9.75937 17.7234 7.94062 15.9 7.94062 13.6641C7.94062 11.4281 9.76406 9.60469 12 9.60469C14.2359 9.60469 16.0594 11.4281 16.0594 13.6641C16.0594 15.9 14.2406 17.7234 12 17.7234ZM15.0047 9.97031L20.3906 6.69375L16.2984 11.6063C15.9938 10.9688 15.5484 10.4109 15.0047 9.97031ZM21.0844 6.96094C21.5156 7.5375 21.8859 8.15156 22.1906 8.79375L21.1266 9.21563C20.8969 8.74219 20.6297 8.29219 20.3297 7.86563L21.0844 6.96094ZM21.4172 9.85781L22.4766 9.43594C23.0156 10.7625 23.2969 12.1922 23.2969 13.6594C23.2969 14.5172 23.1984 15.3609 23.0109 16.1813L21.9188 15.8484C22.0734 15.1359 22.1578 14.4047 22.1578 13.6594C22.1578 12.3187 21.8953 11.0344 21.4172 9.85781ZM20.4328 21.1828L19.5234 20.4797C20.5641 19.3359 21.3141 17.9859 21.7453 16.5328L22.8375 16.8656C22.3688 18.45 21.5531 19.9266 20.4328 21.1828Z" fill="#767676"/>
<path d="M9.37969 21.0423C9.58162 21.0423 9.74532 20.8786 9.74532 20.6767C9.74532 20.4747 9.58162 20.311 9.37969 20.311C9.17776 20.311 9.01407 20.4747 9.01407 20.6767C9.01407 20.8786 9.17776 21.0423 9.37969 21.0423Z" fill="#767676"/>
<path d="M10.6922 21.0423C10.8941 21.0423 11.0578 20.8786 11.0578 20.6767C11.0578 20.4747 10.8941 20.311 10.6922 20.311C10.4903 20.311 10.3266 20.4747 10.3266 20.6767C10.3266 20.8786 10.4903 21.0423 10.6922 21.0423Z" fill="#767676"/>
<path d="M12 21.0423C12.2019 21.0423 12.3656 20.8786 12.3656 20.6767C12.3656 20.4747 12.2019 20.311 12 20.311C11.7981 20.311 11.6344 20.4747 11.6344 20.6767C11.6344 20.8786 11.7981 21.0423 12 21.0423Z" fill="#767676"/>
<path d="M13.3078 21.0423C13.5098 21.0423 13.6734 20.8786 13.6734 20.6767C13.6734 20.4747 13.5098 20.311 13.3078 20.311C13.1059 20.311 12.9422 20.4747 12.9422 20.6767C12.9422 20.8786 13.1059 21.0423 13.3078 21.0423Z" fill="#767676"/>
<path d="M14.6203 21.0423C14.8223 21.0423 14.9859 20.8786 14.9859 20.6767C14.9859 20.4747 14.8223 20.311 14.6203 20.311C14.4184 20.311 14.2547 20.4747 14.2547 20.6767C14.2547 20.8786 14.4184 21.0423 14.6203 21.0423Z" fill="#767676"/>
<path d="M13.4016 14.0952C13.2094 14.0952 13.05 14.2546 13.05 14.4468C13.05 15.028 12.5766 15.4968 12 15.4968C11.4234 15.4968 10.95 15.0233 10.95 14.4468C10.95 14.2546 10.7906 14.0952 10.5984 14.0952C10.4063 14.0952 10.2469 14.2546 10.2469 14.4468C10.2469 15.4124 11.0344 16.1999 12 16.1999C12.9656 16.1999 13.7531 15.4124 13.7531 14.4468C13.7531 14.2499 13.5984 14.0952 13.4016 14.0952Z" fill="#767676"/>
<path d="M10.725 12.8484C10.725 13.0406 10.8844 13.2 11.0766 13.2C11.2688 13.2 11.4281 13.0406 11.4281 12.8484C11.4281 12.2672 10.9547 11.7891 10.3688 11.7891C9.78751 11.7891 9.30939 12.2625 9.30939 12.8484C9.30939 13.0406 9.46876 13.2 9.66095 13.2C9.85314 13.2 10.0125 13.0406 10.0125 12.8484C10.0125 12.6516 10.1719 12.4922 10.3688 12.4922C10.5656 12.4922 10.725 12.6516 10.725 12.8484Z" fill="#767676"/>
<path d="M13.6312 11.7891C13.05 11.7891 12.5719 12.2625 12.5719 12.8484C12.5719 13.0406 12.7312 13.2 12.9234 13.2C13.1156 13.2 13.275 13.0406 13.275 12.8484C13.275 12.6516 13.4344 12.4922 13.6312 12.4922C13.8281 12.4922 13.9875 12.6516 13.9875 12.8484C13.9875 13.0406 14.1469 13.2 14.3391 13.2C14.5312 13.2 14.6906 13.0406 14.6906 12.8484C14.6859 12.2672 14.2125 11.7891 13.6312 11.7891Z" fill="#767676"/>
</g>
<defs>
<clipPath id="clip0_111_1105">
<rect width="24" height="24" fill="white"/>
</clipPath>
</defs>
</svg>
