<svg width="13" height="13" viewBox="0 0 13 13" fill="none" xmlns="http://www.w3.org/2000/svg">
<path d="M11.8774 1.34541C11.7981 1.29548 11.666 1.22415 11.4744 1.18849C11.2828 1.15283 11.0384 1.17421 10.7808 1.26694C10.5232 1.35966 10.2523 1.51657 9.96826 1.70915C9.40676 2.09431 8.81884 2.63638 8.13843 3.11427C7.46463 3.59928 6.67853 4.00584 5.8528 3.89885C5.64802 3.87745 5.44324 3.82752 5.24506 3.75619C5.14597 3.72053 5.04688 3.67775 4.9544 3.63495C4.90816 3.61355 4.86192 3.59215 4.80907 3.56362L4.76944 3.54222L4.70999 3.51369C4.69017 3.50656 4.67035 3.49944 4.65054 3.48517C4.4986 3.40672 4.33345 3.27832 4.17491 3.1428C4.01637 3.00015 3.86444 2.85036 3.7125 2.69345C3.11137 2.07292 2.54987 1.43811 1.89589 1.12428C1.5722 0.96736 1.20888 0.924577 0.931429 1.02443C0.653983 1.11716 0.469023 1.28834 0.336905 1.43099C0.0858822 1.72343 -4.84185e-07 1.92314 -4.84185e-07 1.92314C-4.84185e-07 1.92314 0.138729 1.75909 0.429387 1.54512C0.574716 1.44526 0.76628 1.33827 0.99088 1.31687C1.21548 1.29547 1.4599 1.3668 1.69771 1.53798C1.93552 1.70916 2.17333 1.9588 2.41775 2.25123C2.66217 2.54367 2.90658 2.8789 3.19063 3.23553C3.32936 3.41384 3.48129 3.59216 3.65304 3.77047C3.8248 3.94878 4.01637 4.13423 4.28061 4.28402C4.31364 4.30541 4.34666 4.31967 4.37969 4.34107C4.40612 4.35533 4.39951 4.34821 4.39951 4.34821L4.43914 4.3696C4.43914 4.3696 4.4986 4.39814 4.52502 4.41954C4.33345 4.52652 4.14849 4.64778 3.97673 4.77616C3.24348 5.33964 2.71501 6.13133 2.43757 6.96584C2.16012 7.80035 2.12709 8.66339 2.26582 9.41944C2.40454 10.1826 2.71501 10.8317 3.08494 11.3381C3.46147 11.8445 3.89086 12.2012 4.29381 12.4437C4.70338 12.6862 5.08652 12.8217 5.4036 12.893C5.72069 12.9643 5.97171 12.9786 6.13686 12.9786C6.30861 12.9786 6.39448 12.9786 6.39448 12.9786C6.39448 12.9715 6.03777 12.9715 5.44324 12.7504C5.14597 12.6362 4.80247 12.4651 4.44576 12.194C4.08904 11.923 3.73232 11.545 3.44166 11.0599C3.151 10.5749 2.9264 9.98293 2.85374 9.3196C2.78107 8.6634 2.85374 7.93587 3.12458 7.25828C3.38882 6.58069 3.84462 5.96015 4.45236 5.51793C5.05349 5.07572 5.80656 4.82607 6.57945 4.84747C7.35233 4.86887 8.08558 5.15418 8.67351 5.63206C9.26143 6.10281 9.69081 6.75187 9.92201 7.43659C10.1598 8.12132 10.1995 8.85597 10.1004 9.50503C10.0013 10.1612 9.75026 10.7461 9.43318 11.2169C9.1161 11.6876 8.74617 12.0442 8.37624 12.2939C8.00632 12.5506 7.6562 12.7004 7.35894 12.8003C6.7578 12.9857 6.39448 12.9643 6.39448 12.9786C6.39448 12.9786 6.48036 12.9929 6.65211 13C6.81726 13 7.06828 13 7.39197 12.9501C7.70905 12.893 8.0988 12.786 8.52157 12.5649C8.93774 12.3438 9.38694 12.0014 9.78329 11.5164C10.1796 11.0314 10.5165 10.3966 10.6883 9.64769C10.8601 8.89877 10.8667 8.03573 10.6288 7.19409C10.391 6.35245 9.90219 5.53221 9.19537 4.92594C8.85186 4.62637 8.45551 4.38387 8.01952 4.21269C8.23091 4.07003 8.42248 3.92025 8.60084 3.76333C9.28785 3.15706 9.78989 2.53653 10.2589 2.08718C10.4901 1.85893 10.7081 1.6735 10.9195 1.54512C11.1309 1.41673 11.3291 1.35253 11.4942 1.33827C11.666 1.324 11.7981 1.35967 11.8906 1.3882C11.983 1.41673 12.0293 1.43811 12.0293 1.43811C12.0293 1.43811 11.9896 1.40245 11.9104 1.35252L11.8774 1.34541Z" fill="#767676"/>
</svg>
