<svg width="24" height="24" viewBox="0 0 24 24" fill="none" xmlns="http://www.w3.org/2000/svg">
<path d="M10 3.00488C9.71667 3.00488 9.47933 2.90888 9.288 2.71688C9.096 2.52555 9 2.28822 9 2.00488C9 1.72155 9.096 1.48388 9.288 1.29188C9.47933 1.10055 9.71667 1.00488 10 1.00488H14C14.2833 1.00488 14.521 1.10055 14.713 1.29188C14.9043 1.48388 15 1.72155 15 2.00488C15 2.28822 14.9043 2.52555 14.713 2.71688C14.521 2.90888 14.2833 3.00488 14 3.00488H10ZM12 14.0049C12.2833 14.0049 12.521 13.9089 12.713 13.7169C12.9043 13.5255 13 13.2882 13 13.0049V9.00488C13 8.72155 12.9043 8.48388 12.713 8.29188C12.521 8.10055 12.2833 8.00488 12 8.00488C11.7167 8.00488 11.4793 8.10055 11.288 8.29188C11.096 8.48388 11 8.72155 11 9.00488V13.0049C11 13.2882 11.096 13.5255 11.288 13.7169C11.4793 13.9089 11.7167 14.0049 12 14.0049ZM12 22.0049C10.7667 22.0049 9.604 21.7675 8.512 21.2929C7.42067 20.8175 6.46667 20.1716 5.65 19.3549C4.83333 18.5382 4.18733 17.5842 3.712 16.4929C3.23733 15.4009 3 14.2382 3 13.0049C3 11.7715 3.23733 10.6089 3.712 9.51688C4.18733 8.42555 4.83333 7.47155 5.65 6.65488C6.46667 5.83822 7.42067 5.19255 8.512 4.71788C9.604 4.24255 10.7667 4.00488 12 4.00488C13.0333 4.00488 14.025 4.17155 14.975 4.50488C15.925 4.83822 16.8167 5.32155 17.65 5.95488L18.375 5.22988C18.5583 5.04655 18.7833 4.95488 19.05 4.95488C19.3167 4.95488 19.55 5.05488 19.75 5.25488C19.9333 5.43822 20.025 5.67155 20.025 5.95488C20.025 6.23822 19.9333 6.47155 19.75 6.65488L19.05 7.35488C19.6833 8.18822 20.1667 9.07988 20.5 10.0299C20.8333 10.9799 21 11.9715 21 13.0049C21 14.2382 20.7627 15.4009 20.288 16.4929C19.8127 17.5842 19.1667 18.5382 18.35 19.3549C17.5333 20.1716 16.5793 20.8175 15.488 21.2929C14.396 21.7675 13.2333 22.0049 12 22.0049ZM12 20.0049C13.9333 20.0049 15.5833 19.3216 16.95 17.9549C18.3167 16.5882 19 14.9382 19 13.0049C19 11.0715 18.3167 9.42155 16.95 8.05488C15.5833 6.68822 13.9333 6.00488 12 6.00488C10.0667 6.00488 8.41667 6.68822 7.05 8.05488C5.68333 9.42155 5 11.0715 5 13.0049C5 14.9382 5.68333 16.5882 7.05 17.9549C8.41667 19.3216 10.0667 20.0049 12 20.0049Z" fill="#00006C"/>
</svg>
