<svg width="45" height="45" viewBox="0 0 45 45" fill="none" xmlns="http://www.w3.org/2000/svg">
<path d="M22.5151 24C20.7351 24 18.995 23.4722 17.515 22.4832C16.035 21.4943 14.8814 20.0887 14.2002 18.4441C13.519 16.7996 13.3408 14.99 13.6881 13.2442C14.0353 11.4984 14.8925 9.89471 16.1512 8.63604C17.4099 7.37737 19.0135 6.5202 20.7593 6.17294C22.5052 5.82567 24.3148 6.0039 25.9593 6.68509C27.6038 7.36628 29.0094 8.51983 29.9984 9.99987C30.9873 11.4799 31.5151 13.22 31.5151 15C31.5151 17.3869 30.5669 19.6761 28.8791 21.364C27.1913 23.0518 24.9021 24 22.5151 24ZM22.5151 9C21.3284 9 20.1684 9.3519 19.1817 10.0112C18.195 10.6705 17.426 11.6075 16.9719 12.7039C16.5177 13.8003 16.3989 15.0067 16.6304 16.1705C16.8619 17.3344 17.4334 18.4035 18.2725 19.2426C19.1116 20.0818 20.1807 20.6532 21.3446 20.8847C22.5085 21.1162 23.7149 20.9974 24.8112 20.5433C25.9076 20.0891 26.8447 19.3201 27.504 18.3334C28.1632 17.3467 28.5151 16.1867 28.5151 15C28.5151 13.4087 27.883 11.8826 26.7578 10.7574C25.6326 9.63214 24.1064 9 22.5151 9Z" fill="white"/>
<path d="M22.5151 44.9998C19.1888 44.9976 15.9043 44.2579 12.8981 42.8339C9.89201 41.4099 7.23899 39.3372 5.1301 36.7648L4.3501 35.8048L5.1301 34.8598C7.24077 32.2908 9.89457 30.2215 12.9006 28.8007C15.9067 27.3799 19.1902 26.6431 22.5151 26.6431C25.84 26.6431 29.1235 27.3799 32.1296 28.8007C35.1356 30.2215 37.7894 32.2908 39.9001 34.8598L40.6801 35.8048L39.9001 36.7648C37.7912 39.3372 35.1382 41.4099 32.132 42.8339C29.1259 44.2579 25.8414 44.9976 22.5151 44.9998ZM8.2801 35.8198C10.1045 37.7728 12.3108 39.33 14.7621 40.3946C17.2135 41.4592 19.8575 42.0086 22.5301 42.0086C25.2027 42.0086 27.8467 41.4592 30.298 40.3946C32.7494 39.33 34.9557 37.7728 36.7801 35.8198C34.9557 33.8668 32.7494 32.3096 30.298 31.245C27.8467 30.1803 25.2027 29.631 22.5301 29.631C19.8575 29.631 17.2135 30.1803 14.7621 31.245C12.3108 32.3096 10.1045 33.8668 8.2801 35.8198Z" fill="white"/>
<path d="M22.515 45C17.4041 45.0034 12.4444 43.2667 8.45205 40.0757C4.45973 36.8847 1.67275 32.4295 0.549822 27.4436C-0.573106 22.4576 0.03493 17.2378 2.27386 12.6434C4.51278 8.04905 8.24918 4.35382 12.8681 2.16592C17.487 -0.0219814 22.7131 -0.572164 27.6864 0.605922C32.6596 1.78401 37.0836 4.62016 40.2302 8.64758C43.3768 12.675 45.0585 17.6537 44.9985 22.7642C44.9384 27.8748 43.1403 32.8126 39.9 36.765C37.7911 39.3374 35.1381 41.4101 32.132 42.8341C29.1258 44.2581 25.8414 44.9978 22.515 45ZM22.515 3.00001C18.6583 3.00001 14.8882 4.14367 11.6814 6.28636C8.47464 8.42904 5.97528 11.4745 4.49937 15.0377C3.02346 18.6008 2.6373 22.5216 3.38971 26.3043C4.14212 30.0869 5.99931 33.5615 8.72644 36.2886C11.4536 39.0157 14.9281 40.8729 18.7108 41.6253C22.4934 42.3777 26.4142 41.9916 29.9773 40.5156C33.5405 39.0397 36.586 36.5404 38.7287 33.3336C40.8713 30.1269 42.015 26.3567 42.015 22.5C42.015 17.3283 39.9605 12.3684 36.3036 8.71143C32.6466 5.05447 27.6867 3.00001 22.515 3.00001Z" fill="white"/>
<path d="M6.28467 35.8202C6.28467 35.8202 21.3897 52.6952 36.7647 37.5002L38.7447 35.8202C38.7447 35.8202 25.9047 22.5002 12.8697 30.4952L6.28467 35.8202Z" fill="white"/>
<path d="M22.5151 22.5C26.6573 22.5 30.0151 19.1421 30.0151 15C30.0151 10.8579 26.6573 7.5 22.5151 7.5C18.373 7.5 15.0151 10.8579 15.0151 15C15.0151 19.1421 18.373 22.5 22.5151 22.5Z" fill="white"/>
</svg>
