<svg width="14" height="13" viewBox="0 0 14 13" fill="none" xmlns="http://www.w3.org/2000/svg">
<path d="M12.0251 9.62486C12.4943 9.08097 12.8618 8.43738 13.0212 7.745C13.1018 7.40229 13.1368 7.05689 13.1209 6.71766C13.1129 6.54804 13.098 6.3803 13.0709 6.22327C13.0438 6.06624 13.0097 5.91108 12.9686 5.75781C12.8062 5.15166 12.488 4.57978 12.008 4.21556C11.7715 4.03251 11.4972 3.90439 11.2257 3.84272C10.9542 3.78105 10.6855 3.78585 10.442 3.82868C10.1636 3.8809 9.91588 3.99207 9.71066 4.12173C9.72649 3.90094 9.74231 3.68013 9.76001 3.4663C9.77861 3.08794 9.79394 2.7254 9.78643 2.36151L9.78221 2.20583C9.77754 2.13241 9.77799 2.05014 9.76632 1.9786C9.75697 1.83175 9.73362 1.68867 9.70002 1.56326C9.66642 1.43785 9.62442 1.33708 9.58755 1.22748C9.54555 1.12672 9.50122 0.989261 9.45317 0.949864L8.85897 1.36297L8.5931 1.54622L8.48024 1.62874L8.40561 1.68606C8.19899 1.8385 7.99937 1.98906 7.8226 2.14097C7.46021 2.43969 7.17151 2.73362 6.95604 2.99297C6.95091 3.00181 6.93879 3.01253 6.93366 3.02137C6.93598 2.94607 6.94529 2.86891 6.94575 2.78664C6.96435 2.40829 6.9531 2.03045 6.90874 1.66897C6.89005 1.48729 6.85738 1.30936 6.8247 1.13143L6.78176 0.971179L6.73415 0.73752L6.61654 0.298582C6.4654 0.294274 6.31613 0.296932 6.17386 0.297716C6.09829 0.295562 6.02646 0.307343 5.95976 0.310281C5.89492 0.320186 5.80723 0.328743 5.76338 0.333025C5.58473 0.365958 5.41868 0.417933 5.25637 0.483829C4.93872 0.613744 4.66588 0.798861 4.44947 0.998729C4.28669 1.14689 4.15564 1.30148 4.03858 1.45232C3.97651 1.30467 3.90233 1.16773 3.79829 1.03133C3.76236 0.981215 3.7283 0.938068 3.68725 0.896797L3.6266 0.838369L3.60327 0.807292C3.53889 0.734934 3.46752 0.664445 3.39101 0.602803C3.0971 0.34552 2.70244 0.160032 2.30548 0.161852C1.90853 0.163672 1.57784 0.356825 1.37543 0.552943C1.16088 0.759778 1.03963 0.97897 0.949637 1.17484C0.866635 1.36883 0.816749 1.54646 0.787383 1.68874C0.735647 1.97143 0.741741 2.13409 0.734745 2.13597C0.734745 2.13597 0.792099 1.98619 0.921739 1.74237C0.986559 1.62046 1.07562 1.4771 1.20154 1.33135C1.32047 1.18747 1.47438 1.03423 1.65722 0.932962C1.83819 0.824732 2.05695 0.773579 2.24914 0.81916C2.44833 0.862865 2.64006 0.990701 2.82248 1.19572C2.8654 1.24395 2.91019 1.29917 2.95684 1.36135L2.96244 1.38225L2.98017 1.39243L3.01049 1.42163L3.03569 1.45968C3.03569 1.45968 3.06975 1.50284 3.08421 1.52883C3.14206 1.63281 3.18966 1.75448 3.227 1.89382C3.30167 2.17251 3.31571 2.50476 3.29851 2.86035C3.26922 3.56266 3.15924 4.27167 3.05345 4.91235L2.7505 6.63637C2.66521 7.12967 2.60324 7.54205 2.57436 7.82608C2.54548 8.11011 2.5427 8.26767 2.5427 8.26767L2.71897 7.86201C2.83601 7.59916 3.00762 7.23207 3.20579 6.76826C3.40397 6.30445 3.62872 5.74392 3.8292 5.09281C4.02269 4.44357 4.20963 3.71393 4.24402 2.89076C4.25005 2.60538 4.24022 2.31679 4.18467 2.02551C4.3591 1.83689 4.56338 1.64775 4.81384 1.49103C5.01207 1.36324 5.23876 1.2577 5.48551 1.19905C5.60445 1.16718 5.73411 1.14736 5.85865 1.13639C5.88664 1.12889 5.88152 1.13773 5.89038 1.14282L5.90437 1.13907C5.90437 1.13907 5.92396 1.15623 5.92583 1.1632C5.9277 1.17016 5.93144 1.1841 5.91931 1.19482C5.91931 1.19482 5.92304 1.20874 5.92864 1.22965L5.94358 1.2854C5.9548 1.43921 5.96788 1.59998 5.98096 1.76076C6.00013 2.08419 5.99832 2.41324 5.98624 2.75998C5.95045 3.60592 5.82649 4.43069 5.71558 5.19221C5.60467 5.95374 5.51382 6.65016 5.47052 7.24422C5.37694 8.43421 5.49039 9.16548 5.49039 9.16548C5.49039 9.16548 5.6195 8.44389 5.9426 7.32681C6.10065 6.76921 6.30439 6.10229 6.50858 5.3531C6.66943 4.74994 6.82046 4.0822 6.90199 3.35095C6.96775 3.28853 7.03538 3.23306 7.11513 3.16688C7.36839 2.96461 7.68462 2.74547 8.07455 2.52151C8.26951 2.40953 8.47847 2.29381 8.70842 2.17246L8.79378 2.12718C8.79378 2.12718 8.82688 2.11084 8.84787 2.10521C8.88285 2.09584 8.89685 2.09208 8.91597 2.07949C8.95795 2.06824 8.99293 2.05887 9.02092 2.05137C9.04517 2.02994 9.03725 2.08434 9.03586 2.10712C9.04332 2.13499 9.03493 2.15964 9.03354 2.18242C9.03214 2.2052 9.03075 2.22796 9.02049 2.24565L9.01209 2.2703C9.01209 2.2703 9.01069 2.29307 9.0093 2.31585L9.00325 2.37722C8.97857 2.70493 8.93851 3.05916 8.89332 3.42224C8.80433 4.12562 8.69855 4.87831 8.61097 5.67092C8.55922 5.8416 8.54664 5.93457 8.54664 5.93457C8.54664 5.93457 8.56715 5.89921 8.5942 5.83222C8.47447 6.92468 8.41213 7.97937 8.45752 8.96037C8.47952 9.46226 8.53276 9.94084 8.63124 10.3924C8.67418 10.5526 8.71713 10.7129 8.7652 10.8643C8.65885 10.9152 8.5455 10.9679 8.43729 11.0119C7.42187 11.4482 6.43674 11.6898 5.60039 11.7869C4.75705 11.886 4.06762 11.8318 3.59881 11.7333C3.13001 11.6349 2.88555 11.5063 2.88742 11.5132C2.88742 11.5132 3.09922 11.688 3.56245 11.8775C4.01867 12.0689 4.73471 12.2504 5.63078 12.2642C6.52872 12.285 7.60157 12.1468 8.73548 11.7609C8.88054 11.7145 9.02374 11.6612 9.16507 11.601C9.3013 11.7735 9.47203 11.907 9.65769 11.9842C9.84335 12.0614 10.0299 12.0861 10.1932 12.0797C10.5267 12.065 10.7744 11.9538 10.961 11.8665C11.3444 11.6741 11.5141 11.5241 11.523 11.5292C11.523 11.5292 11.3103 11.631 10.9166 11.729C10.7207 11.7815 10.4684 11.8193 10.2114 11.7836C9.97718 11.7492 9.76446 11.627 9.61003 11.4145C9.89082 11.287 10.166 11.1386 10.4445 10.9744C11.0046 10.6301 11.5583 10.2055 12.0344 9.65971L12.0251 9.62486ZM9.31184 10.5535C9.2927 10.4541 9.28055 10.3528 9.27541 10.2496C9.23383 9.8426 9.23377 9.39457 9.25795 8.92511C9.30446 7.97922 9.42652 6.92348 9.5495 5.81521C9.59376 5.39265 9.63988 4.97705 9.68087 4.57029C9.92108 4.43125 10.2005 4.32651 10.5041 4.31235C10.8815 4.29338 11.2841 4.42448 11.5803 4.71847C11.8836 5.01059 12.0856 5.45677 12.1813 5.95385C12.2826 6.47183 12.2892 7.00024 12.1377 7.52623C11.9932 8.05034 11.7008 8.55433 11.3057 9.01114C10.9107 9.46796 10.4354 9.84921 9.94524 10.1747C9.73488 10.3132 9.5208 10.4378 9.30485 10.5554L9.31184 10.5535Z" fill="#767676"/>
</svg>
