<svg width="24" height="24" viewBox="0 0 24 24" fill="none" xmlns="http://www.w3.org/2000/svg">
<g clip-path="url(#clip0_136_996)">
<path d="M19.197 18.9811L18.4384 18.6989C18.4515 18.6557 18.4705 18.6076 18.4953 18.5474C18.5833 18.3337 18.7038 18.0409 18.553 17.6277C18.4026 17.214 18.122 17.0672 17.9171 16.9601C17.7436 16.8693 17.671 16.8264 17.6159 16.675C17.5607 16.5233 17.5887 16.4438 17.6632 16.2628C17.7512 16.049 17.8717 15.7562 17.721 15.3428C17.5882 14.9781 17.3544 14.821 17.1606 14.7155C17.424 14.4657 17.5889 14.1127 17.5889 13.7218C17.5889 13.3592 17.4446 13.0172 17.198 12.7648C17.2963 12.5796 17.3484 12.372 17.3484 12.1561C17.3484 11.814 17.2179 11.497 16.992 11.2601C18.1029 10.0342 18.7369 8.42841 18.7369 6.73692C18.7369 3.02217 15.7147 0 12 0C8.28525 0 5.26312 3.02217 5.26312 6.73688C5.26312 8.42836 5.89711 10.0342 7.00805 11.26C6.78206 11.4969 6.65156 11.814 6.65156 12.1561C6.65156 12.372 6.70378 12.5797 6.80194 12.7648C6.55537 13.0172 6.41109 13.3591 6.41109 13.7217C6.41109 14.1127 6.57595 14.4656 6.83944 14.7155C6.64552 14.8209 6.41184 14.9781 6.27909 15.3428C6.12834 15.7563 6.24881 16.049 6.33675 16.2628C6.41128 16.4438 6.43931 16.5233 6.384 16.6751C6.32897 16.8264 6.25636 16.8693 6.08292 16.96C5.87803 17.0672 5.59744 17.214 5.44711 17.6273C5.29627 18.0408 5.41673 18.3336 5.50472 18.5474C5.52952 18.6076 5.54859 18.6557 5.56163 18.6989L4.80314 18.9811C3.57038 19.4396 2.74219 20.6314 2.74219 21.9469V23.6484C2.74219 23.8426 2.89959 24 3.09375 24C3.28791 24 3.44531 23.8426 3.44531 23.6484V21.9469C3.44531 20.9237 4.08947 19.9967 5.0482 19.6401L7.70541 18.6515C7.8008 19.1525 7.98886 19.6356 8.25984 20.0688C8.36377 20.235 8.58183 20.2821 8.7443 20.1804C8.90892 20.0775 8.95889 19.8606 8.85591 19.696C8.60986 19.3026 8.44631 18.8597 8.37577 18.402L9.34181 18.0427C9.39511 18.8588 9.85983 19.5975 10.5815 19.9965L11.8279 20.6865C11.8808 20.7157 11.9395 20.7304 11.9981 20.7304C12.0568 20.7304 12.1154 20.7157 12.1684 20.6865L13.4146 19.9965C14.1368 19.5973 14.6017 18.858 14.6545 18.0413L15.6204 18.4007C15.4621 19.4447 14.8327 20.356 13.8993 20.8724L12.6998 21.536C12.4963 21.4097 12.2565 21.3366 12 21.3366C11.7426 21.3366 11.5021 21.4102 11.2982 21.5372L10.0968 20.8724C10.0313 20.8362 9.96637 20.7974 9.9038 20.7572C9.74048 20.6522 9.52294 20.6995 9.41798 20.8629C9.31303 21.0262 9.36033 21.2437 9.52369 21.3487C9.59916 21.3972 9.67748 21.444 9.75642 21.4876L10.8103 22.0708C10.7196 22.2506 10.6682 22.4535 10.6682 22.6683C10.6682 23.4026 11.2656 24 11.9999 24C12.7342 24 13.3316 23.4026 13.3316 22.6683C13.3316 22.4529 13.2799 22.2494 13.1887 22.0692L14.2396 21.4877C15.3225 20.8887 16.066 19.8491 16.2911 18.6503L17.5931 19.1347L13.8157 23.4159C13.6872 23.5615 13.7011 23.7836 13.8467 23.9121C13.9918 24.0401 14.214 24.0271 14.3429 23.8811L18.2991 19.3973L18.9517 19.6402C19.9105 19.9967 20.5546 20.9238 20.5546 21.9469V23.6485C20.5546 23.8426 20.712 24 20.9062 24C21.1003 24 21.2577 23.8426 21.2577 23.6485V21.9469C21.2578 20.6314 20.4296 19.4396 19.197 18.9811ZM12 23.2969C11.6534 23.2969 11.3714 23.0149 11.3714 22.6683C11.3714 22.3217 11.6534 22.0397 12 22.0397C12.3466 22.0397 12.6286 22.3217 12.6286 22.6683C12.6286 23.0149 12.3466 23.2969 12 23.2969ZM5.96625 6.73688C5.96625 3.40988 8.67295 0.703125 12 0.703125C15.327 0.703125 18.0337 3.40988 18.0337 6.73688C18.0337 8.50252 17.2625 10.164 15.9422 11.304V9.91936C16.6683 9.02063 17.0676 7.89628 17.0676 6.73683C17.0676 6.04537 16.9308 5.37502 16.6609 4.74441C16.5845 4.56586 16.3778 4.48317 16.1994 4.55953C16.0209 4.63589 15.9381 4.84256 16.0145 5.02106C16.2467 5.56378 16.3645 6.14105 16.3645 6.73688C16.3645 7.44272 16.1927 8.13356 15.8715 8.75133C15.742 8.07684 15.4376 7.44394 14.9885 6.92081C15.2354 6.69356 15.375 6.37542 15.375 6.04078C15.375 5.50697 15.0232 5.05387 14.5393 4.90088C14.6258 4.73344 14.6719 4.54688 14.6719 4.35328C14.6719 3.69417 14.1357 3.15797 13.4766 3.15797H13.357V2.58769C14.0502 2.81297 14.6738 3.20817 15.1825 3.74995C15.3156 3.8917 15.5381 3.89827 15.6794 3.76556C15.821 3.63267 15.828 3.41016 15.695 3.26864C14.9846 2.51213 14.081 2.00147 13.0752 1.78477C13.0194 1.72261 12.9565 1.66617 12.8867 1.61733L12.3088 1.21317C12.1241 1.08408 11.8758 1.08408 11.691 1.21322L11.1131 1.61728C11.0431 1.66622 10.98 1.72284 10.9242 1.78519C8.60325 2.28605 6.9322 4.34644 6.9322 6.73683C6.9322 7.8967 7.33158 9.02072 8.05758 9.91852V11.3039C6.73748 10.164 5.96625 8.50256 5.96625 6.73688ZM16.0467 13.4578C16.2855 13.4578 16.5142 13.394 16.7134 13.2748C16.8226 13.3956 16.8858 13.5542 16.8858 13.7217C16.8858 14.0895 16.5866 14.3888 16.2187 14.3888C16.0918 14.3888 15.9716 14.3533 15.8675 14.2882C15.9187 14.0228 15.948 13.7377 15.9423 13.4578H16.0467ZM15.9423 12.7547V12.1997C16.1344 12.0609 16.3177 11.9127 16.4924 11.7564C16.5894 11.8639 16.6453 12.0045 16.6453 12.156C16.6453 12.3161 16.5831 12.4662 16.4695 12.5795C16.3569 12.6925 16.2067 12.7546 16.0467 12.7546H15.9423V12.7547ZM7.95328 13.4578H8.05777C8.04811 13.7295 8.08223 14.0281 8.13258 14.2882C8.02847 14.3533 7.90828 14.3888 7.7813 14.3888C7.41347 14.3888 7.11426 14.0895 7.11426 13.7217C7.11426 13.5542 7.1775 13.3956 7.28667 13.2747C7.48598 13.3941 7.71464 13.4578 7.95328 13.4578ZM7.35469 12.1561C7.35469 12.0046 7.41061 11.8639 7.50764 11.7564C7.68225 11.9127 7.86558 12.0609 8.05772 12.1997V12.7547H7.95323C7.7932 12.7547 7.64306 12.6925 7.52977 12.579C7.41689 12.4663 7.35469 12.3161 7.35469 12.1561ZM8.12855 8.75123C7.80727 8.13384 7.63552 7.44305 7.63552 6.73688C7.63552 4.82878 8.87123 3.16448 10.643 2.58764V3.15797H10.5235C9.86887 3.15427 9.32817 3.70111 9.32817 4.35328C9.32817 4.55034 9.37641 4.73625 9.4612 4.90027C8.96995 5.05266 8.625 5.5253 8.625 6.04078C8.625 6.38841 8.77425 6.70172 9.01191 6.92034C8.56261 7.44356 8.25806 8.07661 8.12855 8.75123ZM13.4766 3.86109C13.748 3.86109 13.9687 4.08188 13.9687 4.35328C13.9687 4.61986 13.7437 4.84683 13.4766 4.84547H12.724L12.3811 4.50262C12.171 4.29253 11.829 4.29253 11.6188 4.50267L11.276 4.84547H10.5234C10.252 4.84547 10.0312 4.62469 10.0312 4.35328C10.0312 4.08525 10.2554 3.85983 10.5234 3.86109H13.4766ZM11.3461 3.15783V2.52009C11.3461 2.39011 11.4097 2.26805 11.5162 2.19356L12 1.85522L12.4838 2.19352C12.5903 2.268 12.6539 2.39006 12.6539 2.52005V3.15778H11.3461V3.15783ZM13.4271 5.54859H14.1797C14.4511 5.54859 14.6719 5.76937 14.6719 6.04078C14.6719 6.30736 14.4469 6.53433 14.1797 6.53297H13.2487L13.4489 6.33277C13.5507 6.23095 13.6068 6.09553 13.6068 5.95153C13.6068 5.79698 13.5412 5.65275 13.4271 5.54859ZM12.8357 5.95158L12.1522 6.63502C12.1516 6.63567 12.1509 6.63633 12.1503 6.63698L12 6.78727L11.8496 6.63689C11.849 6.63628 11.8484 6.63562 11.8477 6.63502L11.1643 5.95148L12 5.11584L12.8357 5.95158ZM10.5511 6.33272L10.7513 6.53297H9.82031C9.54891 6.53297 9.32812 6.31219 9.32812 6.04078C9.32812 5.77275 9.55228 5.54733 9.82031 5.54859H10.5729C10.4608 5.65772 10.3932 5.79352 10.3932 5.95153C10.3932 6.09558 10.4493 6.23095 10.5511 6.33272ZM8.76094 9.49078C8.76094 8.64553 9.09502 7.83052 9.68283 7.22794C9.72797 7.23314 9.77381 7.23609 9.82031 7.23609H11.4545L11.6188 7.40044C11.6188 7.40044 11.6188 7.40044 11.6189 7.40048C11.724 7.50553 11.862 7.55803 12 7.55803C12.138 7.55803 12.276 7.50548 12.3811 7.40044L12.5455 7.23609H14.1797C14.226 7.23609 14.2719 7.23319 14.3172 7.22798C14.905 7.83056 15.2391 8.64553 15.2391 9.49078V9.98784L14.8436 9.83278C13.0099 9.11484 10.9901 9.11484 9.15614 9.83283L8.76089 9.9878V9.49078H8.76094ZM9.2782 17.3161L6.22125 18.4535C6.20002 18.3897 6.1763 18.3318 6.15492 18.2798C6.08048 18.099 6.05245 18.0196 6.10777 17.868C6.1628 17.7167 6.23541 17.6738 6.40884 17.5831C6.61373 17.4759 6.89433 17.3291 7.0447 16.9156C7.19541 16.5018 7.07494 16.209 6.98695 15.9952C6.91252 15.8143 6.88448 15.7349 6.9397 15.5834C6.99487 15.4319 7.06748 15.389 7.24102 15.2983C7.34559 15.2437 7.467 15.18 7.58175 15.0772C7.64691 15.0867 7.71347 15.0918 7.78125 15.0918C7.97334 15.0918 8.16192 15.0507 8.33489 14.9743C8.60883 15.6645 9.07153 16.2599 9.66 16.6954C9.675 16.959 9.53761 17.2224 9.2782 17.3161ZM13.9566 17.8852C13.9566 18.5071 13.6185 19.0804 13.0742 19.3813L11.9981 19.977L10.9218 19.3812C10.3777 19.0804 10.0396 18.5072 10.0396 17.8852V17.618C10.1721 17.4673 10.2691 17.2869 10.3205 17.0909C10.8304 17.332 11.3995 17.4675 12 17.4675C12.6004 17.4675 13.1695 17.332 13.6794 17.0909C13.7303 17.2851 13.826 17.4639 13.9565 17.6138V17.8852H13.9566ZM12 16.7643C10.2139 16.7643 8.76084 15.3112 8.76084 13.5252V10.7431L9.41269 10.4875C11.0811 9.83428 12.9188 9.83428 14.5871 10.4875L15.2391 10.7431V13.5252C15.2392 15.3112 13.7861 16.7643 12 16.7643ZM17.8451 18.2798C17.8237 18.3318 17.8 18.3896 17.7788 18.4535L14.7217 17.316C14.6505 17.2896 14.5865 17.2499 14.5323 17.2004C14.5321 17.2003 14.532 17.2001 14.5318 17.2C14.3887 17.0791 14.3253 16.8859 14.34 16.6955C14.9285 16.26 15.3913 15.6646 15.6652 14.9743C15.8381 15.0508 16.0267 15.0919 16.2188 15.0919C16.2866 15.0919 16.3531 15.0868 16.4183 15.0772C16.533 15.18 16.6545 15.2437 16.759 15.2984C16.9326 15.3891 17.0051 15.4319 17.0604 15.5835C17.1156 15.7349 17.0875 15.8143 17.0131 15.9952C16.9251 16.209 16.8046 16.5018 16.9553 16.9155C17.1057 17.3291 17.3864 17.4759 17.5912 17.583C17.7647 17.6738 17.8373 17.7167 17.8925 17.8683C17.9475 18.0195 17.9196 18.099 17.8451 18.2798ZM6.60937 21.9681C6.41522 21.9681 6.25781 22.1255 6.25781 22.3196V23.6484C6.25781 23.8426 6.41522 24 6.60937 24C6.80353 24 6.96094 23.8426 6.96094 23.6484V22.3196C6.96094 22.1255 6.80353 21.9681 6.60937 21.9681ZM12.3862 14.9488C12.2839 15.004 12.1743 15.0363 12.0606 15.0447C11.8668 15.059 11.7099 15.0001 11.6124 14.9481C11.4412 14.8567 11.2282 14.9214 11.1367 15.0928C11.0453 15.264 11.1101 15.477 11.2815 15.5684C11.4421 15.6541 11.6911 15.75 12.0009 15.75C12.2507 15.75 12.498 15.6874 12.72 15.5677C12.8909 15.4755 12.9547 15.2623 12.8626 15.0914C12.7703 14.9205 12.557 14.8567 12.3862 14.9488ZM11.4563 12.4191C11.3641 12.2482 11.1509 12.1843 10.98 12.2765C10.8776 12.3317 10.7681 12.3639 10.6544 12.3724C10.4606 12.3867 10.3037 12.3278 10.2061 12.2757C10.0349 12.1844 9.82191 12.2491 9.7305 12.4204C9.63909 12.5917 9.70387 12.8047 9.8752 12.8961C10.0358 12.9818 10.2848 13.0777 10.5946 13.0777C10.8445 13.0777 11.0917 13.0151 11.3137 12.8954C11.4846 12.8033 11.5485 12.59 11.4563 12.4191ZM13.7925 12.2765C13.6901 12.3317 13.5806 12.3639 13.4669 12.3724C13.2732 12.3867 13.1162 12.3278 13.0186 12.2757C12.8474 12.1844 12.6344 12.2491 12.543 12.4204C12.4516 12.5917 12.5164 12.8047 12.6877 12.8961C12.8483 12.9818 13.0973 13.0777 13.4071 13.0777C13.6569 13.0777 13.9042 13.0151 14.1262 12.8954C14.2971 12.8032 14.361 12.59 14.2688 12.4191C14.1767 12.2482 13.9634 12.1843 13.7925 12.2765ZM12 12C12.4988 12 12.9046 11.5942 12.9046 11.0954V10.6845C12.9046 10.4903 12.7472 10.3329 12.553 10.3329C12.3589 10.3329 12.2015 10.4903 12.2015 10.6845V11.0954C12.2015 11.2065 12.1111 11.2969 12 11.2969C11.8889 11.2969 11.7985 11.2065 11.7985 11.0954V10.6845C11.7985 10.4903 11.6411 10.3329 11.447 10.3329C11.2528 10.3329 11.0954 10.4903 11.0954 10.6845V11.0954C11.0954 11.5942 11.5012 12 12 12Z" fill="#767676"/>
</g>
<defs>
<clipPath id="clip0_136_996">
<rect width="24" height="24" fill="white"/>
</clipPath>
</defs>
</svg>
