<svg width="24" height="24" viewBox="0 0 24 24" fill="none" xmlns="http://www.w3.org/2000/svg">
<g clip-path="url(#clip0_111_1099)">
<path d="M20.4918 3.52087C20.3546 3.38339 20.132 3.3832 19.9946 3.52036C19.8572 3.65752 19.857 3.88013 19.9941 4.01752C20.6145 4.63912 21.153 5.32055 21.6057 6.04814L18.5775 7.79648C17.9669 6.84441 17.1555 6.033 16.2034 5.42245L17.9513 2.39508C18.3028 2.61417 18.6446 2.85337 18.9752 3.11325C19.1279 3.2332 19.3489 3.20672 19.4689 3.05409C19.5889 2.90147 19.5624 2.68041 19.4097 2.56045C17.2787 0.885422 14.7165 0 12 0C8.79473 0 5.78128 1.24823 3.51473 3.51473C1.24823 5.78128 0 8.79473 0 12C0 15.2053 1.24823 18.2187 3.51473 20.4853C5.78128 22.7518 8.79473 24 12 24C15.2053 24 18.2187 22.7518 20.4853 20.4853C22.7518 18.2187 24 15.2053 24 12C24 8.79895 22.7541 5.78766 20.4918 3.52087ZM16.9502 11.6484C16.9062 11.0227 16.7443 10.4039 16.4649 9.82814L18.3205 8.75681C18.7711 9.63141 19.0454 10.611 19.0962 11.6484H16.9502ZM15.0124 8.98523C15.0128 8.98566 15.013 8.98622 15.0135 8.98664C15.3828 9.35573 15.5862 9.84661 15.5862 10.3688C15.5862 10.891 15.3827 11.382 15.0134 11.7514C14.6441 12.1208 14.1531 12.3241 13.631 12.3241C13.1089 12.3241 12.618 12.1208 12.2486 11.7514C11.5307 11.0335 10.4474 10.7865 9.48853 11.1221C9.3053 11.1863 9.20873 11.3868 9.27291 11.5701C9.33703 11.7533 9.53761 11.85 9.72089 11.7857C10.4262 11.5387 11.2233 11.7204 11.7514 12.2486C12.2535 12.7507 12.9211 13.0273 13.631 13.0273C14.3409 13.0273 15.0085 12.7508 15.5107 12.2486C15.8233 11.936 16.0484 11.5592 16.1738 11.148C16.4481 12.5025 16.0619 13.9653 15.0136 15.0136C14.1826 15.8445 13.0915 16.26 12 16.2599C10.9093 16.2598 9.81825 15.8447 8.98767 15.0148C8.98725 15.0144 8.98702 15.0139 8.98659 15.0135C8.96775 14.9946 8.94956 14.9754 8.93166 14.956C8.92913 14.9534 8.92664 14.9507 8.92411 14.948C8.3018 14.2669 8.23678 13.2492 8.77856 12.4936C8.89172 12.3359 8.85553 12.1162 8.69775 12.0031C8.53992 11.8899 8.32027 11.9261 8.2072 12.0839C8.03541 12.3235 7.90889 12.5825 7.82592 12.8505C7.55217 11.4964 7.93856 10.0343 8.98641 8.98636C9.81727 8.1555 10.9087 7.74009 12 7.74009C13.0909 7.74005 14.1817 8.15512 15.0124 8.98523ZM12.3516 7.04967V4.90378C13.389 4.95459 14.3686 5.22891 15.2432 5.67952L14.1719 7.53511C13.5961 7.25564 12.9773 7.09369 12.3516 7.04967ZM11.6484 4.20019C10.4833 4.25208 9.38377 4.56047 8.40506 5.07028L6.65625 2.04122C8.17922 1.22142 9.87891 0.762844 11.6484 0.709078V4.20019ZM11.6484 4.90373V7.04967C11.0227 7.09369 10.4039 7.25564 9.82814 7.53506L8.75681 5.67947C9.63141 5.22886 10.611 4.95455 11.6484 4.90373ZM9.21914 7.88653C8.9617 8.06072 8.71692 8.26134 8.48916 8.48916C8.26139 8.71692 8.06072 8.9617 7.88658 9.21914L6.0322 8.14852C6.58003 7.30256 7.30261 6.57998 8.14856 6.03216L9.21914 7.88653ZM7.53506 9.82814C7.25564 10.4039 7.09369 11.0227 7.04967 11.6484H4.90373C4.95455 10.611 5.22881 9.63141 5.67942 8.75681L7.53506 9.82814ZM4.20019 11.6484H0.709078C0.762844 9.87891 1.22142 8.17922 2.04122 6.65625L5.07023 8.40506C4.56047 9.38377 4.25208 10.4833 4.20019 11.6484ZM4.20019 12.3516C4.25208 13.5167 4.56052 14.6162 5.07028 15.5949L2.04127 17.3438C1.22142 15.8208 0.762844 14.1211 0.709125 12.3516H4.20019ZM4.90378 12.3516H7.04972C7.09373 12.9773 7.25569 13.5961 7.53511 14.1719L5.67952 15.2432C5.22891 14.3685 4.95459 13.389 4.90378 12.3516ZM7.88663 14.7808C8.06081 15.0382 8.26139 15.283 8.48916 15.5107C8.71697 15.7386 8.96175 15.9392 9.21919 16.1134L8.14856 17.9678C7.30266 17.4199 6.58003 16.6973 6.0322 15.8514L7.88663 14.7808ZM9.82819 16.4648C10.4039 16.7443 11.0227 16.9062 11.6484 16.9502V19.0961C10.611 19.0454 9.63145 18.771 8.75686 18.3204L9.82819 16.4648ZM11.6484 19.7997V23.2909C9.87895 23.2372 8.17922 22.7786 6.65625 21.9588L8.40511 18.9297C9.38381 19.4394 10.4833 19.7478 11.6484 19.7997ZM12.3516 19.7997C13.5167 19.7478 14.6162 19.4394 15.5949 18.9296L17.3438 21.9588C15.8208 22.7786 14.121 23.2372 12.3516 23.2909V19.7997ZM12.3516 19.0961V16.9502C12.9773 16.9062 13.5961 16.7442 14.1718 16.4648L15.2431 18.3204C14.3685 18.771 13.389 19.0453 12.3516 19.0961ZM14.7808 16.1133C15.0382 15.9391 15.283 15.7385 15.5107 15.5107C15.7385 15.283 15.9391 15.0382 16.1133 14.7808L17.9677 15.8514C17.4199 16.6973 16.6973 17.4199 15.8514 17.9678L14.7808 16.1133ZM16.4648 14.1718C16.7443 13.5961 16.9062 12.9773 16.9502 12.3516H19.0962C19.0454 13.389 18.771 14.3685 18.3204 15.2431L16.4648 14.1718ZM19.7998 12.3516H23.2909C23.2372 14.1211 22.7786 15.8208 21.9588 17.3438L18.9297 15.5949C19.4394 14.6162 19.7478 13.5167 19.7998 12.3516ZM21.9585 6.65639C22.7784 8.17974 23.2371 9.87942 23.2909 11.6484H19.7997C19.7478 10.4833 19.4394 9.38381 18.9297 8.40506L21.9585 6.65639ZM17.9678 8.14856L16.1134 9.21919C15.9392 8.9617 15.7386 8.71692 15.5107 8.48916C15.283 8.26139 15.0382 8.06077 14.7808 7.88658L15.8514 6.0322C16.6974 6.58003 17.42 7.30261 17.9678 8.14856ZM15.5949 5.07028C14.6162 4.56047 13.5167 4.25208 12.3516 4.20019V0.708984C14.1209 0.762141 15.814 1.21645 17.3433 2.04192L15.5949 5.07028ZM4.01194 4.01194C4.63495 3.38892 5.31825 2.84836 6.04814 2.39419L7.79648 5.42245C6.84445 6.033 6.033 6.84445 5.42245 7.79653L2.39419 6.04814C2.84836 5.31825 3.38897 4.63495 4.01194 4.01194ZM2.39419 17.9519L5.4225 16.2034C6.03305 17.1555 6.8445 17.9669 7.79653 18.5775L6.04809 21.6058C5.3182 21.1516 4.63491 20.611 4.01189 19.988C3.38888 19.365 2.84836 18.6817 2.39419 17.9519ZM19.9881 19.9881C19.365 20.6111 18.6817 21.1517 17.9519 21.6059L16.2034 18.5775C17.1555 17.9669 17.9669 17.1555 18.5775 16.2035L21.6058 17.9519C21.1516 18.6817 20.6111 19.365 19.9881 19.9881Z" fill="#767676"/>
<path d="M13.6311 11.808C14.0155 11.808 14.3769 11.6583 14.6488 11.3865C15.21 10.8253 15.21 9.91222 14.6488 9.35104C14.3769 9.07916 14.0155 8.92944 13.6311 8.92944C13.2466 8.92944 12.8851 9.07916 12.6134 9.35104C12.3415 9.62287 12.1918 9.98432 12.1918 10.3687C12.1918 10.7532 12.3415 11.1146 12.6133 11.3864C12.8852 11.6583 13.2466 11.808 13.6311 11.808ZM13.1105 9.84819C13.2496 9.70916 13.4344 9.63257 13.631 9.63257C13.8276 9.63257 14.0125 9.70916 14.1515 9.84819C14.4385 10.1352 14.4385 10.6023 14.1516 10.8893C14.0125 11.0283 13.8276 11.1049 13.631 11.1049C13.4344 11.1049 13.2495 11.0284 13.1105 10.8893C12.9714 10.7503 12.8949 10.5654 12.8949 10.3687C12.8949 10.1721 12.9715 9.98722 13.1105 9.84819Z" fill="#767676"/>
<path d="M9.35115 14.6487C9.63174 14.9293 10.0003 15.0696 10.3689 15.0696C10.7374 15.0696 11.106 14.9293 11.3866 14.6487C11.9477 14.0875 11.9477 13.1745 11.3866 12.6133C10.8254 12.0521 9.91229 12.0521 9.3511 12.6133C8.78992 13.1745 8.78996 14.0875 9.35115 14.6487ZM9.84831 13.1104C9.99184 12.9669 10.1803 12.8952 10.3689 12.8952C10.5574 12.8952 10.7459 12.9669 10.8894 13.1104C11.1764 13.3975 11.1764 13.8645 10.8894 14.1515C10.6024 14.4385 10.1353 14.4385 9.84831 14.1515C9.56129 13.8645 9.56129 13.3975 9.84831 13.1104Z" fill="#767676"/>
<path d="M8.41076 3.10867C8.55017 3.62884 9.02234 3.97276 9.53698 3.97276C9.63654 3.97276 9.73775 3.95987 9.83839 3.93292C10.1391 3.85234 10.3905 3.65945 10.5462 3.38978C10.7019 3.12015 10.7432 2.806 10.6626 2.50525C10.4963 1.88439 9.85564 1.51455 9.23496 1.681C8.6142 1.8474 8.2444 2.48781 8.41076 3.10867ZM9.41698 2.36017C9.45696 2.34944 9.49704 2.34437 9.53661 2.34437C9.74079 2.34437 9.9282 2.48087 9.98351 2.68722C10.0495 2.93359 9.90279 3.1877 9.65646 3.2537C9.41009 3.3198 9.15593 3.17298 9.08998 2.92665C9.02393 2.68033 9.17065 2.42617 9.41698 2.36017Z" fill="#767676"/>
<path d="M15.5892 20.8913C15.5086 20.5906 15.3157 20.3392 15.0461 20.1835C14.7765 20.0279 14.4625 19.9865 14.1616 20.0671C13.8608 20.1476 13.6095 20.3405 13.4538 20.6102C13.2981 20.8798 13.2567 21.194 13.3374 21.4947C13.4179 21.7954 13.6108 22.0468 13.8805 22.2025C14.0601 22.3062 14.2594 22.3592 14.4614 22.3592C14.5627 22.3592 14.6646 22.3459 14.765 22.319C15.3858 22.1526 15.7556 21.5121 15.5892 20.8913ZM14.583 21.6398C14.3368 21.706 14.0825 21.559 14.0165 21.3127C13.9845 21.1934 14.001 21.0687 14.0627 20.9617C14.1245 20.8548 14.2242 20.7782 14.3436 20.7462C14.3834 20.7355 14.4238 20.7303 14.464 20.7303C14.5442 20.7303 14.6232 20.7513 14.6945 20.7925C14.8015 20.8542 14.8781 20.9539 14.9101 21.0733C14.9761 21.3197 14.8293 21.5738 14.583 21.6398Z" fill="#767676"/>
<path d="M5.27018 6.43525C5.56868 6.43525 5.86718 6.32162 6.09443 6.09437C6.54893 5.63987 6.54893 4.90037 6.09443 4.44587C5.63998 3.99137 4.90043 3.99133 4.44598 4.44587C3.99148 4.90037 3.99148 5.63987 4.44598 6.09437C4.67318 6.32162 4.97168 6.43525 5.27018 6.43525ZM4.94313 4.94308C5.03332 4.85294 5.15177 4.80784 5.27023 4.80784C5.38863 4.80784 5.50709 4.85294 5.59727 4.94308C5.7776 5.12345 5.7776 5.41684 5.59727 5.59722C5.4169 5.77754 5.12351 5.77754 4.94313 5.59722C4.76281 5.41684 4.76281 5.1234 4.94313 4.94308Z" fill="#767676"/>
<path d="M19.554 17.9055C19.0995 17.4511 18.3599 17.4511 17.9055 17.9055C17.451 18.36 17.451 19.0995 17.9055 19.554C18.1327 19.7813 18.4312 19.8949 18.7297 19.8949C19.0282 19.8949 19.3267 19.7812 19.554 19.554C20.0085 19.0995 20.0085 18.36 19.554 17.9055ZM19.0569 19.0568C18.8764 19.2372 18.5831 19.2372 18.4027 19.0568C18.2224 18.8765 18.2224 18.583 18.4027 18.4027C18.4929 18.3126 18.6113 18.2675 18.7298 18.2675C18.8482 18.2675 18.9667 18.3126 19.0569 18.4027C19.2372 18.5831 19.2372 18.8765 19.0569 19.0568Z" fill="#767676"/>
<path d="M1.68096 9.23504C1.60038 9.53579 1.64177 9.8499 1.79739 10.1196C1.95306 10.3892 2.20446 10.5821 2.50521 10.6627C2.60566 10.6896 2.70752 10.7029 2.80882 10.7029C3.0108 10.7029 3.21016 10.6499 3.38974 10.5462C3.65936 10.3906 3.85225 10.1392 3.93283 9.83842C4.01346 9.53767 3.97206 9.22351 3.81639 8.95389C3.66072 8.68426 3.40933 8.49137 3.10858 8.41079C2.80783 8.33026 2.49367 8.37161 2.22405 8.52723C1.95442 8.6829 1.76158 8.93429 1.68096 9.23504ZM2.36017 9.41701C2.39214 9.29767 2.46869 9.19792 2.57566 9.13618C2.64696 9.09503 2.72603 9.07398 2.80619 9.07398C2.84636 9.07398 2.88681 9.07928 2.92666 9.08996C3.046 9.12193 3.14575 9.19848 3.20753 9.30545C3.26932 9.41246 3.28572 9.53706 3.25371 9.65645C3.22174 9.77579 3.14519 9.87554 3.03822 9.93732C2.93125 9.99911 2.80661 10.0155 2.68722 9.9835C2.56788 9.95153 2.46813 9.87503 2.40639 9.76801C2.34461 9.661 2.32816 9.53636 2.36017 9.41701Z" fill="#767676"/>
<path d="M22.319 14.7648C22.4854 14.1439 22.1156 13.5035 21.4948 13.3371C21.1941 13.2565 20.8799 13.2979 20.6102 13.4536C20.3406 13.6093 20.1477 13.8606 20.0671 14.1614C19.9008 14.7823 20.2705 15.4227 20.8913 15.5891C20.992 15.616 21.0931 15.6289 21.1927 15.6289C21.7073 15.6289 22.1796 15.2849 22.319 14.7648ZM20.7463 14.3434C20.7783 14.2241 20.8548 14.1243 20.9618 14.0625C21.0331 14.0214 21.1122 14.0004 21.1923 14.0004C21.2324 14.0004 21.2729 14.0057 21.3127 14.0163C21.5591 14.0823 21.7059 14.3365 21.6399 14.5828C21.5738 14.8291 21.3195 14.9759 21.0734 14.9098C20.827 14.8438 20.6803 14.5897 20.7463 14.3434Z" fill="#767676"/>
<path d="M2.22412 15.4728C2.40375 15.5765 2.60306 15.6294 2.80509 15.6294C2.90634 15.6294 3.00825 15.6161 3.10865 15.5892C3.40945 15.5086 3.66079 15.3157 3.81646 15.0461C3.97214 14.7764 4.01353 14.4623 3.9329 14.1616C3.85232 13.8608 3.65943 13.6094 3.38981 13.4538C3.12018 13.2981 2.80607 13.2568 2.50528 13.3373C2.20453 13.4179 1.95314 13.6108 1.79746 13.8804C1.64179 14.1501 1.60045 14.4642 1.68103 14.765C1.76161 15.0657 1.95445 15.3171 2.22412 15.4728ZM2.68725 14.0166C2.72714 14.0059 2.76754 14.0006 2.80771 14.0006C2.88782 14.0006 2.96695 14.0216 3.0382 14.0627C3.14521 14.1245 3.22171 14.2243 3.25368 14.3436C3.2857 14.4629 3.26929 14.5876 3.20751 14.6946C3.14573 14.8016 3.04598 14.8781 2.92664 14.9101C2.80725 14.9421 2.68261 14.9257 2.57564 14.8639C2.46867 14.8021 2.39212 14.7024 2.36015 14.583C2.29415 14.3367 2.44087 14.0825 2.68725 14.0166Z" fill="#767676"/>
<path d="M20.0672 9.83834C20.1477 10.1391 20.3406 10.3905 20.6102 10.5462C20.7899 10.6498 20.9892 10.7028 21.1912 10.7028C21.2924 10.7028 21.3944 10.6895 21.4948 10.6626C21.7956 10.582 22.0469 10.3891 22.2026 10.1195C22.3584 9.84987 22.3997 9.53572 22.3191 9.23492C22.1527 8.61415 21.5123 8.24431 20.8914 8.41072C20.5907 8.49129 20.3393 8.68418 20.1836 8.95381C20.0279 9.22348 19.9865 9.53759 20.0672 9.83834ZM20.7925 9.30537C20.8542 9.19836 20.954 9.12186 21.0733 9.08989C21.3196 9.02379 21.5738 9.17065 21.6399 9.41694C21.6718 9.53628 21.6554 9.66092 21.5936 9.76789C21.5319 9.8749 21.4321 9.95145 21.3128 9.98342C21.1934 10.0153 21.0688 9.99898 20.9618 9.9372C20.8548 9.87542 20.7783 9.77567 20.7463 9.65633C20.7143 9.53703 20.7307 9.41239 20.7925 9.30537Z" fill="#767676"/>
<path d="M6.09444 19.5539C6.31462 19.3337 6.43588 19.041 6.43588 18.7296C6.43588 18.4182 6.31462 18.1255 6.09444 17.9054C5.63999 17.4508 4.90044 17.4508 4.44599 17.9054C4.22582 18.1255 4.10455 18.4183 4.10455 18.7296C4.10455 19.041 4.22577 19.3337 4.44599 19.5539C4.67324 19.7811 4.97174 19.8947 5.27019 19.8947C5.56869 19.8947 5.86719 19.7812 6.09444 19.5539ZM4.80768 18.7296C4.80768 18.6061 4.85577 18.4899 4.94315 18.4026C5.03333 18.3124 5.15174 18.2673 5.27019 18.2673C5.38865 18.2673 5.5071 18.3124 5.59729 18.4026C5.68466 18.4899 5.73276 18.6061 5.73276 18.7297C5.73276 18.8532 5.68466 18.9694 5.59729 19.0568C5.41691 19.2371 5.12352 19.2371 4.94315 19.0568C4.85577 18.9693 4.80768 18.8532 4.80768 18.7296Z" fill="#767676"/>
<path d="M17.9055 4.44584C17.451 4.90034 17.451 5.63984 17.9055 6.09434C18.1327 6.32159 18.4312 6.43517 18.7297 6.43517C19.0282 6.43517 19.3267 6.32154 19.554 6.09434C20.0085 5.63984 20.0085 4.90034 19.554 4.44584C19.0995 3.99134 18.36 3.99138 17.9055 4.44584ZM19.0568 4.94304C19.2372 5.12337 19.2372 5.41685 19.0569 5.59718C18.8764 5.77751 18.5831 5.77756 18.4027 5.59718C18.2224 5.41685 18.2224 5.12337 18.4027 4.94304C18.5831 4.76267 18.8765 4.76271 19.0568 4.94304Z" fill="#767676"/>
<path d="M9.23501 22.3189C9.3357 22.3458 9.43681 22.3587 9.53642 22.3587C10.0511 22.3587 10.5233 22.0148 10.6626 21.4946C10.7432 21.1938 10.7018 20.8797 10.5462 20.61C10.3905 20.3404 10.1391 20.1475 9.83839 20.0669C9.21739 19.9007 8.57712 20.2703 8.41076 20.8912C8.2444 21.512 8.6142 22.1525 9.23501 22.3189ZM9.08989 21.0732C9.15593 20.8268 9.41023 20.6801 9.65642 20.7461C9.90275 20.8121 10.0495 21.0662 9.98346 21.3126C9.91742 21.5589 9.66326 21.7055 9.41698 21.6397C9.17065 21.5737 9.02393 21.3195 9.08989 21.0732Z" fill="#767676"/>
<path d="M13.4538 3.38967C13.6094 3.6593 13.8608 3.85219 14.1616 3.93276C14.262 3.95967 14.3639 3.97298 14.4652 3.97298C14.6672 3.97298 14.8665 3.92001 15.0461 3.81633C15.3158 3.66065 15.5087 3.40926 15.5892 3.10851C15.7556 2.4877 15.3859 1.84725 14.765 1.68084C14.4642 1.60026 14.1502 1.64161 13.8805 1.79733C13.6109 1.953 13.418 2.20439 13.3374 2.50514C13.2567 2.80589 13.298 3.12005 13.4538 3.38967ZM14.0165 2.68715C14.0719 2.48072 14.2592 2.34426 14.4634 2.34426C14.5029 2.34426 14.543 2.34937 14.583 2.36006C14.8293 2.42611 14.9761 2.68022 14.9101 2.92659C14.8781 3.04594 14.8016 3.14569 14.6945 3.20742C14.5875 3.26915 14.4629 3.28561 14.3436 3.25364C14.2242 3.22167 14.1245 3.14512 14.0627 3.03815C14.0009 2.93114 13.9845 2.8065 14.0165 2.68715Z" fill="#767676"/>
</g>
<defs>
<clipPath id="clip0_111_1099">
<rect width="24" height="24" fill="white"/>
</clipPath>
</defs>
</svg>
