<?xml version="1.0" encoding="utf-8"?><svg viewBox="0 0 320 60" xmlns="http://www.w3.org/2000/svg" xmlns:xlink="http://www.w3.org/1999/xlink"><style>:root>svg{display:none}:root>svg:target{display:block}</style><svg  viewBox="0 0 13 9" id="aquarius" xmlns="http://www.w3.org/2000/svg"><path d="M1.029 1.961c.216-.195.474-.39.782-.51.153-.055.314-.09.481-.097.16 0 .293.035.419.126.125.09.244.237.363.418.118.182.237.398.383.635.147.23.335.489.622.691.146.098.314.175.495.217.175.042.356.042.523.02.042 0 .084-.013.133-.02.042-.007.105-.028.147-.042.09-.035.174-.077.258-.119.16-.098.3-.216.412-.335.23-.244.397-.481.565-.677.167-.195.32-.328.488-.404.154-.07.384-.098.468-.056.118.035.279.181.44.363.16.181.327.397.544.607.111.097.237.202.39.272.043.02.077.035.12.049.02.007.048.014.07.02l.048.015c.063.014.132.02.195.035.265.034.524.013.768-.05a2.32 2.32 0 0 0 1.144-.725c.273-.314.454-.642.587-.935.132-.293.209-.559.265-.775.104-.44.112-.684.119-.684 0 0-.07.238-.252.628-.09.196-.216.426-.377.67a3.61 3.61 0 0 1-.642.726c-.265.216-.593.39-.949.426-.174.02-.363 0-.551-.042l-.14-.042-.034-.014h-.014c-.007 0-.028-.014-.042-.02a.985.985 0 0 1-.189-.168c-.132-.154-.272-.356-.446-.587a3.219 3.219 0 0 0-.3-.349 1.584 1.584 0 0 0-.454-.314 1.054 1.054 0 0 0-.3-.076C7.519.838 7.456.83 7.42.83h-.125a1.773 1.773 0 0 0-.524.118c-.342.14-.62.398-.83.642-.21.245-.377.482-.53.65-.161.174-.287.258-.433.285a.659.659 0 0 1-.468-.062c-.146-.084-.293-.238-.432-.419-.14-.181-.287-.39-.447-.6-.16-.203-.356-.412-.614-.545A1.159 1.159 0 0 0 2.236.79a1.861 1.861 0 0 0-.607.23c-.363.21-.607.496-.795.74-.189.251-.328.474-.447.656-.23.363-.37.558-.37.558s.181-.146.482-.46c.146-.154.328-.342.544-.538l-.014-.014ZM11.615 6.58a3.604 3.604 0 0 1-.642.726c-.265.217-.593.391-.949.426-.174.021-.363 0-.551-.042l-.14-.042-.035-.014h-.014c-.006 0-.027-.014-.041-.02a.985.985 0 0 1-.189-.168c-.132-.154-.272-.363-.446-.586a3.219 3.219 0 0 0-.3-.35 1.584 1.584 0 0 0-.454-.313 1.35 1.35 0 0 0-.3-.077c-.049 0-.112-.007-.147-.007h-.125a1.773 1.773 0 0 0-.524.119c-.342.14-.62.397-.83.642-.21.244-.377.481-.53.649-.161.174-.287.258-.433.286a.659.659 0 0 1-.468-.063c-.146-.084-.293-.237-.432-.419-.14-.181-.287-.39-.447-.6-.16-.202-.356-.412-.614-.544a1.159 1.159 0 0 0-.782-.112 1.861 1.861 0 0 0-.607.23c-.363.21-.607.496-.796.74-.188.251-.327.475-.446.656-.23.363-.37.558-.37.558s.181-.153.482-.46c.146-.154.328-.342.544-.537.216-.196.474-.398.781-.51.154-.056.314-.09.482-.098.16 0 .293.035.419.126.125.09.244.237.363.419.118.181.237.398.383.635.147.23.335.488.621.69.147.098.315.175.496.217.174.042.356.042.523.02.042 0 .084-.013.133-.02.042-.007.105-.028.146-.042a1.764 1.764 0 0 0 .67-.46c.23-.238.398-.482.566-.677.167-.196.32-.328.488-.405.154-.07.384-.098.468-.056.118.035.279.181.44.363.16.181.327.398.544.607a1.448 1.448 0 0 0 .51.321c.02.014.048.014.069.021h.049c.063.02.132.035.195.042.265.035.524.014.768-.049a2.32 2.32 0 0 0 1.144-.726c.272-.314.454-.642.587-.935a4.5 4.5 0 0 0 .265-.781c.104-.44.111-.684.118-.684 0 0-.07.237-.25.628-.092.195-.217.425-.378.67l-.014.007Z" /></svg><svg  viewBox="0 0 16 13" id="aries" xmlns="http://www.w3.org/2000/svg"><path d="M14.913 2.329a2.24 2.24 0 0 0-.893-.896 3.298 3.298 0 0 0-1.193-.39 4.584 4.584 0 0 0-1.27-.006 3.822 3.822 0 0 0-1.275.404 3.848 3.848 0 0 0-1.056.83 4.9 4.9 0 0 0-.714 1.042c-.38.727-.592 1.469-.742 2.174-.052.27-.096.527-.131.781a12.12 12.12 0 0 0-.166-.726c-.186-.69-.446-1.405-.863-2.098a5.146 5.146 0 0 0-.772-.98 3.649 3.649 0 0 0-1.106-.735 3.5 3.5 0 0 0-1.304-.268 4.44 4.44 0 0 0-1.258.154c-.4.11-.794.278-1.143.537-.347.253-.625.61-.777.998a2.608 2.608 0 0 0-.164 1.158c.03.365.12.708.247 1.016.254.615.62 1.118 1.033 1.485.413.368.901.618 1.385.598.238-.008.449-.097.606-.216.157-.12.268-.257.348-.38.16-.264.23-.482.27-.637.042-.154.056-.234.056-.234s-.026.073-.091.214c-.065.14-.169.347-.347.559-.179.212-.473.43-.835.391-.36-.03-.745-.277-1.068-.633A3.615 3.615 0 0 1 .926 5.1C.761 4.569.723 3.94.963 3.44c.119-.247.307-.462.548-.63a2.71 2.71 0 0 1 .867-.364c.652-.157 1.377-.15 1.993.116.628.258 1.122.761 1.503 1.337.377.581.648 1.222.86 1.854.41 1.231.61 2.413.748 3.423-.007.012-.002.03 0 .04.02 1.063.103 1.918.165 2.504.063.586.114.914.114.914s.048-.32.101-.911c.05-.586.11-1.44.087-2.496.002-.031-.005-.06-.003-.09.092-1.022.238-2.232.57-3.502.176-.65.409-1.317.756-1.933.344-.61.812-1.156 1.424-1.481.607-.329 1.334-.41 2.006-.337.337.04.652.118.918.255.265.137.478.324.625.555.297.47.32 1.098.21 1.648a3.73 3.73 0 0 1-.635 1.46c-.284.395-.645.687-1.008.76-.357.078-.679-.1-.878-.296-.205-.2-.324-.397-.403-.524-.075-.132-.111-.21-.115-.203 0 0 .02.076.08.223a2.4 2.4 0 0 0 .332.604c.092.118.218.247.386.344.168.098.389.16.623.142.485-.035.95-.34 1.325-.755.379-.42.7-.962.887-1.605.093-.327.152-.68.142-1.05a2.501 2.501 0 0 0-.295-1.14l.017.026Z" /></svg><svg  viewBox="0 0 24 24" id="arrow-timer" xmlns="http://www.w3.org/2000/svg"><path d="m19.175 17.308-.06.08.06-.08Zm0 0c.356.265.43.768.165 1.124a9.15 9.15 0 0 1-.485.598m.32-1.722a.803.803 0 0 0-1.123.165c-.126.169-.26.335-.4.493a.803.803 0 0 0 .07 1.134.8.8 0 0 0 1.133-.07m0 0-.075-.066.075.066ZM19.196 15.22a7.49 7.49 0 0 0 .162-.613l-.162.613Zm0 0a.803.803 0 0 0 .53 1.005m-.53-1.005.53 1.005m0 0a.804.804 0 0 0 1.005-.53m-1.004.53 1.2-1.277m0 0c-.055.25-.12.502-.196.746m.196-.746a.803.803 0 0 0-.614-.955m.614.955-1.57-.341a.803.803 0 0 1 .956-.614m.418 1.701-.096-.03.096.03Zm-.418-1.701-.021.098.021-.098ZM14.714 20.9a.803.803 0 0 1 .402-1.062l-.402 1.063Zm0 0a.803.803 0 0 0 1.063.402l-1.063-.401Zm.969-1.347a7.529 7.529 0 0 1-.567.285l1.35 1.117a.803.803 0 1 0-.783-1.402ZM8.648 15.221a.803.803 0 0 0 1.136 1.136l2.784-2.784a.803.803 0 0 0 .235-.568V7.38a.803.803 0 1 0-1.606 0v5.292l-2.55 2.55Z"   stroke-width=".2"/><path d="M19.494 7.84A9.121 9.121 0 0 0 12 3.906c-2.43 0-4.716.947-6.435 2.665A9.041 9.041 0 0 0 2.9 13.005c0 2.43.947 4.716 2.665 6.435l.071-.071-.07.07A9.041 9.041 0 0 0 12 22.106h.016l.003-.001h.001l-.002-.1a.204.204 0 0 1 .017 0c.254 0 .51-.01.76-.03a.703.703 0 0 0-.117-1.402M19.494 7.84l-7.479 14.263h.02c.256 0 .515-.01.77-.031a.803.803 0 1 0-.135-1.6l.008.099M19.494 7.84V6.22a.803.803 0 0 1 1.606 0v2.074a2.35 2.35 0 0 1-2.35 2.35h-2.146a.803.803 0 1 1 0-1.606h1.755m1.135-1.197-1.135 1.197m-5.68 11.534a7.739 7.739 0 0 1-.644.027h-.017m.66-.027-.66.027m6.34-11.561A7.512 7.512 0 0 0 12 5.51c-4.132 0-7.494 3.362-7.494 7.494S7.868 20.499 12 20.499a.17.17 0 0 1 .016 0h.004l-.002.1m6.34-11.561L12.67 20.472a7.667 7.667 0 0 1-.65.027h-.004s-.001 0 0 0l.002.1"   stroke-width=".2"/></svg><svg  viewBox="0 0 60 60" id="astrowatt-symbol" xmlns="http://www.w3.org/2000/svg"><path fill-rule="evenodd" clip-rule="evenodd" d="M2 39.146 20.854 58h18.077L58 38.93V20.855L39.146 2H20.639L2 20.639v18.507ZM19.81 0h20.164L60 20.026v19.733L39.759 60H20.026L0 39.974V19.81L19.81 0Z" /><path fill-rule="evenodd" clip-rule="evenodd" d="M10.844 13.977v12.7l6.35-6.35-6.35-6.35Zm9.673 9.673L14.167 30l6.198 6.2 6.35-6.351-6.198-6.2Zm9.521 2.876-6.199-6.199L30 14.167l6.2 6.198-6.162 6.161Zm0 6.645-6.35 6.35L30 45.835l6.35-6.35-6.312-6.313Zm9.635 2.99-6.312-6.312 6.16-6.161L45.835 30l-6.16 6.161Zm0 6.645-6.35 6.351h12.701l-6.35-6.35Zm9.484 2.839-6.161-6.161 6.161-6.161v12.322Zm-28.64-28.64-6.161-6.161h12.322l-6.161 6.16Zm19.005.038-6.2-6.2h12.399l-6.2 6.2Zm-28.678 16.28 6.199 6.199-6.2 6.199V33.323Zm9.521 9.521-6.312 6.313h12.625l-6.313-6.313Zm28.792-28.791-6.313 6.312 6.313 6.313V14.053Z" /><path fill-rule="evenodd" clip-rule="evenodd" d="m10.844 26.678 6.35-6.35-6.35-6.351v12.7Zm1-2.414 3.936-3.937-3.936-3.936v7.873ZM14.166 30l6.35-6.35 6.2 6.199-6.35 6.35-6.2-6.199Zm1.415 0 4.784 4.785 4.937-4.936-4.785-4.785L15.58 30Zm14.457-3.474-6.199-6.199L30 14.167l6.2 6.198-6.162 6.161Zm0-1.414 4.747-4.747L30 15.581l-4.746 4.746 4.784 4.785Zm-6.35 14.41 6.35-6.35 6.313 6.312-6.35 6.35-6.313-6.312ZM30 44.42l4.937-4.936-4.899-4.898-4.936 4.936L30 44.42Zm9.673-8.259-6.312-6.312 6.16-6.161L45.835 30l-6.16 6.161Zm0-1.414L44.42 30l-4.898-4.898-4.747 4.747 4.898 4.898Zm-6.35 14.41h12.701l-6.35-6.35-6.351 6.35Zm6.35-4.936-3.936 3.936h7.873l-3.937-3.936Zm9.484 1.424V33.323l-6.161 6.16 6.161 6.162Zm-1-2.414v-7.494l-3.747 3.747 3.747 3.747Zm-27.64-26.226-6.161-6.161h12.322l-6.161 6.16Zm-3.747-5.161h7.494l-3.747 3.747-3.747-3.747Zm22.752 5.199-6.2-6.2h12.399l-6.2 6.2Zm0-1.414 3.785-3.785h-7.57l3.785 3.785ZM10.844 33.322V45.72l6.199-6.2-6.2-6.198Zm1 2.414 3.785 3.785-3.785 3.785v-7.57Zm2.209 13.42h12.625l-6.313-6.313-6.312 6.313Zm2.414-1 3.898-3.898 3.899 3.898h-7.797Zm26.377-27.792 6.313-6.312v12.625l-6.313-6.313Zm5.313 3.899v-7.797l-3.898 3.898 3.898 3.899Z" /></svg><svg  viewBox="0 0 24 24" id="calendar" xmlns="http://www.w3.org/2000/svg"><path fill-rule="evenodd" clip-rule="evenodd" d="M4 3a1 1 0 0 1 1 1v1h2V4a1 1 0 0 1 2 0v1h2V4a1 1 0 0 1 2 0v1h2V4a1 1 0 0 1 2 0v1h2V4a1 1 0 0 1 2 0v14a3 3 0 0 1-3 3H6a3 3 0 0 1-3-3V4a1 1 0 0 1 1-1Zm15 4H5v11a1 1 0 0 0 1 1h12a1 1 0 0 0 1-1V7Zm-6 3a1 1 0 1 1-2 0 1 1 0 0 1 2 0Zm3 1a1 1 0 1 0 0-2 1 1 0 0 0 0 2Zm-7 2a1 1 0 1 1-2 0 1 1 0 0 1 2 0Zm3 1a1 1 0 1 0 0-2 1 1 0 0 0 0 2Zm5-1a1 1 0 1 1-2 0 1 1 0 0 1 2 0Zm-9 4a1 1 0 1 0 0-2 1 1 0 0 0 0 2Zm5-1a1 1 0 1 1-2 0 1 1 0 0 1 2 0Zm3 1a1 1 0 1 0 0-2 1 1 0 0 0 0 2Z" /></svg><svg  viewBox="0 0 16 16" id="cancer" xmlns="http://www.w3.org/2000/svg"><path d="M13.172 7.27a2.479 2.479 0 0 0-.41-1.288 5.268 5.268 0 0 0-1.757-1.618 6.058 6.058 0 0 0-2.077-.716 6.652 6.652 0 0 0-3.592.434c-.958.405-1.584.992-1.925 1.441-.345.454-.44.755-.444.75.005.005.158-.276.553-.651.39-.38 1.06-.834 1.978-1.1a6.628 6.628 0 0 1 3.292-.104 5.775 5.775 0 0 1 1.766.71 4.798 4.798 0 0 1 1.441 1.382c.316.464.336 1.155.143 1.722-.187.573-.597 1.022-1.09 1.15a1.563 1.563 0 0 1-.77 0 2.134 2.134 0 0 1-.38-.123 3.314 3.314 0 0 1-.35-.173 1.328 1.328 0 0 1-.627-1.14c-.01-.434.148-.849.37-1.13.217-.286.518-.44.775-.449.261-.005.454.099.577.173.119.079.178.138.178.128 0 0-.045-.064-.153-.163a1.019 1.019 0 0 0-.592-.286c-.301-.044-.691.089-.992.4a2.162 2.162 0 0 0-.617 1.307c-.03.277.005.588.123.884.119.296.331.577.597.784.144.114.277.188.43.272.148.079.306.148.478.202.336.109.73.158 1.13.074a2.2 2.2 0 0 0 1.076-.572c.296-.287.523-.642.666-1.032.143-.39.222-.814.203-1.248v-.02Z" /><path d="M9.575 12.436a6.567 6.567 0 0 1-3.287.148 5.642 5.642 0 0 1-1.781-.685 4.793 4.793 0 0 1-1.466-1.357c-.32-.46-.355-1.155-.167-1.718.182-.577.587-1.031 1.075-1.164.247-.07.504-.07.77-.01.128.03.257.069.385.118.123.055.257.109.345.168.42.252.632.69.647 1.13.015.44-.138.849-.355 1.135-.213.291-.509.449-.765.459a.95.95 0 0 1-.583-.168c-.118-.079-.182-.133-.177-.128 0 0 .044.064.158.158.108.098.29.242.597.281.3.035.686-.104.992-.41.3-.3.547-.755.597-1.317a1.879 1.879 0 0 0-.134-.883 1.916 1.916 0 0 0-.607-.775 3.127 3.127 0 0 0-.908-.454 2.295 2.295 0 0 0-1.134-.06 2.224 2.224 0 0 0-1.066.593 2.872 2.872 0 0 0-.657 1.041c-.143.39-.212.814-.182 1.248.03.435.158.889.424 1.284a5.262 5.262 0 0 0 1.782 1.593 6.105 6.105 0 0 0 2.087.686 6.673 6.673 0 0 0 3.582-.483c.953-.42 1.575-1.012 1.91-1.466.34-.459.425-.76.434-.76-.005-.005-.153.272-.542.661-.385.385-1.047.85-1.96 1.13l-.014.005Z" /></svg><svg  viewBox="0 0 13 13" id="capricorn" xmlns="http://www.w3.org/2000/svg"><path d="M12.946 7.361a2.348 2.348 0 0 0-.284-1.098 1.77 1.77 0 0 0-.882-.786 2.351 2.351 0 0 0-1.064-.16 4.013 4.013 0 0 0-.953.174l-.21.066c-.077.02-.165.059-.24.089a2.4 2.4 0 0 0-.43.247c-.26.183-.476.4-.672.612a8.52 8.52 0 0 0-.709.915 8.734 8.734 0 0 1-.068-.876c-.024-.583-.02-1.174-.022-1.752a26.645 26.645 0 0 0-.046-1.709c-.038-.558-.105-1.109-.288-1.645a2.649 2.649 0 0 0-.394-.764 1.622 1.622 0 0 0-.707-.522A1.792 1.792 0 0 0 5.169.06a2.044 2.044 0 0 0-.734.193c-.442.225-.743.563-.99.891a6.14 6.14 0 0 0-.786 1.489 8.253 8.253 0 0 0-.118-.832 4.24 4.24 0 0 0-.259-.873c-.058-.14-.13-.27-.228-.4A1.22 1.22 0 0 0 1.868.34a.755.755 0 0 0-.232-.11.67.67 0 0 0-.454.063c-.121.068-.195.14-.27.21A2.204 2.204 0 0 0 .625.89c-.13.226-.184.349-.188.355 0 0 .104-.095.297-.26C.827.91.953.82 1.096.74a.8.8 0 0 1 .221-.084.295.295 0 0 1 .173.027c.025.014.042.04.063.061.018.026.023.046.04.088.033.084.066.184.09.296.048.23.072.488.087.773.025.567.021 1.199.018 1.872a57.147 57.147 0 0 0 .08 3.483c.05.906.136 1.468.136 1.468-.006-.004.142-.544.325-1.43.177-.889.38-2.12.389-3.513 0-.212-.009-.411-.013-.617.115-.283.259-.59.438-.9.17-.293.37-.6.609-.884.244-.282.539-.55.89-.705A1.51 1.51 0 0 1 5.209.56c.206-.002.405.023.575.097.344.142.574.51.695.954.127.447.165.964.18 1.493a30.4 30.4 0 0 1-.025 1.66c-.02.573-.044 1.169-.04 1.788.001.31.015.627.053.958.034.296.087.602.205.923-.4.638-.768 1.23-1.156 1.746-.508.681-1.057 1.234-1.656 1.506-.3.136-.605.195-.884.196a2.529 2.529 0 0 1-.77-.128 3.754 3.754 0 0 1-.592-.252.933.933 0 0 1-.338-.309c-.067-.112-.107-.2-.138-.258-.035-.053-.059-.083-.059-.083s.018.026.05.085c.03.06.057.156.114.27.063.117.167.25.332.362.159.108.35.218.582.312.233.094.504.177.817.203.313.027.66-.008 1.005-.135.7-.246 1.331-.816 1.905-1.484.378-.44.736-.932 1.108-1.449l.023.03c.104.133.217.263.334.388.23.254.489.502.785.713.292.218.628.403 1.008.525.374.119.804.155 1.212.074a2.573 2.573 0 0 0 1.085-.503c.309-.236.557-.524.752-.833.39-.62.618-1.326.605-2.056l-.03.007Zm-1.38 1.552c-.302.467-.752.834-1.249.928-.495.105-1.03-.09-1.493-.423a4.657 4.657 0 0 1-.656-.582c-.102-.107-.2-.22-.299-.335a.273.273 0 0 1-.05-.07c-.011-.022-.032-.042-.043-.065a1.083 1.083 0 0 1-.06-.124l.039-.067c.305-.4.62-.82.977-1.182.179-.182.372-.346.574-.482.102-.063.206-.117.313-.16.052-.02.104-.038.162-.053l.203-.054c.512-.135 1.07-.178 1.473.005a.952.952 0 0 1 .452.424c.103.19.156.44.154.698.002.522-.182 1.082-.484 1.55l-.013-.008Z" /></svg><svg  viewBox="0 0 28 28" id="change" xmlns="http://www.w3.org/2000/svg"><path d="M3.983 11.667H17.5a1.167 1.167 0 1 0 0-2.334H3.983l2.675-2.675a1.167 1.167 0 0 0-1.65-1.65L.342 9.675a1.169 1.169 0 0 0-.078.086l-.03.041-.038.05-.03.051c-.01.016-.02.031-.028.047-.01.018-.017.035-.026.053l-.023.05-.02.053-.019.055-.013.053-.014.058-.01.062c-.002.017-.006.034-.007.051a1.174 1.174 0 0 0 0 .23c.001.018.005.034.007.051l.01.062.014.058.013.053.02.055.019.053.023.05.026.053c.008.016.018.031.028.047l.03.05.037.051.031.042c.025.03.05.057.077.085l4.667 4.667a1.167 1.167 0 0 0 1.65-1.65l-2.675-2.675ZM27.735 18.24c.012-.014.021-.028.032-.042.012-.017.025-.033.036-.05.012-.017.021-.034.031-.051.01-.016.02-.031.028-.047.01-.017.017-.035.026-.053l.023-.05.02-.053c.006-.018.013-.036.018-.055.006-.018.01-.036.014-.053l.014-.058.01-.062.007-.05a1.165 1.165 0 0 0 0-.231l-.007-.051-.01-.062-.014-.058c-.004-.017-.008-.035-.014-.053-.005-.018-.012-.037-.019-.055l-.019-.052-.023-.05-.026-.054c-.008-.016-.018-.031-.028-.047l-.03-.05c-.012-.018-.025-.034-.037-.05a1.168 1.168 0 0 0-.107-.126l-.002-.002-4.666-4.666a1.167 1.167 0 0 0-1.65 1.65l2.675 2.675H10.5a1.167 1.167 0 0 0 0 2.333h13.517l-2.675 2.675a1.167 1.167 0 1 0 1.65 1.65l4.666-4.667.001-.001c.027-.027.053-.055.076-.085Z" /></svg><svg  viewBox="0 0 24 24" id="close" xmlns="http://www.w3.org/2000/svg"><g clip-path="url(#aia)"><path d="M23.625 1.821c0-.388-.151-.753-.426-1.027-.549-.55-1.505-.55-2.055 0L12 9.938 2.856.794C2.306.244 1.35.244.8.794c-.275.274-.426.64-.426 1.027 0 .388.151.753.426 1.028l9.144 9.144-9.144 9.145c-.275.274-.426.639-.426 1.027 0 .388.151.753.426 1.027.549.55 1.505.55 2.055 0L12 14.048l9.145 9.144c.274.275.639.426 1.027.426.388 0 .753-.151 1.027-.426.275-.274.426-.639.426-1.027 0-.388-.151-.753-.426-1.027l-9.144-9.145 9.144-9.144c.275-.275.426-.64.426-1.028Z" /></g><defs><clipPath id="aia"><path  d="M0 0h24v24H0z"/></clipPath></defs></svg><svg  viewBox="0 0 24 24" id="degrees" xmlns="http://www.w3.org/2000/svg"><g clip-path="url(#aja)" ><path d="M23.962 11.434a.469.469 0 0 0-.929.124c.02.146.03.295.03.442 0 1.577-1.116 3.08-3.141 4.233-2.108 1.2-4.922 1.86-7.922 1.86-1.896 0-3.717-.263-5.333-.76-.497-1.616-.76-3.437-.76-5.333 0-3 .66-5.814 1.86-7.922C8.92 2.053 10.423.938 12 .938c1.323 0 2.377.763 3.136 1.602h-.48a.469.469 0 0 0 0 .937h1.454c.26 0 .47-.21.47-.468V1.554a.469.469 0 0 0-.938 0v.158C14.555.6 13.293 0 12 0c-1.929 0-3.721 1.284-5.048 3.614C5.673 5.862 4.97 8.84 4.97 12c0 1.736.213 3.417.617 4.953a12.089 12.089 0 0 1-1.508-.72C2.053 15.08.938 13.577.938 12c0-1.331.772-2.39 1.617-3.15v.478a.469.469 0 0 0 .937 0V7.874a.469.469 0 0 0-.469-.47H1.57a.469.469 0 0 0 0 .938h.16C.606 9.433 0 10.7 0 12c0 1.929 1.284 3.721 3.614 5.048.704.4 1.48.744 2.31 1.028.284.83.628 1.606 1.028 2.31C8.28 22.716 10.072 24 12 24c1.106 0 2.204-.44 3.175-1.271a.469.469 0 0 0-.61-.713c-.81.695-1.673 1.047-2.565 1.047-1.577 0-3.08-1.116-4.233-3.141-.267-.47-.507-.974-.72-1.508 1.536.404 3.217.617 4.953.617 3.16 0 6.138-.704 8.386-1.983C22.716 15.72 24 13.928 24 12c0-.188-.013-.379-.038-.566Z"/><path d="m23.386 9.756-.002-.004a.469.469 0 1 0-.818.457.469.469 0 1 0 .82-.453ZM16.378 20.616a.472.472 0 0 0-.656.11l-.002.004a.472.472 0 0 0 .11.656.474.474 0 0 0 .549-.77ZM15.305 10.65A1.212 1.212 0 0 0 14.1 9.454h-1.653V8.218c0-.146.118-.264.264-.264h1.359a.469.469 0 0 0 0-.937h-1.36c-.662 0-1.2.538-1.2 1.2v3.785c0 .662.538 1.201 1.2 1.201h1.39c.657 0 1.198-.536 1.206-1.195V10.65Zm-.937 1.348a.272.272 0 0 1-.269.268h-1.39a.264.264 0 0 1-.263-.264v-1.61h1.653c.146 0 .266.12.269.267v1.34ZM18.417 7.017h-1.395c-.662 0-1.201.538-1.201 1.2v3.785c0 .662.539 1.201 1.201 1.201h1.395c.662 0 1.2-.539 1.2-1.201V8.218c0-.663-.538-1.201-1.2-1.201Zm.263 4.985a.264.264 0 0 1-.263.264h-1.395a.264.264 0 0 1-.263-.264V8.218c0-.146.118-.264.263-.264h1.395c.145 0 .263.118.263.264v3.784ZM9.791 7.017H8.594c-.662 0-1.2.538-1.2 1.2v.017a.469.469 0 0 0 .937 0v-.016c0-.146.118-.264.263-.264h1.197c.145 0 .264.118.264.264V9.64H8.852a.469.469 0 0 0 0 .938h1.203v1.423a.264.264 0 0 1-.264.264H8.594a.264.264 0 0 1-.263-.264v-.065a.469.469 0 0 0-.938 0v.065c0 .662.539 1.201 1.201 1.201h1.197c.662 0 1.201-.539 1.201-1.201V8.218c0-.663-.539-1.201-1.201-1.201ZM21.513 6.242c-.685 0-1.243.558-1.243 1.243 0 .686.558 1.244 1.243 1.244a1.245 1.245 0 0 0 0-2.487Zm0 1.55a.306.306 0 1 1 0-.613.306.306 0 0 1 0 .612Z"/></g><defs><clipPath id="aja"><path  d="M0 0h24v24H0z"/></clipPath></defs></svg><svg  viewBox="0 0 25 15" id="down-arrow" xmlns="http://www.w3.org/2000/svg"><path d="M23.265.336 12.499 12.291 1.733.336a.968.968 0 0 0-.72-.334.968.968 0 0 0-.719.334 1.135 1.135 0 0 0-.217.365 1.252 1.252 0 0 0 0 .865c.05.137.124.261.217.365l11.453 12.72c.201.224.471.349.752.349.28 0 .55-.125.752-.348L24.704 1.934c.093-.104.168-.229.219-.366a1.252 1.252 0 0 0 0-.868 1.134 1.134 0 0 0-.22-.366.968.968 0 0 0-.719-.334.969.969 0 0 0-.72.334v.002Z" /></svg><svg  viewBox="0 0 24 24" id="energy-battery" xmlns="http://www.w3.org/2000/svg"><path d="M19.06 12.478a.473.473 0 0 1-.441-.312.473.473 0 0 1 .143-.52.474.474 0 0 1 .545-.035.472.472 0 0 1 .21.5.474.474 0 0 1-.458.367ZM11.155 15.41a.468.468 0 0 1-.466-.519l.203-1.906h-1.48a.469.469 0 0 1-.414-.688l2.313-4.363a.469.469 0 0 1 .414-.25h2.436a.469.469 0 0 1 .408.7l-1.285 2.287h1.303a.469.469 0 0 1 .348.783l-3.432 3.801a.468.468 0 0 1-.348.155Zm-.963-3.362h1.222a.469.469 0 0 1 .466.518l-.106.99 1.758-1.947h-1.05a.469.469 0 0 1-.408-.698l1.286-2.289h-1.353l-1.815 3.426Z" /><path d="M16.997 4.431H7.003a.469.469 0 0 0-.469.469v16.569c0 .258.21.468.469.468h9.994c.259 0 .469-.21.469-.468V4.899a.469.469 0 0 0-.469-.468Zm-9.525.938h9.056V17.35H7.472V5.369Zm9.056 15.63H7.472v-2.711h9.056V21Z" /><path d="M19.06 10.35c.258 0 .468-.21.468-.469V4.245a1.879 1.879 0 0 0-1.876-1.876h-1.534v-.957C16.118.633 15.485 0 14.706 0H9.294c-.779 0-1.412.633-1.412 1.412v.957H6.348a1.879 1.879 0 0 0-1.876 1.876v17.878c0 1.035.842 1.877 1.876 1.877h11.304a1.879 1.879 0 0 0 1.876-1.877V14.12a.469.469 0 0 0-.937 0v8.004a.94.94 0 0 1-.94.94H6.349a.94.94 0 0 1-.939-.94V4.245a.94.94 0 0 1 .94-.939h11.303a.94.94 0 0 1 .939.94V9.88c0 .259.21.469.468.469ZM8.82 2.369v-.957c0-.262.212-.474.474-.474h5.412c.262 0 .475.212.475.474v.957H8.819Z" /></svg><svg  viewBox="0 0 25 32" id="flag" xmlns="http://www.w3.org/2000/svg"><path d="M21.927 0H3.073C1.41 0 0 1.285 0 2.946v26.73c.005 2.108 2.691 3.097 4.218 1.617l7.187-6.888c.576-.577 1.614-.577 2.19 0l7.187 6.888c1.528 1.48 4.213.49 4.218-1.618V2.946C25 1.285 23.589 0 21.927 0Zm1.117 29.675c-.002.447-.581.594-.88.29-1.437-1.379-5.534-5.306-7.185-6.885-1.298-1.302-3.658-1.302-4.956-.002-1.14 1.09-3.371 3.23-5.13 4.915l-2.047 1.961c-.295.3-.88.2-.89-.262V2.946c0-.599.506-1.07 1.117-1.07h18.854c.61 0 1.117.47 1.117 1.07v26.73Z" /></svg><svg  viewBox="0 0 10 15" id="gemini" xmlns="http://www.w3.org/2000/svg"><path d="M2.167 12.671c.541-.18 1.231-.365 2.01-.476.084.553.146.88.146.88s.046-.331.102-.916a13.03 13.03 0 0 1 1-.083 9.83 9.83 0 0 1 1.13.032c.177 1.507.374 2.49.374 2.49s.14-.947.226-2.407a.382.382 0 0 0 .069.01 5.378 5.378 0 0 1 1.414.47c.39.196.687.411.882.571.198.166.302.263.302.263s-.06-.13-.208-.359a3.92 3.92 0 0 0-.75-.862 4.513 4.513 0 0 0-1.673-.905c.03-.793.047-1.694.02-2.643-.009-.259-.017-.518-.033-.765l-.01-.183-.008-.095-.004-.047-.01-.019.011-.006-.003-.007-.012.007-.012-.116-.015-.231-.038-.448c-.026-.29-.054-.571-.087-.833-.06-.526-.118-.996-.18-1.389-.006-.054-.014-.107-.027-.157.407-.046.79-.134 1.144-.273.644-.248 1.143-.668 1.43-1.098.294-.434.399-.84.445-1.115.047-.274.034-.432.044-.429 0 0-.05.145-.174.381a2.905 2.905 0 0 1-.654.848c-.326.295-.786.536-1.341.667-.319.076-.664.12-1.034.135-.025-.126-.034-.195-.034-.195s-.006.07-.027.197a6.885 6.885 0 0 1-.793-.02c-.503-.04-.984-.109-1.443-.207C4.17 1.75 3.975.716 3.975.716s-.137.978-.22 2.486a11.61 11.61 0 0 1-1.468-.481C1.403 2.365.907 1.984.9 1.987c0 0 .34.546 1.18 1.142.415.296.945.6 1.567.843.022.012.041.018.07.026a40.807 40.807 0 0 0-.02 2.89c.047 1.746.213 3.316.36 4.444a8.178 8.178 0 0 0-.658.198 6.456 6.456 0 0 0-1.442.725c-.76.513-1.101.974-1.105.968 0 0 .489-.274 1.314-.552Zm2.438-5.77a42.04 42.04 0 0 0-.16-2.655 7.07 7.07 0 0 0 1.324.233c.24.019.484.018.72.005-.005.045-.005.086-.01.13-.035.392-.073.859-.104 1.38-.013.263-.025.542-.04.831l-.011.444-.001.231v.108s-.016 0-.02-.006v.355c0 .247.009.506.016.766a41.2 41.2 0 0 0 .151 2.486 5.967 5.967 0 0 0-1.963.028 42.67 42.67 0 0 0 .104-4.34l-.006.003Z" /></svg><svg  viewBox="0 0 17 11" id="left-arrow" xmlns="http://www.w3.org/2000/svg"><path fill-rule="evenodd" clip-rule="evenodd" d="M.354 5.132a.5.5 0 0 0 0 .707l4.242 4.243a.5.5 0 1 0 .708-.707l-3.39-3.39 14.35.001a.501.501 0 0 0 0-1H1.914l3.39-3.39A.5.5 0 0 0 4.596.89L.354 5.132Z" /></svg><svg  viewBox="0 0 11 13" id="leo" xmlns="http://www.w3.org/2000/svg"><path d="M9.99 8.876c-.12-.433-.3-.75-.45-.988a.552.552 0 0 0-.151-.259c-.065-.061-.117-.112-.167-.147l-.14-.11.13.122c.04.04.093.09.15.157a.527.527 0 0 1 .116.25l-.004.013c.133.247.28.578.351.999.073.413.07.922-.152 1.417-.212.49-.64.96-1.224 1.247a2.615 2.615 0 0 1-.962.268 1.828 1.828 0 0 1-.995-.187 1.427 1.427 0 0 1-.663-.768 2.232 2.232 0 0 1-.124-.551 3.278 3.278 0 0 1-.017-.296l.004-.152.007-.079.009-.034-.009-.024c.01-.063.042-.156.068-.252.032-.093.073-.191.121-.288.091-.202.189-.401.295-.606.213-.41.452-.835.686-1.268.462-.875.95-1.787 1.315-2.82.176-.521.33-1.07.35-1.692a2.328 2.328 0 0 0-.179-.982 1.78 1.78 0 0 0-.722-.82C7.26.802 6.871.712 6.5.67A5.262 5.262 0 0 0 5.433.67c-.36.027-.744.114-1.104.302-.36.188-.657.502-.83.842-.18.346-.26.696-.305 1.034-.04.34-.045.659-.034.975.024.627.108 1.218.191 1.787.083.57.165 1.116.209 1.638.044.523.062 1.03-.027 1.474-.084.451-.291.811-.625 1.013a1.772 1.772 0 0 1-.565.214c-.202.04-.413.057-.6.043-.384-.023-.688-.206-.828-.506-.148-.302-.148-.66-.086-.971.131-.629.51-1.133.94-1.287a.914.914 0 0 1 .599-.007c.175.061.308.14.405.218.2.156.282.265.29.26 0 0-.072-.114-.259-.296a1.479 1.479 0 0 0-.399-.267 1.007 1.007 0 0 0-.67-.056 1.42 1.42 0 0 0-.706.467 2.366 2.366 0 0 0-.473.887c-.093.347-.146.763.02 1.187.084.212.236.413.44.556.205.142.447.229.69.257.247.037.485.028.737-.006.245-.037.505-.099.753-.229s.47-.326.637-.566c.167-.24.27-.51.343-.783.132-.548.142-1.107.12-1.66-.028-.554-.09-1.117-.144-1.686a16.169 16.169 0 0 1-.123-1.71c-.004-.563.043-1.148.28-1.566.115-.21.274-.364.479-.47.205-.105.464-.167.742-.187.3-.022.602-.021.887.011.286.033.554.105.75.223a.864.864 0 0 1 .351.393c.073.166.105.378.103.604-.003.451-.127.943-.276 1.414-.313.951-.763 1.859-1.194 2.728-.22.437-.432.868-.643 1.3-.101.214-.205.434-.294.658a3.18 3.18 0 0 0-.124.353c-.033.123-.068.252-.089.414l-.003.065.003.045L5 9.866c-.001.058.003.125.01.184.004.119.021.247.04.369.038.243.107.48.209.705.195.453.568.845 1.01 1.036.44.198.896.226 1.309.168.413-.057.79-.203 1.112-.387.653-.38 1.1-.945 1.29-1.521.2-.58.157-1.132.035-1.558l-.026.014Z" /></svg><svg  viewBox="0 0 17 16" id="libra" xmlns="http://www.w3.org/2000/svg"><path d="M2.2 7.448c.37-.013.817-.005 1.325.023.255.018.526.038.809.064l.51.053c.248.03.52.075.796.113.014-.024.018-.046.023-.067l.007-.012-.002-.026V7.54l-.005-.228c-.001-.082-.011-.12-.016-.195l-.013-.104-.048-.125c-.033-.083-.084-.177-.11-.257l-.021-.06-.01-.039-.019-.066a2.428 2.428 0 0 1-.052-.272c-.043-.372.03-.749.237-1.08.406-.676 1.28-1.171 2.211-1.318.515-.082 1.036-.063 1.487.076.46.137.846.392 1.126.73.28.34.454.763.547 1.187.047.213.075.43.09.64l.006.157-.001.128-.005.134-.019.521c.236-.017.471-.034.678-.043l.433-.024.73-.038c.459-.025.861-.067 1.186-.113.653-.098.997-.247.997-.247s-.364.072-1.01.062c-.323-.001-.718-.028-1.172-.065l-.731-.059-.2-.018c-.062-.004-.15-.006-.161-.013a1.535 1.535 0 0 0-.159-.019l.027-.13.014-.024-.005-.019.004-.022.008-.18c.008-.238.001-.491-.037-.747a3.436 3.436 0 0 0-.587-1.564 3.06 3.06 0 0 0-1.498-1.09 3.979 3.979 0 0 0-1.912-.137c-.58.1-1.134.304-1.621.603-.48.303-.902.712-1.17 1.218a2.374 2.374 0 0 0-.234 1.606c.023.126.056.25.103.365a.49.49 0 0 0 .032.083c.009.014.014.033.016.042l.013.007s.013.032.022.045c.017.026.04.056.054.088l.015.057s.011.023.002.025l-.02.005-.15.01-.044.007h-.112l-.226-.002c-.294.008-.576.022-.837.04a13.55 13.55 0 0 0-1.342.176c-.74.137-1.126.317-1.126.317s.412-.1 1.145-.112l.022-.011ZM1.176 10.031s3.164.312 7.05.13c3.874-.18 6.997-.787 6.997-.787s-3.165-.312-7.043-.126c-3.879.186-7.001.793-7.001.793l-.003-.01Z" /></svg><svg  viewBox="0 0 24 24" id="location" xmlns="http://www.w3.org/2000/svg"><path d="M12 5.402c-2.33 0-4.228 1.869-4.228 4.169S9.67 13.74 12 13.74s4.228-1.869 4.228-4.169S14.33 5.402 12 5.402Zm0 7.043c-1.61 0-2.918-1.29-2.918-2.874S10.39 6.697 12 6.697s2.918 1.29 2.918 2.874c0 1.583-1.308 2.874-2.918 2.874Z"   stroke-width=".2"/><path d="m7.895 16.84.085-.053-.085.053c.734 1.156 1.523 2.258 2.223 3.101.56.676.947 1.05 1.233 1.254.291.208.483.243.649.243.168 0 .356-.036.642-.244.28-.204.66-.578 1.219-1.253l-.077-.064.077.063c.7-.848 1.49-1.949 2.223-3.099.562-.88 1.314-2.142 1.927-3.46.61-1.313 1.089-2.695 1.089-3.81 0-3.861-3.186-7-7.1-7-3.914 0-7.1 3.139-7.1 7 0 1.12.475 2.502 1.082 3.815.608 1.316 1.356 2.576 1.913 3.454Zm7.25-.957a32.682 32.682 0 0 1-1.969 2.826c-.522.664-.939 1.122-1.184 1.34-.244-.211-.657-.658-1.175-1.316A31.847 31.847 0 0 1 8.84 15.89c-.838-1.347-1.497-2.598-1.945-3.678-.45-1.083-.685-1.986-.685-2.641 0-3.144 2.596-5.705 5.79-5.705s5.79 2.56 5.79 5.705c0 .65-.237 1.551-.688 2.633-.451 1.079-1.114 2.33-1.956 3.678Z"   stroke-width=".2"/></svg><svg  viewBox="0 0 320 57" id="logo" xmlns="http://www.w3.org/2000/svg"><path fill-rule="evenodd" clip-rule="evenodd" d="m148.817 54.813-17.79-17.79V19.586L148.613 2h17.436l17.791 17.79V36.82l-17.995 17.994h-17.028ZM166.878 0h-19.093l-18.758 18.758V37.85l18.962 18.962h18.685l19.166-19.166V18.962L166.878 0ZM40.368 19.52c-.73-.92-1.862-1.381-3.397-1.381-1.516 0-2.64.45-3.368 1.352-.73.901-1.095 2.128-1.095 3.681 0 .94.164 1.754.49 2.445a8.077 8.077 0 0 0 1.267 1.812c.499.537 1.036 1.035 1.612 1.495.576.441 1.113.901 1.612 1.38.5.46.912.969 1.238 1.525.346.537.518 1.18.518 1.927 0 .92-.192 1.63-.575 2.128-.384.499-.98.748-1.785.748-.807 0-1.401-.25-1.785-.748-.384-.498-.576-1.208-.576-2.128V32.49h-2.102v1.15c0 1.535.365 2.762 1.094 3.682.73.901 1.872 1.352 3.426 1.352 1.555 0 2.697-.45 3.426-1.352.749-.92 1.123-2.147 1.123-3.681 0-.94-.173-1.745-.518-2.416a7.206 7.206 0 0 0-1.238-1.84 11.95 11.95 0 0 0-1.641-1.468c-.576-.46-1.114-.92-1.613-1.38a8.03 8.03 0 0 1-1.266-1.553c-.327-.556-.49-1.208-.49-1.956 0-.9.183-1.6.547-2.1.365-.498.95-.747 1.757-.747.806 0 1.391.25 1.756.748.364.498.547 1.208.547 2.128v.662h2.13v-.547c0-1.534-.365-2.751-1.094-3.652ZM2.073 38.472l.777-4.055h5.096l.777 4.055h2.246L7.111 18.34H3.858L0 38.472h2.073Zm5.556-5.982H3.14l2.216-11.619 2.274 11.62Zm58.775 5.982v-18.09h-3.713V18.34h9.673v2.042H68.65v18.09h-2.246Zm35.457-18.953c-.691-.786-1.833-1.179-3.426-1.179h-4.491v20.132h2.245v-8.599h1.584c.94 0 1.66.22 2.16.662.518.421.777 1.198.777 2.33v3.163c0 .671.028 1.179.086 1.524.058.326.154.633.288.92h2.274a2.829 2.829 0 0 1-.345-1.121 14.055 14.055 0 0 1-.058-1.294v-3.135c0-1.093-.192-1.994-.576-2.704-.383-.728-1.036-1.227-1.957-1.495.863-.269 1.497-.748 1.9-1.438.403-.69.604-1.592.604-2.704v-1.639c0-1.496-.355-2.636-1.065-3.422Zm-1.9 7.766c-.499.364-1.2.546-2.102.546h-1.67v-7.449h2.189c.844 0 1.44.23 1.785.69.364.46.547 1.151.547 2.071v1.927c0 1.093-.25 1.831-.749 2.215Zm117.373 11.389h-3.071l-2.755-20.535h2.181l2.354 17.484 2.239-17.455h2.21l2.21 17.484 2.267-17.513h1.952l-2.727 20.535h-2.956l-1.923-13.934-1.981 13.934Zm33.618-4.136-.775 4.136h-2.066l3.846-20.535h3.243l3.846 20.535h-2.239l-.775-4.136h-5.08Zm.287-1.966h4.478l-2.268-11.851-2.21 11.851Zm32.438-12.35v18.452h2.238V20.222h3.703v-2.083h-9.644v2.083h3.703Zm30.382 18.452V20.222h-3.703v-2.083H320v2.083h-3.703v18.452h-2.238ZM139.294 25.26V13.234l6.013 6.013-6.013 6.013Zm3.146 3.146 6.013-6.013 5.87 5.87-6.013 6.013-5.87-5.87Zm9.159-9.159 5.87 5.87 5.834-5.834-5.87-5.87-5.834 5.834Zm-.143 18.175 6.013-6.013 5.977 5.977-6.013 6.013-5.977-5.977Zm9.159-9.16 5.977 5.978 5.834-5.834-5.977-5.977-5.834 5.834Zm-.036 18.283 6.013-6.013 6.014 6.013h-12.027Zm9.16-9.159 5.833 5.834V31.552l-5.833 5.834ZM142.62 10.267l5.833 5.834 5.834-5.834H142.62Zm17.959 0 5.87 5.87 5.87-5.87h-11.74Zm-15.415 27.155-5.87-5.87v11.74l5.87-5.87Zm-2.831 9.123 5.977-5.977 5.977 5.977h-11.954Zm27.262-27.262 5.977-5.977V25.26l-5.977-5.977ZM21.904 28.578a1.54 1.54 0 1 1-3.08 0 1.54 1.54 0 0 1 3.08 0Zm29.604 1.54a1.54 1.54 0 1 0 0-3.08 1.54 1.54 0 0 0 0 3.08Zm32.684-1.54a1.54 1.54 0 1 1-3.08 0 1.54 1.54 0 0 1 3.08 0Zm32.001 1.54a1.54 1.54 0 1 0 0-3.081 1.54 1.54 0 0 0 0 3.08Zm84.021-1.54a1.54 1.54 0 1 1-3.08-.001 1.54 1.54 0 0 1 3.08 0Zm37.818 1.54a1.54 1.54 0 1 0 0-3.08 1.54 1.54 0 0 0 0 3.08Zm32.342-1.54a1.54 1.54 0 1 1-3.08 0 1.54 1.54 0 0 1 3.08 0Zm29.947 1.54a1.54 1.54 0 1 0 0-3.081 1.54 1.54 0 0 0 0 3.08Z" /></svg><svg  viewBox="0 0 24 24" id="mark-tablet" xmlns="http://www.w3.org/2000/svg"><g clip-path="url(#ata)" ><path d="M9.469 21.188a.473.473 0 0 0-.469.468.473.473 0 0 0 .469.469.473.473 0 0 0 .469-.469.473.473 0 0 0-.47-.468Z"/><path d="M23.5 6.39a1.71 1.71 0 0 0-2.416 0l-2.146 2.146V1.594C18.938.715 18.223 0 17.343 0H1.594C.715 0 0 .715 0 1.594v20.812C0 23.285.715 24 1.594 24h15.75c.878 0 1.593-.715 1.593-1.594v-9.038L23.5 8.806a1.71 1.71 0 0 0 0-2.416ZM18 1.594v7.88l-.938.937V2.344a.469.469 0 0 0-.468-.469H13.46V.937h3.883c.362 0 .656.295.656.657Zm-2.56 12.855.633-1.422.79.79-1.422.632ZM12.525.938v1.91c0 .29-.237.527-.528.527H6.941a.528.528 0 0 1-.527-.527V.938h6.11Zm4.82 22.125H1.594a.657.657 0 0 1-.657-.657V1.594c0-.362.295-.657.657-.657h3.882v.938H2.344a.469.469 0 0 0-.469.469v19.312c0 .26.21.469.469.469h5.25a.469.469 0 1 0 0-.938H2.812V2.813h2.664v.036c0 .807.658 1.465 1.465 1.465h5.055c.808 0 1.465-.658 1.465-1.465v-.035h2.664v8.535l-.534.534a.472.472 0 0 0-.097.141l-1.407 3.16a.469.469 0 0 0 .62.62l1.418-.632v6.017h-4.781a.469.469 0 1 0 0 .937h5.25c.258 0 .468-.21.468-.469v-6.903l.804-.358a.466.466 0 0 0 .134-.09v8.101a.657.657 0 0 1-.656.657ZM21.089 9.89l-3.413 3.414-1.09-1.09 4.226-4.227 1.09 1.09-.813.813Zm1.748-1.747-.272.271-1.09-1.09.271-.271a.772.772 0 0 1 1.09 1.09Z"/><path d="M7.594 5.625h-3a.469.469 0 0 0-.469.469v3c0 .259.21.469.469.469h3c.259 0 .468-.21.468-.47v-3a.469.469 0 0 0-.468-.468Zm-.469 3H5.062V6.562h2.063v2.063ZM7.594 10.781h-3a.469.469 0 0 0-.469.469v3c0 .259.21.469.469.469h3c.259 0 .468-.21.468-.469v-3a.469.469 0 0 0-.468-.469Zm-.469 3H5.062V11.72h2.063v2.062ZM7.594 15.938h-3a.469.469 0 0 0-.469.468v3c0 .26.21.469.469.469h3c.259 0 .468-.21.468-.469v-3a.469.469 0 0 0-.468-.468Zm-.469 3H5.062v-2.063h2.063v2.063ZM10.949 8.983a.467.467 0 0 0 .663 0l2.116-2.116a.469.469 0 0 0-.663-.663L11.28 7.99l-.711-.711a.469.469 0 1 0-.663.662l1.043 1.043ZM10.949 14.14a.469.469 0 0 0 .663 0l2.116-2.117a.47.47 0 0 0-.663-.663l-1.785 1.785-.711-.711a.469.469 0 0 0-.663.663l1.043 1.043ZM11.817 18.57l.727.726a.467.467 0 0 0 .663 0 .469.469 0 0 0 0-.663l-.727-.727.727-.726a.469.469 0 1 0-.663-.663l-.727.726-.726-.726a.469.469 0 0 0-.663.663l.726.726-.726.727a.469.469 0 0 0 .662.663l.727-.727Z"/></g><defs><clipPath id="ata"><path  d="M0 0h24v24H0z"/></clipPath></defs></svg><svg  viewBox="0 0 24 24" id="nakshatra" xmlns="http://www.w3.org/2000/svg"><g clip-path="url(#aua)" ><path d="m18.37 14.685.178.663-2.147-1.24a4.888 4.888 0 0 0 .258-3.533 1.116 1.116 0 0 0 .212-1.387 1.116 1.116 0 0 0-1.312-.509 4.849 4.849 0 0 0-3.184-1.533v-2.49l.485.484.53-.53L12 3.22l-1.39 1.39.53.53.485-.485v2.49A4.85 4.85 0 0 0 8.441 8.68a1.116 1.116 0 0 0-1.312.508 1.12 1.12 0 0 0 .212 1.388 4.864 4.864 0 0 0 .259 3.533l-2.148 1.24.178-.663-.725-.194-.508 1.9 1.899.508.194-.725-.662-.177 2.148-1.24a4.846 4.846 0 0 0 2.929 1.99c.113.502.56.878 1.095.878.535 0 .982-.377 1.096-.878a4.848 4.848 0 0 0 2.928-1.99l2.15 1.24-.663.177.194.725 1.9-.509-.51-1.899-.724.194Zm-2.376-5.297a.37.37 0 0 1 .227.174.372.372 0 0 1-.137.512.375.375 0 1 1-.09-.686Zm-1.033-.253a1.123 1.123 0 0 0-.038 1.178c.208.36.587.562.976.562.022 0 .045-.008.067-.009a4.122 4.122 0 0 1-.219 2.864l-1.976-1.14c.062-.187.104-.383.104-.59 0-.905-.645-1.663-1.5-1.837V7.896c.984.089 1.897.527 2.586 1.239ZM10.875 12c0-.62.505-1.125 1.125-1.125s1.125.505 1.125 1.125-.505 1.125-1.125 1.125-1.125-.505-1.125-1.125ZM7.778 9.562a.373.373 0 0 1 .512-.136.375.375 0 1 1-.512.136ZM7.875 12c0-.387.055-.767.16-1.134.022.001.043.009.065.009a1.122 1.122 0 0 0 .938-1.74 4.105 4.105 0 0 1 2.587-1.24v2.268c-.855.174-1.5.931-1.5 1.837 0 .207.042.403.104.59l-1.976 1.14A4.134 4.134 0 0 1 7.875 12ZM12 16.875a.375.375 0 1 1 0-.75.375.375 0 0 1 0 .75ZM13.003 16A1.122 1.122 0 0 0 12 15.375c-.44 0-.818.257-1.003.625a4.1 4.1 0 0 1-2.37-1.62l1.977-1.141c.344.387.84.636 1.396.636.557 0 1.052-.249 1.396-.636l1.978 1.142a4.1 4.1 0 0 1-2.371 1.62Z"/><path d="M22.5 3c-.173 0-.335.042-.482.113l-1.13-1.13c.07-.148.112-.31.112-.483 0-.62-.505-1.125-1.125-1.125S18.75.88 18.75 1.5c0 .173.042.335.113.482l-1.13 1.13a1.115 1.115 0 0 0-.926-.02A10.131 10.131 0 0 0 12 1.875c-2.144 0-4.173.663-5.9 1.906L4.71 2.08c.103-.171.166-.368.166-.581C4.875.88 4.37.375 3.75.375S2.625.88 2.625 1.5c0 .326.142.618.364.824L1.571 5.631c-.024-.001-.047-.007-.071-.007-.62 0-1.125.505-1.125 1.125S.88 7.875 1.5 7.875c.566 0 1.03-.42 1.109-.964l.726-.146A10.038 10.038 0 0 0 1.875 12c0 4.73 3.295 8.825 7.875 9.865v1.01h3.069c.155.435.568.75 1.056.75.62 0 1.125-.505 1.125-1.125 0-.288-.112-.547-.29-.746A10.139 10.139 0 0 0 22.125 12c0-1.681-.423-3.337-1.217-4.806a1.107 1.107 0 0 0-.021-.925l1.13-1.131c.148.07.31.112.483.112.62 0 1.125-.505 1.125-1.125S23.12 3 22.5 3Zm-2.625 4.125a.375.375 0 1 1 0-.75.375.375 0 0 1 0 .75Zm0-1.5-.014.002a10.186 10.186 0 0 0-1.488-1.489l.002-.013c0-.173-.042-.335-.113-.482l1.13-1.13c.148.07.31.112.483.112s.335-.042.482-.113l1.13 1.13c-.07.148-.112.31-.112.483s.042.335.113.482l-1.13 1.13a1.115 1.115 0 0 0-.483-.112Zm0-4.5a.375.375 0 1 1 0 .75.375.375 0 0 1 0-.75Zm-2.25 3a.375.375 0 1 1-.75 0 .375.375 0 0 1 .75 0ZM7.125 5.25a.375.375 0 1 1 0 .75.375.375 0 0 1 0-.75ZM3.75 1.125a.375.375 0 1 1 0 .75.375.375 0 0 1 0-.75Zm-.07 1.493c.023.001.046.007.07.007.134 0 .26-.027.378-.07l2.038 2.49a1.114 1.114 0 0 0-.15.42l-3.554.71a1.129 1.129 0 0 0-.2-.248l1.417-3.31ZM1.5 7.125a.375.375 0 1 1 0-.75.375.375 0 0 1 0 .75ZM9.75 19.5a.375.375 0 1 1 .75 0 .375.375 0 0 1-.75 0Zm.75 1.056c.318-.113.568-.363.681-.681H13.5v1.569a1.124 1.124 0 0 0-.681.681H10.5v-1.569Zm3.375 2.319a.375.375 0 1 1 0-.75.375.375 0 0 1 0 .75Zm.375-1.78v-1.97h-3.069a1.123 1.123 0 0 0-1.056-.75C9.505 18.375 9 18.88 9 19.5c0 .488.315.9.75 1.056v.538A9.382 9.382 0 0 1 2.625 12c0-1.97.606-3.847 1.745-5.442L6.163 6.2a1.122 1.122 0 0 0 2.087-.575c0-.62-.505-1.125-1.125-1.125-.133 0-.26.027-.378.07l-.17-.208A9.27 9.27 0 0 1 12 2.625c1.477 0 2.932.352 4.239 1.015-.07.148-.114.31-.114.485 0 .62.505 1.125 1.125 1.125.333 0 .628-.148.835-.378.374.32.723.669 1.043 1.043-.23.207-.378.502-.378.835 0 .62.505 1.125 1.125 1.125.174 0 .337-.043.485-.114A9.383 9.383 0 0 1 21.375 12a9.382 9.382 0 0 1-7.125 9.094ZM22.5 4.5a.375.375 0 1 1 0-.75.375.375 0 0 1 0 .75Z"/></g><defs><clipPath id="aua"><path  d="M0 0h24v24H0z"/></clipPath></defs></svg><svg  viewBox="0 0 24 24" id="pada" xmlns="http://www.w3.org/2000/svg"><g clip-path="url(#ava)" ><path d="M7.5 3.75H2.25v.75H7.5v-.75ZM6 5.25H2.25V6H6v-.75ZM3.75 2.25H3V3h.75v-.75ZM7.5 2.25h-3V3h3v-.75ZM21.75 3.75H16.5v.75h5.25v-.75ZM20.25 5.25H16.5V6h3.75v-.75ZM18 2.25h-.75V3H18v-.75ZM21.75 2.25h-3V3h3v-.75Z"/><path d="M22.125.75h-6A1.125 1.125 0 0 0 15 1.875v.856a9.698 9.698 0 0 0-2.625-.464V1.5h-.75v.767A9.698 9.698 0 0 0 9 2.73v-.856A1.125 1.125 0 0 0 7.875.75h-6A1.125 1.125 0 0 0 .75 1.875v4.5A1.125 1.125 0 0 0 1.875 7.5h1.474a9.736 9.736 0 0 0-1.087 4.125H1.5v.75h.763A9.736 9.736 0 0 0 3.35 16.5H1.875A1.125 1.125 0 0 0 .75 17.625v4.5a1.125 1.125 0 0 0 1.125 1.125h6A1.125 1.125 0 0 0 9 22.125v-.856c.85.275 1.733.431 2.625.464v.767h.75v-.767A9.693 9.693 0 0 0 15 21.27v.856a1.125 1.125 0 0 0 1.125 1.125h6a1.125 1.125 0 0 0 1.125-1.125v-4.5a1.125 1.125 0 0 0-1.125-1.125h-1.474a9.736 9.736 0 0 0 1.087-4.125h.762v-.75h-.763A9.734 9.734 0 0 0 20.65 7.5h1.475a1.125 1.125 0 0 0 1.125-1.125v-4.5A1.125 1.125 0 0 0 22.125.75ZM1.5 6.375v-4.5a.375.375 0 0 1 .375-.375h6a.375.375 0 0 1 .375.375v4.5a.375.375 0 0 1-.375.375H6a.375.375 0 0 0-.375.375V7.5l-.9-.675A.375.375 0 0 0 4.5 6.75H1.875a.375.375 0 0 1-.375-.375ZM4.21 7.5h.165l1.4 1.05a.375.375 0 0 0 .6-.3V7.5h1.5A1.125 1.125 0 0 0 9 6.375V3.521a8.944 8.944 0 0 1 2.625-.504v8.608H3.013A8.97 8.97 0 0 1 4.209 7.5Zm4.04 14.625a.375.375 0 0 1-.375.375h-6a.375.375 0 0 1-.375-.375v-4.5a.375.375 0 0 1 .375-.375H4.5c.081 0 .16-.026.225-.075l.9-.675v.375A.375.375 0 0 0 6 17.25h1.875a.375.375 0 0 1 .375.375v4.5ZM9 20.48v-2.855A1.125 1.125 0 0 0 7.875 16.5h-1.5v-.75a.375.375 0 0 0-.6-.3l-1.4 1.05H4.21a8.97 8.97 0 0 1-1.196-4.125h8.612v8.608A8.943 8.943 0 0 1 9 20.48Zm13.5-2.855v4.5a.375.375 0 0 1-.375.375h-6a.375.375 0 0 1-.375-.375v-4.5a.375.375 0 0 1 .375-.375H18a.375.375 0 0 0 .375-.375V16.5l.9.675a.375.375 0 0 0 .225.075h2.625a.375.375 0 0 1 .375.375ZM19.79 16.5h-.165l-1.4-1.05a.375.375 0 0 0-.6.3v.75h-1.5A1.125 1.125 0 0 0 15 17.625v2.855a8.943 8.943 0 0 1-2.625.503v-8.608h8.612a8.97 8.97 0 0 1-1.196 4.125Zm1.197-4.875h-8.612V3.017c.895.035 1.78.205 2.625.504v2.854A1.125 1.125 0 0 0 16.125 7.5h1.5v.75a.375.375 0 0 0 .6.3l1.4-1.05h.166a8.97 8.97 0 0 1 1.196 4.125Zm1.513-5.25a.375.375 0 0 1-.375.375H19.5a.375.375 0 0 0-.225.075l-.9.675v-.375A.375.375 0 0 0 18 6.75h-1.875a.375.375 0 0 1-.375-.375v-4.5a.375.375 0 0 1 .375-.375h6a.375.375 0 0 1 .375.375v4.5Z"/><path d="M7.5 19.5H2.25v.75H7.5v-.75ZM6 21H2.25v.75H6V21ZM3.75 18H3v.75h.75V18ZM7.5 18h-3v.75h3V18ZM21.75 19.5H16.5v.75h5.25v-.75ZM20.25 21H16.5v.75h3.75V21ZM18 18h-.75v.75H18V18ZM21.75 18h-3v.75h3V18ZM13.875 10.125h-.75v.75h.75v-.75ZM15.375 10.125h-.75v.75h.75v-.75ZM10.875 10.125h-.75v.75h.75v-.75ZM10.875 13.125h-.75v.75h.75v-.75ZM9.375 13.125h-.75v.75h.75v-.75ZM10.875 14.625h-.75v.75h.75v-.75ZM15.375 13.125h-.75v.75h.75v-.75ZM13.875 13.125h-.75v.75h.75v-.75ZM13.875 14.625h-.75v.75h.75v-.75ZM15.375 14.625h-.75v.75h.75v-.75Z"/></g><defs><clipPath id="ava"><path  d="M0 0h24v24H0z"/></clipPath></defs></svg><svg  viewBox="0 0 11 14" id="pisces" xmlns="http://www.w3.org/2000/svg"><path d="M2.746 3.293c.346.502.635 1.168.788 1.953.082.418.133.862.154 1.324-2.098.044-3.62.302-3.62.302s1.52.355 3.615.541c-.005.142-.016.287-.027.432-.142 1.854-.668 3.496-1.247 4.565-.292.536-.595.931-.84 1.179-.245.247-.405.356-.405.356s.191-.053.493-.244c.31-.178.72-.522 1.127-1.026.822-1.005 1.616-2.704 1.778-4.741.014-.155.018-.312.026-.464a28.643 28.643 0 0 0 1.615.04c.053.475.156.93.307 1.34.296.801.652 1.46.982 2.005.327.538.638.954.868 1.213.232.266.383.39.383.39s-.107-.158-.268-.465a13.043 13.043 0 0 1-.579-1.33 18.442 18.442 0 0 1-.653-2.024 6.598 6.598 0 0 1-.169-1.143c1.936-.064 3.312-.288 3.312-.288s-1.372-.318-3.313-.511c.006-.167.019-.338.04-.505.099-.873.338-1.68.64-2.378a6.779 6.779 0 0 1 1.068-1.718c.38-.44.76-.741 1.038-.918.281-.187.452-.26.448-.267 0 0-.19.028-.512.14a4.4 4.4 0 0 0-1.286.71 5.827 5.827 0 0 0-1.441 1.69 6.987 6.987 0 0 0-.863 2.62c-.024.194-.035.38-.04.563-.305-.02-.622-.034-.948-.05-.226-.008-.45-.01-.666-.015a7.01 7.01 0 0 0-.284-1.493c-.26-.862-.702-1.587-1.191-2.063A3.712 3.712 0 0 0 1.229 1.98s.18.092.47.292c.29.2.682.537 1.027 1.04l.02-.02Z" /></svg><svg  viewBox="0 0 24 24" id="planets" xmlns="http://www.w3.org/2000/svg"><g clip-path="url(#axa)" ><path d="M1.6 12c-.034 5.744 4.595 10.427 10.339 10.46 5.743.035 10.427-4.594 10.46-10.338.002-.171-.002-.342-.009-.513v-.01l-.002-.011C22.11 5.85 17.237 1.424 11.5 1.7A10.4 10.4 0 0 0 1.6 12Zm19.964-.8H14.8a.4.4 0 0 0 0 .8h6.8c0 .27-.014.536-.036.8H17.2a.4.4 0 0 0 0 .8h4.264a9.608 9.608 0 0 1-3.609 6H12.8a.4.4 0 1 0 0 .8h3.84a9.582 9.582 0 0 1-12.43-2.8H9.6a.4.4 0 0 0 0-.8H3.692a9.617 9.617 0 0 1-.416-.8H12a.4.4 0 0 0 0-.8H2.95a9.548 9.548 0 0 1-.414-4.8H12a.4.4 0 0 0 0-.8H2.704c.106-.409.24-.81.4-1.2H9.6a.4.4 0 0 0 0-.8H3.472A9.594 9.594 0 0 1 17.298 4H14a.4.4 0 0 0 0 .8h4.34a9.582 9.582 0 0 1 3.224 6.4Z"/><path d="M2.4 4.8a2.4 2.4 0 1 0 0-4.8 2.4 2.4 0 0 0 0 4.8Zm0-4a1.6 1.6 0 1 1 0 3.2 1.6 1.6 0 0 1 0-3.2ZM22.8 21.6a1.2 1.2 0 1 0 0 2.4 1.2 1.2 0 0 0 0-2.4Zm0 1.6a.4.4 0 1 1 0-.8.4.4 0 0 1 0 .8ZM22.4 17.6a1.6 1.6 0 1 0 0 3.2 1.6 1.6 0 0 0 0-3.2Zm0 2.4a.8.8 0 1 1 0-1.6.8.8 0 0 1 0 1.6Z"/></g><defs><clipPath id="axa"><path  d="M0 0h24v24H0z"/></clipPath></defs></svg><svg  viewBox="0 0 24 24" id="qualities" xmlns="http://www.w3.org/2000/svg"><g clip-path="url(#aya)" ><path d="M17.841 14.617a2.126 2.126 0 0 0 .19-1.678 1.37 1.37 0 0 1 .216-1.224 2.118 2.118 0 0 0-.537-3.05 1.37 1.37 0 0 1-.621-1.075 2.117 2.117 0 0 0-2.373-1.991 1.374 1.374 0 0 1-1.167-.424A2.123 2.123 0 0 0 12 4.5a2.122 2.122 0 0 0-1.549.675 1.375 1.375 0 0 1-1.167.425 2.117 2.117 0 0 0-2.373 1.99 1.371 1.371 0 0 1-.62 1.076 2.118 2.118 0 0 0-.539 3.05 1.372 1.372 0 0 1 .216 1.224 2.117 2.117 0 0 0 1.549 2.683 1.372 1.372 0 0 1 .951.798c.045.098.097.193.157.283v6.921a.375.375 0 0 0 .623.281L12 21.5l2.752 2.407a.371.371 0 0 0 .402.06.375.375 0 0 0 .221-.341v-6.922c.06-.09.112-.185.156-.283a1.37 1.37 0 0 1 .952-.799 2.126 2.126 0 0 0 1.358-1.004Zm-8.466 2.81a2.038 2.038 0 0 0 2.004.052 1.39 1.39 0 0 1 .246-.09v3.442L9.375 22.8v-5.373Zm3 3.404v-3.442c.085.022.167.052.246.09a2.039 2.039 0 0 0 2.004-.052V22.8l-2.25-1.97Zm4.817-6.59a1.355 1.355 0 0 1-.877.65 2.126 2.126 0 0 0-1.474 1.237 1.366 1.366 0 0 1-1.88.684 2.122 2.122 0 0 0-1.922 0 1.369 1.369 0 0 1-1.88-.687 2.123 2.123 0 0 0-1.473-1.238 1.368 1.368 0 0 1-1-1.732 2.124 2.124 0 0 0-.335-1.894 1.368 1.368 0 0 1 .348-1.97 2.123 2.123 0 0 0 .961-1.665A1.368 1.368 0 0 1 9.193 6.34 2.12 2.12 0 0 0 11 5.682a1.366 1.366 0 0 1 2 0 2.118 2.118 0 0 0 1.807.658 1.367 1.367 0 0 1 1.533 1.286 2.125 2.125 0 0 0 .961 1.665 1.368 1.368 0 0 1 .347 1.97 2.124 2.124 0 0 0-.333 1.894 1.356 1.356 0 0 1-.123 1.087Z"/><path d="M12 7.125a4.125 4.125 0 1 0 0 8.25 4.125 4.125 0 0 0 0-8.25Zm0 7.5a3.374 3.374 0 1 1 0-6.749 3.374 3.374 0 0 1 0 6.749Z"/><path d="m14.178 10.172-1.273-.185-.567-1.153a.39.39 0 0 0-.673 0l-.57 1.153-1.271.185a.375.375 0 0 0-.208.637l.92.898-.217 1.267a.374.374 0 0 0 .544.395L12 12.773l1.138.598a.375.375 0 0 0 .544-.395l-.218-1.267.921-.898a.376.376 0 0 0-.207-.637v-.002ZM12.8 11.309a.375.375 0 0 0-.108.332l.123.713-.64-.338a.373.373 0 0 0-.35 0l-.64.338.123-.713a.375.375 0 0 0-.108-.332l-.518-.504.716-.104a.373.373 0 0 0 .282-.205l.32-.648.32.648a.374.374 0 0 0 .282.205l.716.104-.518.504ZM12 3.75a.375.375 0 0 0 .375-.375v-3a.375.375 0 1 0-.75 0v3A.375.375 0 0 0 12 3.75ZM8.64 4.118a.375.375 0 1 0 .693-.287l-.587-1.417a.375.375 0 0 0-.693.288l.587 1.416ZM3.164 7.996l1.417.587a.38.38 0 0 0 .381-.057.375.375 0 0 0-.094-.636L3.45 7.303a.375.375 0 1 0-.287.693h.001ZM5.07 14.12a.375.375 0 0 0-.489-.203l-1.417.587a.375.375 0 1 0 .286.692l1.416-.586a.374.374 0 0 0 .205-.49ZM6.166 5.946a.375.375 0 0 0 .53-.53l-2.121-2.12a.375.375 0 1 0-.53.529l2.121 2.121ZM4.5 11.25a.375.375 0 0 0-.375-.375h-3a.375.375 0 1 0 0 .75h3a.375.375 0 0 0 .375-.375ZM6.166 16.553l-2.12 2.122a.374.374 0 1 0 .529.53l2.121-2.121a.375.375 0 0 0-.53-.53ZM14.87 4.32a.375.375 0 0 0 .49-.202l.587-1.418a.375.375 0 1 0-.693-.287l-.587 1.417a.376.376 0 0 0 .203.49ZM18.93 8.38a.375.375 0 0 0 .489.203l1.417-.587a.374.374 0 0 0 .127-.616.375.375 0 0 0-.415-.077l-1.416.587a.376.376 0 0 0-.203.49ZM20.836 14.504l-1.417-.587a.375.375 0 0 0-.287.693l1.418.586a.375.375 0 1 0 .287-.692h-.001ZM17.569 6.056c.1 0 .195-.04.265-.11l2.12-2.121a.375.375 0 1 0-.529-.53l-2.121 2.121a.375.375 0 0 0 .265.64ZM22.875 10.875h-3a.375.375 0 0 0 0 .75h3a.375.375 0 0 0 0-.75ZM17.834 16.553a.375.375 0 0 0-.53.53l2.121 2.122a.375.375 0 0 0 .53-.53l-2.121-2.122Z"/></g><defs><clipPath id="aya"><path  d="M0 0h24v24H0z"/></clipPath></defs></svg><svg  viewBox="0 0 28 28" id="question" xmlns="http://www.w3.org/2000/svg"><path d="M14 26.25a12.25 12.25 0 1 1 0-24.5 12.25 12.25 0 0 1 0 24.5ZM14 28a14 14 0 1 0 0-28 14 14 0 0 0 0 28Z" /><path d="M9.196 10.126a.415.415 0 0 0 .422.432h1.444c.241 0 .434-.198.465-.438.158-1.148.945-1.984 2.349-1.984 1.2 0 2.3.6 2.3 2.044 0 1.111-.655 1.622-1.69 2.399-1.177.856-2.11 1.855-2.043 3.477l.005.38a.437.437 0 0 0 .437.43h1.42a.438.438 0 0 0 .437-.437v-.184c0-1.256.478-1.622 1.767-2.6 1.066-.81 2.177-1.71 2.177-3.598 0-2.645-2.233-3.922-4.677-3.922-2.218 0-4.646 1.032-4.813 4Zm2.725 10.085c0 .933.744 1.622 1.768 1.622 1.065 0 1.799-.69 1.799-1.622 0-.966-.736-1.645-1.801-1.645-1.022 0-1.766.679-1.766 1.645Z" /></svg><svg  viewBox="0 0 17 11" id="right-arrow" xmlns="http://www.w3.org/2000/svg"><path fill-rule="evenodd" clip-rule="evenodd" d="M16.618 5.132a.5.5 0 0 1 0 .707l-4.242 4.243a.5.5 0 1 1-.708-.707l3.39-3.39-14.35.001a.5.5 0 0 1 0-1h14.35l-3.39-3.39a.5.5 0 1 1 .708-.706l4.242 4.242Z" /></svg><svg  viewBox="0 0 24 24" id="ruler" xmlns="http://www.w3.org/2000/svg"><path d="M2.25 22.495h19.5c.827 0 1.5-.673 1.5-1.5 0-.828-.673-1.5-1.5-1.5h-.375v-8.613l.568.315a.375.375 0 0 0 .364-.655l-9.545-5.303c.113.046.845-.288.963-.316l.796.298a.374.374 0 0 0 .506-.361l-.024-.906.524-.717a.374.374 0 0 0-.191-.58l-.815-.252-.482-.74c-.138-.212-.49-.212-.628 0l-.482.74-.815.252a.375.375 0 0 0-.192.58l.525.717-.024.906a.373.373 0 0 0 .076.233c-.19-.096-.462-.322-.681-.176L8.713 6.643c-1.595-.49-2.659-2.25-2.256-3.942.082-.322-.318-.59-.583-.388C3.82 3.688 3.547 6.85 5.288 8.546l-3.595 1.996a.375.375 0 0 0 .364.656l.568-.316v8.613H2.25c-.827 0-1.5.672-1.5 1.5 0 .827.673 1.5 1.5 1.5ZM13.28 3.08c.188-.036.34-.39.445-.525.105.136.256.488.445.525l.442.137c-.087.145-.387.441-.362.627l.013.479c-.098-.03-.439-.185-.538-.176-.098-.01-.443.147-.538.176l.013-.479c.026-.184-.276-.484-.362-.627l.442-.137ZM4.875 5.682c0-.778.272-1.525.752-2.119.038 2.793 3.05 4.75 5.588 3.725-1.675 3.04-6.31 1.891-6.34-1.606Zm1.022 3.384c2.31 1.687 5.8.325 6.378-2.49.083-.322-.318-.589-.582-.387a3.343 3.343 0 0 1-1.698.6L12 5.674l8.63 4.794c-.015.013 0 9.007-.005 9.027h-4.5V18.37c1.484-.04 1.483-2.212 0-2.25h-2.25c.066-.7-.426-1.192-1.125-1.125v-.375h1.125c.62 0 1.125-.505 1.125-1.125v-2.25c0-.62-.505-1.125-1.125-1.125h-4.5c-.62 0-1.125.504-1.125 1.125v2.25c0 .62.505 1.125 1.125 1.125H10.5v.375c-.7-.067-1.191.425-1.125 1.125h-2.25c-1.483.038-1.483 2.211 0 2.25v1.125h-3.75c-.005-.026.01-9.004-.005-9.026l2.527-1.403Zm1.228 8.554c-.49-.008-.495-.742 0-.75h9c.49.007.495.74 0 .75h-9Zm8.25.75v1.125h-.75V18.37h.75Zm-1.5 0v1.125h-4.5V18.37h4.5Zm-5.25 0v1.125h-.75V18.37h.75Zm2.625-5.25a.751.751 0 0 0-.75.75H9.375A.375.375 0 0 1 9 13.495v-2.25c0-.207.168-.375.375-.375h4.5c.207 0 .375.168.375.375v2.25a.375.375 0 0 1-.375.375H12.75a.751.751 0 0 0-.75-.75h-.75Zm.75.75v1.125h-.75V13.87H12Zm.938 1.875c.21.006.191.223.187.375h-3c-.004-.152-.023-.37.188-.375h2.624Zm-10.688 4.5h19.5c.984.024.993 1.473 0 1.5H2.25c-.983-.024-.994-1.473 0-1.5Z" /><path d="m8.097 4.329-.024.906a.375.375 0 0 0 .507.36l.795-.297c.092.026.846.341.927.322a.378.378 0 0 0 .375-.385l-.024-.906.524-.717a.374.374 0 0 0-.191-.58l-.815-.252-.482-.74c-.138-.212-.49-.212-.628 0l-.482.74-.815.252a.375.375 0 0 0-.191.58l.524.717Zm.833-.873c.188-.036.341-.39.445-.525.105.136.256.488.445.525l.442.137c-.087.145-.387.441-.362.627l.013.479c-.098-.03-.438-.185-.538-.176-.098-.01-.443.148-.538.176l.013-.479c.026-.184-.276-.484-.362-.627l.442-.137ZM16.125 11.995c.12.024.801-.372.918-.415.437-.228.108-.885-.336-.671l-.75.375c-.352.169-.216.72.168.71ZM15.957 13.455l.75.375c.442.213.774-.442.336-.67l-.75-.376c-.445-.212-.773.443-.336.671ZM6.207 11.58l.75.375c.442.213.774-.442.336-.671l-.75-.375c-.445-.213-.773.443-.336.67ZM6.957 12.784l-.75.375c-.352.169-.216.72.168.71.12.025.801-.37.918-.414.437-.228.109-.883-.336-.67Z" /></svg><svg  viewBox="0 0 10 14" id="sagittarius" xmlns="http://www.w3.org/2000/svg"><path d="m8.736 2.622.023-.15c.012-.09.028-.174.045-.27.033-.18.077-.37.125-.564L9.226.452l-.308.23-.657.49a3.216 3.216 0 0 1-.554.34c-.216.099-.241.104-.326.14-.08.032-.16.064-.241.085-.32.106-.646.187-.96.258a8.672 8.672 0 0 1-1.702.177c-.488 0-.875-.072-1.132-.167-.252-.1-.364-.222-.364-.212 0 0 .056.158.287.338.225.185.615.381 1.13.5.51.125 1.142.188 1.845.14a5.681 5.681 0 0 0 1.109-.182c.05-.01.1-.031.155-.047a53.721 53.721 0 0 0-3.63 4.666 9.615 9.615 0 0 0-1.67-1.223c-.522-.308-.877-.45-.877-.45s.202.324.567.8c.35.461.835 1.06 1.446 1.66C1.498 10.779.347 13.12.347 13.12S2.081 11.261 4.01 8.6c.465.374.923.67 1.317.85.553.269.935.356.935.356s-.249-.289-.648-.73c-.298-.327-.653-.753-1.082-1.213.03-.04.056-.086.087-.126A52.685 52.685 0 0 0 7.823 2.44c.015-.005.025-.006.01-.01l.01-.01.01.01s.005.024 0 .05l-.007.074c-.027.379-.024.747.024 1.09.081.69.308 1.293.589 1.726.285.438.608.7.844.855.236.155.385.202.38.207 0 0-.113-.103-.283-.313a3.214 3.214 0 0 1-.534-.96c-.156-.431-.24-.972-.233-1.585 0-.303.032-.628.083-.952h.02Z" /></svg><svg  viewBox="0 0 24 24" id="scores" xmlns="http://www.w3.org/2000/svg"><g clip-path="url(#bda)" ><path d="m21.548 6.408.375-.45a.447.447 0 0 0-.004-.577.439.439 0 0 0-.567-.089l-.488.296A11.908 11.908 0 0 0 12 1.665h-.014c-2.85 0-5.611 1.02-7.777 2.868a.354.354 0 0 0-.037.497.35.35 0 0 0 .497.037A11.362 11.362 0 0 1 7.27 3.403l.46 1.04a10.231 10.231 0 0 0-4.861 4.768l-1.064-.422A11.412 11.412 0 0 1 3.53 6.18a.355.355 0 0 0-.033-.498.355.355 0 0 0-.497.033c-1.931 2.198-3 5.02-3 7.95 0 2.99 1.106 5.86 3.122 8.072a.587.587 0 0 0 .792.07l1.092-.848a.583.583 0 0 0 .225-.417.574.574 0 0 0-.154-.446 9.428 9.428 0 0 1-2.532-6.43c0-5.213 4.242-9.456 9.455-9.456a9.42 9.42 0 0 1 6.637 2.733l-2.306 1.402A6.853 6.853 0 0 0 12 6.802c-3.783 0-6.862 3.08-6.862 6.862a6.852 6.852 0 0 0 2.69 5.442 1.667 1.667 0 0 0-1.125 1.57c0 .915.745 1.66 1.66 1.66h4.012c.192 0 .352-.16.352-.352a.354.354 0 0 0-.352-.351H8.363a.957.957 0 0 1-.957-.956.96.96 0 0 1 .957-.957h7.274c.53 0 .957.432.957.957a.96.96 0 0 1-.957.956h-1.621a.354.354 0 0 0-.352.351c0 .193.16.352.352.352h1.621c.915 0 1.66-.745 1.66-1.66 0-.726-.469-1.345-1.12-1.57.093-.07.182-.14.271-.215a6.85 6.85 0 0 0 2.316-4.064.352.352 0 1 0-.694-.122 6.187 6.187 0 0 1-2.076 3.647 5.925 5.925 0 0 1-.947.66H8.962a6.156 6.156 0 0 1-3.117-5.353c0-3.393 2.761-6.159 6.16-6.159 1.34 0 2.63.431 3.689 1.228l-1.317.802a4.732 4.732 0 0 0-2.372-.633 4.77 4.77 0 0 0-4.763 4.762c0 2.625 2.133 4.768 4.758 4.768a4.77 4.77 0 0 0 4.584-6.061l1.027-1.233c.286.633.464 1.317.525 2.025a.356.356 0 0 0 .38.323.356.356 0 0 0 .323-.38 6.772 6.772 0 0 0-.731-2.559l1.758-2.11a9.387 9.387 0 0 1 1.589 5.237c0 2.39-.9 4.678-2.532 6.431a.58.58 0 0 0-.154.445.592.592 0 0 0 .225.417l1.092.849c.239.187.59.155.792-.07A11.974 11.974 0 0 0 24 13.669a11.9 11.9 0 0 0-2.452-7.261ZM3.568 21.183a11.304 11.304 0 0 1-2.405-4.317l1.092-.333a10.085 10.085 0 0 0 2.222 3.947l-.91.703Zm-1.726-7.519c0 .74.08 1.477.24 2.19l-1.093.332a11.304 11.304 0 0 1-.286-2.522c0-1.462.281-2.892.82-4.223l1.06.421a10.044 10.044 0 0 0-.74 3.802ZM15.62 4.172a10.185 10.185 0 0 0-7.238 0l-.46-1.045a11.317 11.317 0 0 1 4.07-.764h.014c1.415 0 2.798.262 4.082.764l-.468 1.045Zm.651.276.46-1.045a11.429 11.429 0 0 1 3.248 2.274c.094.093.183.187.272.28l-.994.606a10.254 10.254 0 0 0-2.986-2.115ZM12 17.723a4.064 4.064 0 0 1-4.06-4.059A4.067 4.067 0 0 1 12 9.604a4.067 4.067 0 0 1 4.06 4.06 4.064 4.064 0 0 1-4.06 4.06Zm3.005-7.753 5.386-3.276-4.093 4.912a4.74 4.74 0 0 0-1.293-1.636Zm6.08-3.01c.43.577.8 1.192 1.106 1.834l-1.064.422a9.725 9.725 0 0 0-.797-1.35l.754-.905Zm.332 2.898 1.06-.422c.539 1.326.82 2.756.82 4.223 0 .858-.099 1.702-.286 2.522l-1.092-.333c.154-.712.239-1.443.239-2.189 0-1.34-.263-2.625-.74-3.801Zm-.984 11.325-.91-.703a10.142 10.142 0 0 0 2.222-3.947l1.092.333a11.303 11.303 0 0 1-2.404 4.317Z"/><path d="M9.38 21.042a.366.366 0 1 0 0-.731.366.366 0 0 0 0 .731ZM10.692 21.042a.366.366 0 1 0 0-.73.366.366 0 0 0 0 .73ZM12 21.042a.366.366 0 1 0 0-.73.366.366 0 0 0 0 .73ZM13.308 21.042a.366.366 0 1 0 0-.73.366.366 0 0 0 0 .73ZM14.62 21.042a.366.366 0 1 0 0-.73.366.366 0 0 0 0 .73ZM13.402 14.095a.354.354 0 0 0-.352.352c0 .581-.473 1.05-1.05 1.05-.577 0-1.05-.474-1.05-1.05a.354.354 0 0 0-.352-.352.354.354 0 0 0-.351.352c0 .965.787 1.753 1.753 1.753.966 0 1.753-.788 1.753-1.753a.348.348 0 0 0-.351-.352ZM10.725 12.848c0 .193.16.352.352.352.192 0 .351-.16.351-.352 0-.58-.473-1.059-1.06-1.059-.58 0-1.059.473-1.059 1.06 0 .192.16.351.352.351.192 0 .351-.16.351-.352a.356.356 0 1 1 .713 0ZM13.631 11.79c-.581 0-1.06.473-1.06 1.058 0 .193.16.352.352.352.193 0 .352-.16.352-.352a.356.356 0 1 1 .713 0c0 .193.159.352.351.352.192 0 .352-.16.352-.352a1.067 1.067 0 0 0-1.06-1.059Z"/></g><defs><clipPath id="bda"><path  d="M0 0h24v24H0z"/></clipPath></defs></svg><svg  viewBox="0 0 16 11" id="scorpio" xmlns="http://www.w3.org/2000/svg"><path d="M13.764 7.174a4.66 4.66 0 0 1-.195.921c-.112.35-.28.726-.53 1.089-.252.356-.615.698-1.054.83-.433.14-.928.035-1.375-.279a3.815 3.815 0 0 1-.328-.258 3.88 3.88 0 0 1-.293-.3 2.073 2.073 0 0 1-.37-.733c-.167-.565-.181-1.235-.16-1.933.041-1.11.181-2.212.188-3.273 0-.53-.021-1.054-.119-1.556-.028-.126-.049-.244-.083-.37-.014-.063-.035-.119-.056-.181L9.36 1.04C9.347.998 9.333.95 9.312.907a2.957 2.957 0 0 0-.23-.495L8.956.195 8.893.091S8.851.007 8.83 0c-.202.195-.383.37-.558.551l-.125.133-.105.112-.147.174a9.842 9.842 0 0 0-.516.69c-.3.448-.51.873-.642 1.236-.028.077-.056.154-.077.223a6.363 6.363 0 0 0-.377-1.116 4.66 4.66 0 0 0-.286-.558l-.077-.133-.111-.181a10.878 10.878 0 0 0-.293-.42l-.391.112a2.817 2.817 0 0 0-.733.307 2.99 2.99 0 0 0-.677.517 2.504 2.504 0 0 0-.495.705c-.224-.391-.524-.768-.942-.998-.056-.028-.105-.056-.16-.077a.47.47 0 0 0-.12-.042l-.076-.02a2.443 2.443 0 0 0-.314-.05 1.826 1.826 0 0 0-.642.042c-.21.056-.412.16-.559.307a1.262 1.262 0 0 0-.3.475 2.001 2.001 0 0 0-.097.851c.014.245.062.447.104.607.091.321.196.475.196.475s-.05-.175-.05-.496c0-.16 0-.355.036-.572.035-.216.097-.46.23-.663a.682.682 0 0 1 .558-.356c.126-.007.265 0 .412.042.077.021.147.042.223.07l.056.021.014.007c.028.02.056.035.084.056.23.16.426.44.58.774.16.335.285.72.397 1.124.216.81.363 1.626.488 2.373l.342 1.996c.105.572.203 1.04.28 1.353.083.321.146.489.146.489s-.007-.182 0-.503l.035-1.374c.014-.58.014-1.277-.028-2.052-.049-.775-.133-1.626-.377-2.526a6.875 6.875 0 0 0-.314-.9c.154-.245.37-.496.656-.698.182-.126.384-.238.614-.328.112-.042.23-.084.356-.119.084-.021.07-.014.084-.014h.035c0 .014.007.028.007.042v.007l.028.056.055.118c.077.16.147.328.21.503.132.349.237.719.328 1.11.188.816.286 1.64.37 2.386.083.754.16 1.445.244 2.024.16 1.165.384 1.863.384 1.856 0 0 0-.726.07-1.877.027-.58.07-1.27.07-2.045 0-.74-.043-1.556-.224-2.414.056-.12.119-.252.195-.398.182-.321.433-.691.775-1.075.3-.356.886-.914.95-.907.006-.014.006.014.013.02l.014.029s.014.042.014.056a.31.31 0 0 1 .02.104v.028l.022.077c.014.049.02.105.028.153.02.105.035.217.042.328.041.44.041.922.007 1.417-.063 1.005-.23 2.087-.28 3.266-.02.74 0 1.493.238 2.233.118.363.307.719.572 1.012.14.154.265.258.405.37.14.112.279.21.432.3.307.181.642.307.998.349.35.042.712-.007 1.012-.14.3-.125.551-.314.747-.523.195-.21.349-.433.474-.649.238-.447.363-.88.426-1.263a4.58 4.58 0 0 0 .056-.984c-.028-.537-.126-.817-.119-.824 0 0 .028.294-.027.817l.041-.014Z" /><path d="M15.174 6.818a8.963 8.963 0 0 0-.363-.956l-.216-.538-.098-.237a3.285 3.285 0 0 1-.112-.314l-.21-.69-.516.432a8.444 8.444 0 0 0-.516.488l-.07.077-.063.07-.118.14a6.51 6.51 0 0 0-.412.537c-.244.356-.44.684-.6.97-.314.565-.489.935-.489.935s.35-.216.845-.642c.244-.21.53-.468.83-.754l.468-.446.237-.224s.007-.007.014-.007h.007c0 .007 0-.02.035.05.112.195.23.362.342.523.23.314.447.579.621.795.356.44.544.747.544.747s0-.37-.181-.935l.02-.021Z" /></svg><svg  viewBox="0 0 13 8" id="small-arrow" xmlns="http://www.w3.org/2000/svg"><path fill-rule="evenodd" clip-rule="evenodd" d="M.626.793a1 1 0 0 1 1.414 0l4.293 4.293L10.626.793a1 1 0 1 1 1.414 1.414l-5 5a1 1 0 0 1-1.414 0l-5-5a1 1 0 0 1 0-1.414Z" /></svg><svg  viewBox="0 0 13 13" id="taurus" xmlns="http://www.w3.org/2000/svg"><path d="M11.877 1.345a1.13 1.13 0 0 0-.403-.157 1.365 1.365 0 0 0-.693.079c-.258.093-.529.25-.813.442-.561.385-1.15.927-1.83 1.405-.673.485-1.46.892-2.285.785a2.601 2.601 0 0 1-.608-.143 3.62 3.62 0 0 1-.29-.121c-.047-.021-.093-.043-.146-.071l-.04-.022-.059-.028c-.02-.007-.04-.015-.06-.029a2.697 2.697 0 0 1-.475-.342 9.35 9.35 0 0 1-.462-.45c-.602-.62-1.163-1.255-1.817-1.569-.324-.157-.687-.2-.965-.1a1.414 1.414 0 0 0-.594.407A2.183 2.183 0 0 0 0 1.923s.139-.164.43-.378c.145-.1.336-.207.56-.228.225-.022.47.05.708.221.238.171.475.42.72.713.244.293.489.628.773.985.138.178.29.356.462.534.172.179.363.364.628.514.033.021.066.036.099.057.026.014.02.007.02.007l.04.022s.059.028.085.05a4.967 4.967 0 0 0-.548.356 4.615 4.615 0 0 0-1.54 2.19 4.994 4.994 0 0 0-.171 2.453c.139.764.449 1.413.819 1.92.376.505.806.862 1.209 1.105.41.242.793.378 1.11.449.317.071.568.086.733.086h.257c0-.007-.356-.007-.95-.229a4.016 4.016 0 0 1-.998-.556 4.019 4.019 0 0 1-1.004-1.134 4.326 4.326 0 0 1-.317-3.802 3.919 3.919 0 0 1 1.327-1.74 3.45 3.45 0 0 1 2.127-.67 3.478 3.478 0 0 1 2.095.784 3.944 3.944 0 0 1 1.248 1.805 4.38 4.38 0 0 1 .178 2.068c-.099.656-.35 1.241-.667 1.712A3.975 3.975 0 0 1 7.36 12.8c-.601.186-.965.164-.965.179 0 0 .086.014.258.021.165 0 .416 0 .74-.05a3.907 3.907 0 0 0 1.13-.385 4.18 4.18 0 0 0 1.261-1.049 4.58 4.58 0 0 0 .905-1.868 5.001 5.001 0 0 0-.06-2.454 4.692 4.692 0 0 0-1.433-2.268c-.343-.3-.74-.542-1.175-.713a5.72 5.72 0 0 0 .58-.45c.688-.606 1.19-1.226 1.659-1.676a3.76 3.76 0 0 1 .66-.542 1.36 1.36 0 0 1 .575-.207c.172-.014.304.022.397.05.092.029.138.05.138.05s-.04-.036-.119-.085l-.033-.008Z" /></svg><svg  viewBox="0 0 24 24" id="timer" xmlns="http://www.w3.org/2000/svg"><path d="M10 3.005a.965.965 0 0 1-.712-.288A.965.965 0 0 1 9 2.005c0-.283.096-.521.288-.713A.967.967 0 0 1 10 1.005h4a.97.97 0 0 1 .713.287.97.97 0 0 1 .287.713c0 .283-.096.52-.287.712a.968.968 0 0 1-.713.288h-4Zm2 11a.968.968 0 0 0 .713-.288.967.967 0 0 0 .287-.712v-4a.97.97 0 0 0-.287-.713.97.97 0 0 0-.713-.287.967.967 0 0 0-.712.287.968.968 0 0 0-.288.713v4c0 .283.096.52.288.712a.965.965 0 0 0 .712.288Zm0 8a8.656 8.656 0 0 1-3.488-.712 9.202 9.202 0 0 1-2.862-1.938 9.202 9.202 0 0 1-1.938-2.862A8.655 8.655 0 0 1 3 13.005c0-1.234.237-2.396.712-3.488A9.202 9.202 0 0 1 5.65 6.655a9.188 9.188 0 0 1 2.862-1.937A8.644 8.644 0 0 1 12 4.005a8.92 8.92 0 0 1 2.975.5c.95.333 1.842.817 2.675 1.45l.725-.725a.918.918 0 0 1 .675-.275c.267 0 .5.1.7.3a.948.948 0 0 1 .275.7.948.948 0 0 1-.275.7l-.7.7a9.723 9.723 0 0 1 1.45 2.675c.333.95.5 1.942.5 2.975a8.654 8.654 0 0 1-.712 3.488 9.201 9.201 0 0 1-1.938 2.862 9.203 9.203 0 0 1-2.862 1.938 8.656 8.656 0 0 1-3.488.712Zm0-2c1.933 0 3.583-.683 4.95-2.05 1.367-1.367 2.05-3.017 2.05-4.95 0-1.934-.683-3.583-2.05-4.95-1.367-1.367-3.017-2.05-4.95-2.05-1.933 0-3.583.683-4.95 2.05C5.683 9.422 5 11.072 5 13.005c0 1.933.683 3.583 2.05 4.95 1.367 1.367 3.017 2.05 4.95 2.05Z" /></svg><svg  viewBox="0 0 45 45" id="user" xmlns="http://www.w3.org/2000/svg"><path d="M22.515 24a9 9 0 1 1 0-17.999 9 9 0 0 1 0 17.999Zm0-15a6 6 0 1 0 0 12 6 6 0 0 0 0-12Z" /><path d="M22.515 45A22.5 22.5 0 0 1 5.13 36.765l-.78-.96.78-.945a22.5 22.5 0 0 1 34.77 0l.78.945-.78.96A22.5 22.5 0 0 1 22.515 45ZM8.28 35.82a19.5 19.5 0 0 0 28.5 0 19.5 19.5 0 0 0-28.5 0Z" /><path d="M22.515 45a22.5 22.5 0 1 1-.03-45 22.5 22.5 0 0 1 .03 45Zm0-42a19.5 19.5 0 1 0 0 39 19.5 19.5 0 0 0 0-39Z" /><path d="M6.285 35.82s15.105 16.875 30.48 1.68l1.98-1.68S25.905 22.5 12.87 30.495L6.285 35.82ZM22.515 22.5a7.5 7.5 0 1 0 0-15 7.5 7.5 0 0 0 0 15Z" /></svg><svg  viewBox="0 0 14 13" id="virgo" xmlns="http://www.w3.org/2000/svg"><path d="M12.025 9.625c.47-.544.837-1.188.996-1.88.08-.343.116-.688.1-1.027a4.063 4.063 0 0 0-.152-.96c-.163-.606-.481-1.178-.961-1.542a2.031 2.031 0 0 0-.782-.373 1.987 1.987 0 0 0-.784-.014 2.104 2.104 0 0 0-.731.293c.015-.221.031-.442.049-.656.019-.378.034-.74.026-1.104l-.004-.156c-.004-.074-.004-.156-.016-.227a2.161 2.161 0 0 0-.066-.416c-.034-.125-.076-.226-.112-.336-.042-.1-.087-.238-.135-.277l-.594.413-.266.183-.113.083-.074.057c-.207.153-.407.303-.583.455a6.54 6.54 0 0 0-.867.852c-.005.009-.017.02-.022.028.002-.075.011-.152.012-.234a6.578 6.578 0 0 0-.121-1.656l-.043-.16-.048-.233-.117-.44c-.152-.004-.3-.001-.443 0-.076-.002-.148.01-.214.012-.065.01-.153.019-.197.023A2.71 2.71 0 0 0 4.45.999a3.501 3.501 0 0 0-.41.453 1.871 1.871 0 0 0-.352-.555l-.06-.059-.024-.03a1.798 1.798 0 0 0-.212-.205C3.097.346 2.702.16 2.305.162a1.373 1.373 0 0 0-.93.39 1.967 1.967 0 0 0-.425.623 2.705 2.705 0 0 0-.163.514c-.051.282-.045.445-.052.447 0 0 .057-.15.187-.394.065-.122.154-.265.28-.41a1.66 1.66 0 0 1 .455-.399.82.82 0 0 1 .592-.114c.2.044.391.172.573.377.043.048.088.103.135.165l.005.021.018.01.03.03.026.038s.034.043.048.069c.058.104.106.225.143.365.075.279.089.61.072.966-.03.703-.14 1.412-.246 2.052l-.302 1.724c-.086.494-.148.906-.177 1.19a5.896 5.896 0 0 0-.031.442l.176-.406c.117-.263.289-.63.487-1.094.198-.464.423-1.024.623-1.675.194-.65.38-1.38.415-2.202a4.12 4.12 0 0 0-.06-.865 3.1 3.1 0 0 1 .63-.535c.198-.128.425-.233.672-.292a2.22 2.22 0 0 1 .373-.063c.028-.007.023.002.031.007l.014-.004s.02.017.022.024c.002.007.005.021-.007.032l.01.035.015.055c.01.154.024.315.037.476.02.323.017.652.005.999-.036.846-.16 1.67-.27 2.432-.111.762-.202 1.458-.245 2.052-.094 1.19.02 1.921.02 1.921s.129-.721.452-1.838c.158-.558.361-1.225.566-1.974.16-.603.311-1.27.393-2.002.066-.062.133-.118.213-.184.253-.202.57-.422.96-.645.195-.112.403-.228.633-.35l.086-.045s.033-.016.054-.022a.203.203 0 0 0 .068-.026c.042-.01.077-.02.105-.028.024-.021.016.033.015.056.007.028-.001.053-.002.075-.002.023-.003.046-.014.064l-.008.024-.003.046-.006.061a22.03 22.03 0 0 1-.11 1.045c-.089.704-.194 1.456-.282 2.249-.052.17-.064.264-.064.264s.02-.036.047-.103c-.12 1.093-.182 2.147-.136 3.128.022.502.075.98.173 1.432.043.16.086.32.134.472a10.302 10.302 0 0 1-3.165.923c-.843.099-1.532.045-2.001-.054-.469-.098-.713-.227-.712-.22 0 0 .212.175.675.364.457.192 1.173.373 2.069.387a9.09 9.09 0 0 0 3.104-.503c.146-.046.289-.1.43-.16.136.172.307.306.493.383.185.077.372.102.535.096.334-.015.581-.126.768-.213.383-.193.553-.343.562-.338 0 0-.213.102-.606.2-.196.053-.449.09-.706.055a.893.893 0 0 1-.601-.37c.28-.127.556-.275.835-.44a6.83 6.83 0 0 0 1.59-1.314l-.01-.035Zm-2.713.928c-.02-.099-.031-.2-.037-.303a8.786 8.786 0 0 1-.017-1.325c.046-.946.169-2.002.292-3.11.044-.422.09-.838.13-1.245.241-.139.52-.243.824-.258.378-.019.78.112 1.076.406.304.293.506.739.601 1.236.102.518.108 1.046-.043 1.572-.145.524-.437 1.028-.832 1.485-.395.457-.87.838-1.36 1.164a8.89 8.89 0 0 1-.641.38l.007-.002Z" /></svg><svg  viewBox="0 0 24 24" id="wise-woman" xmlns="http://www.w3.org/2000/svg"><g clip-path="url(#bka)"><path d="m19.197 18.981-.759-.282a1.74 1.74 0 0 1 .057-.152c.088-.213.209-.506.058-.92-.15-.413-.431-.56-.636-.667-.173-.09-.246-.134-.301-.285-.055-.152-.027-.231.047-.412.088-.214.209-.507.058-.92a1.103 1.103 0 0 0-.56-.627 1.366 1.366 0 0 0 .037-1.951c.098-.185.15-.393.15-.609 0-.342-.13-.659-.356-.896a6.733 6.733 0 0 0 1.745-4.523A6.745 6.745 0 0 0 12 0a6.745 6.745 0 0 0-6.737 6.737c0 1.691.634 3.297 1.745 4.523a1.292 1.292 0 0 0-.356.896c0 .216.052.424.15.609a1.37 1.37 0 0 0 .037 1.95 1.102 1.102 0 0 0-.56.628c-.15.413-.03.706.058.92.074.18.102.26.047.412-.055.151-.128.194-.301.285-.205.107-.486.254-.636.667-.15.414-.03.707.058.92.025.06.044.109.057.152l-.759.282a3.177 3.177 0 0 0-2.06 2.966v1.701a.352.352 0 1 0 .702 0v-1.701c0-1.023.644-1.95 1.603-2.307l2.657-.989c.096.502.284.985.555 1.418a.352.352 0 0 0 .596-.373 3.432 3.432 0 0 1-.48-1.294l.966-.36a2.413 2.413 0 0 0 1.24 1.954l1.246.69a.352.352 0 0 0 .34 0l1.247-.69a2.413 2.413 0 0 0 1.24-1.955l.965.36a3.4 3.4 0 0 1-1.72 2.471l-1.2.664a1.323 1.323 0 0 0-1.402.001l-1.201-.665a3.412 3.412 0 0 1-.193-.115.351.351 0 1 0-.38.592c.075.048.153.095.232.139l1.054.583A1.333 1.333 0 0 0 12 24a1.333 1.333 0 0 0 1.189-1.932l1.05-.581a4.1 4.1 0 0 0 2.052-2.838l1.302.485-3.777 4.28a.352.352 0 1 0 .527.466l3.956-4.484.653.243a2.471 2.471 0 0 1 1.603 2.307v1.701a.352.352 0 0 0 .703 0v-1.701a3.177 3.177 0 0 0-2.061-2.966ZM12 23.297a.63.63 0 1 1 .001-1.259.63.63 0 0 1-.001 1.259ZM5.966 6.737A6.04 6.04 0 0 1 12 .703a6.04 6.04 0 0 1 6.034 6.034 6.031 6.031 0 0 1-2.092 4.567V9.919a5.068 5.068 0 0 0 .719-5.175.352.352 0 0 0-.646.277 4.369 4.369 0 0 1-.143 3.73 3.96 3.96 0 0 0-.883-1.83 1.194 1.194 0 0 0-.45-2.02 1.197 1.197 0 0 0-1.063-1.743h-.119v-.57c.693.225 1.317.62 1.825 1.162a.352.352 0 1 0 .513-.481 5.026 5.026 0 0 0-2.62-1.484 1.104 1.104 0 0 0-.188-.168l-.578-.404a.541.541 0 0 0-.618 0l-.578.404c-.07.05-.133.106-.189.168A5.067 5.067 0 0 0 8.058 9.92v1.385a6.031 6.031 0 0 1-2.092-4.567Zm10.08 6.72c.24 0 .468-.063.667-.182a.667.667 0 0 1-.846 1.013c.052-.265.081-.55.075-.83h.105Zm-.104-.702V12.2c.192-.14.376-.287.55-.444a.594.594 0 0 1 .153.4c0 .16-.062.31-.175.423a.593.593 0 0 1-.423.176h-.105Zm-7.989.703h.105c-.01.271.024.57.075.83a.668.668 0 0 1-.846-1.014c.199.12.428.184.666.184Zm-.598-1.302c0-.151.056-.292.153-.4.174.157.358.305.55.444v.555h-.105a.594.594 0 0 1-.423-.176.594.594 0 0 1-.175-.423Zm.774-3.405a4.365 4.365 0 0 1 2.514-6.163v.57h-.12a1.202 1.202 0 0 0-1.195 1.195c0 .197.048.383.133.547a1.206 1.206 0 0 0-.836 1.14c0 .348.15.662.387.88a3.96 3.96 0 0 0-.883 1.831Zm5.348-4.89c.271 0 .492.22.492.492a.498.498 0 0 1-.492.492h-.753l-.343-.342a.54.54 0 0 0-.762 0l-.343.342h-.753a.493.493 0 0 1 0-.984h2.954Zm-2.13-.703V2.52c0-.13.063-.252.17-.326L12 1.855l.484.339c.106.074.17.196.17.326v.638h-1.308Zm2.08 2.39h.753c.271 0 .492.221.492.493a.498.498 0 0 1-.492.492h-.931l.2-.2a.544.544 0 0 0-.022-.784Zm-.591.404-.684.683-.002.002-.15.15-.15-.15-.002-.002-.684-.684.836-.835.836.836Zm-2.285.38.2.201h-.93a.493.493 0 0 1 0-.984h.752a.554.554 0 0 0-.18.403c0 .144.056.279.158.38Zm-1.79 3.159c0-.845.334-1.66.922-2.263a1.2 1.2 0 0 0 .137.008h1.634l.165.164a.537.537 0 0 0 .762 0l.165-.164h1.634c.046 0 .092-.003.137-.008.588.603.922 1.418.922 2.263v.497l-.395-.155a7.778 7.778 0 0 0-5.688 0l-.395.155V9.49Zm.517 7.825-3.057 1.137a2.645 2.645 0 0 0-.066-.173c-.075-.181-.103-.26-.047-.412.055-.151.127-.194.3-.285.206-.107.486-.254.637-.667.15-.414.03-.707-.058-.92-.074-.182-.103-.261-.047-.413.055-.151.127-.194.301-.285.105-.054.226-.118.34-.22a1.382 1.382 0 0 0 .754-.104c.274.69.737 1.286 1.325 1.721.015.264-.122.527-.382.621Zm4.679.57a1.71 1.71 0 0 1-.883 1.495l-1.076.596-1.076-.596a1.71 1.71 0 0 1-.882-1.496v-.267c.132-.15.23-.331.28-.527.51.241 1.08.377 1.68.377.6 0 1.17-.136 1.68-.377.05.194.146.373.277.523v.271ZM12 16.763a3.243 3.243 0 0 1-3.24-3.239v-2.782l.653-.255a7.076 7.076 0 0 1 5.174 0l.652.255v2.782A3.243 3.243 0 0 1 12 16.765Zm5.845 1.516c-.021.052-.045.11-.066.173l-3.057-1.137a.596.596 0 0 1-.382-.62 3.962 3.962 0 0 0 1.325-1.722 1.37 1.37 0 0 0 .753.103c.115.103.236.167.341.221.174.091.246.134.301.286.056.15.027.23-.047.411-.088.214-.208.507-.058.92.15.414.431.56.636.668.174.09.246.134.301.285.056.152.028.231-.047.412ZM6.61 21.968a.352.352 0 0 0-.351.352v1.328a.352.352 0 1 0 .703 0V22.32a.352.352 0 0 0-.352-.352Zm5.777-7.02a.807.807 0 0 1-.774 0 .352.352 0 1 0-.33.62 1.516 1.516 0 0 0 1.439 0 .352.352 0 0 0-.335-.62Zm-.93-2.529a.352.352 0 0 0-.476-.143.81.81 0 0 1-.774 0 .352.352 0 0 0-.33.62 1.516 1.516 0 0 0 1.439 0 .352.352 0 0 0 .141-.477Zm2.337-.143a.81.81 0 0 1-.774 0 .352.352 0 0 0-.331.62 1.516 1.516 0 0 0 1.439 0 .352.352 0 1 0-.334-.62ZM12 12a.906.906 0 0 0 .905-.905v-.41a.352.352 0 1 0-.704 0v.41a.202.202 0 0 1-.402 0v-.41a.352.352 0 1 0-.704 0v.41c0 .5.406.905.905.905Z" /></g><defs><clipPath id="bka"><path  d="M0 0h24v24H0z"/></clipPath></defs></svg><svg  viewBox="0 0 24 24" id="zodiac" xmlns="http://www.w3.org/2000/svg"><g clip-path="url(#bla)" ><path d="M20.492 3.52a.352.352 0 1 0-.498.498c.62.621 1.159 1.303 1.612 2.03l-3.029 1.748a7.87 7.87 0 0 0-2.374-2.374l1.748-3.027c.352.22.694.458 1.024.718a.352.352 0 0 0 .435-.553A11.878 11.878 0 0 0 12 0a11.922 11.922 0 0 0-8.485 3.515A11.922 11.922 0 0 0 0 12c0 3.205 1.248 6.219 3.515 8.485A11.922 11.922 0 0 0 12 24c3.205 0 6.219-1.248 8.485-3.515A11.922 11.922 0 0 0 24 12c0-3.201-1.246-6.212-3.508-8.48Zm-3.542 8.128a4.967 4.967 0 0 0-.485-1.82l1.855-1.071c.451.874.725 1.854.776 2.891H16.95Zm-1.938-2.663.002.002c.369.369.572.86.572 1.382 0 .522-.203 1.013-.573 1.382-.369.37-.86.573-1.382.573a1.942 1.942 0 0 1-1.382-.573 2.674 2.674 0 0 0-2.76-.629.352.352 0 0 0 .232.664 1.967 1.967 0 0 1 2.03.463c.503.502 1.17.778 1.88.778s1.377-.276 1.88-.778c.312-.313.537-.69.663-1.101a4.26 4.26 0 0 1-1.16 3.866A4.248 4.248 0 0 1 12 16.26a4.25 4.25 0 0 1-3.012-1.245l-.001-.002a2.056 2.056 0 0 1-.055-.057l-.008-.008a1.946 1.946 0 0 1-.145-2.454.351.351 0 1 0-.572-.41c-.172.24-.298.498-.381.767a4.26 4.26 0 0 1 1.16-3.865A4.249 4.249 0 0 1 12 7.74c1.09 0 2.182.415 3.012 1.245Zm-2.66-1.935V4.904a7.054 7.054 0 0 1 2.891.776l-1.071 1.855a4.967 4.967 0 0 0-1.82-.485Zm-.704-2.85a7.753 7.753 0 0 0-3.243.87L6.656 2.041A11.223 11.223 0 0 1 11.648.71V4.2Zm0 .704V7.05a4.967 4.967 0 0 0-1.82.485L8.757 5.68a7.054 7.054 0 0 1 2.891-.775ZM9.22 7.887a4.968 4.968 0 0 0-1.332 1.332L6.032 8.15A7.161 7.161 0 0 1 8.15 6.032l1.07 1.855ZM7.535 9.828a4.967 4.967 0 0 0-.485 1.82H4.904a7.054 7.054 0 0 1 .775-2.891l1.856 1.071ZM4.2 11.648H.71c.053-1.77.511-3.469 1.331-4.992l3.03 1.75a7.753 7.753 0 0 0-.87 3.242Zm0 .704a7.753 7.753 0 0 0 .87 3.243l-3.029 1.749A11.222 11.222 0 0 1 .71 12.352H4.2Zm.704 0H7.05c.044.625.206 1.244.485 1.82L5.68 15.243a7.055 7.055 0 0 1-.776-2.891Zm2.983 2.429a4.968 4.968 0 0 0 1.332 1.332l-1.07 1.855a7.164 7.164 0 0 1-2.117-2.117l1.855-1.07Zm1.941 1.684c.576.28 1.195.441 1.82.485v2.146a7.052 7.052 0 0 1-2.891-.776l1.071-1.855Zm1.82 3.335v3.49a11.222 11.222 0 0 1-4.992-1.331l1.75-3.03c.978.51 2.077.819 3.242.87Zm.704 0a7.753 7.753 0 0 0 3.243-.87l1.749 3.029a11.222 11.222 0 0 1-4.992 1.332V19.8Zm0-.704V16.95a4.967 4.967 0 0 0 1.82-.485l1.071 1.855a7.054 7.054 0 0 1-2.891.776Zm2.429-2.983a4.968 4.968 0 0 0 1.332-1.332l1.855 1.07a7.163 7.163 0 0 1-2.117 2.117l-1.07-1.855Zm1.684-1.941c.28-.576.441-1.195.485-1.82h2.146a7.054 7.054 0 0 1-.776 2.891l-1.855-1.071Zm3.335-1.82h3.49a11.222 11.222 0 0 1-1.331 4.992l-3.03-1.75c.51-.978.819-2.077.87-3.242Zm2.159-5.696a11.225 11.225 0 0 1 1.332 4.992H19.8a7.754 7.754 0 0 0-.87-3.243l3.029-1.749ZM17.968 8.15l-1.855 1.07a4.962 4.962 0 0 0-1.332-1.332l1.07-1.855a7.16 7.16 0 0 1 2.117 2.117ZM15.595 5.07a7.752 7.752 0 0 0-3.243-.87V.71c1.769.053 3.462.507 4.991 1.333L15.595 5.07ZM4.012 4.012a11.383 11.383 0 0 1 2.036-1.618l1.748 3.028a7.87 7.87 0 0 0-2.374 2.375L2.394 6.048c.454-.73.995-1.413 1.618-2.036Zm-1.618 13.94 3.029-1.749a7.87 7.87 0 0 0 2.374 2.375l-1.749 3.028a11.386 11.386 0 0 1-3.654-3.654Zm17.594 2.036a11.392 11.392 0 0 1-2.036 1.618l-1.749-3.029a7.872 7.872 0 0 0 2.375-2.374l3.028 1.749c-.454.73-.995 1.413-1.618 2.036Z"/><path d="M13.631 11.808a1.44 1.44 0 0 0 0-2.879c-.384 0-.746.15-1.018.422a1.43 1.43 0 0 0-.421 1.018c0 .384.15.746.421 1.017a1.43 1.43 0 0 0 1.018.422Zm-.52-1.96a.731.731 0 0 1 .52-.215.737.737 0 1 1-.52.216ZM9.351 14.649c.28.28.65.42 1.018.42s.737-.14 1.018-.42a1.441 1.441 0 0 0 0-2.036 1.44 1.44 0 0 0-2.036 0 1.44 1.44 0 0 0 0 2.036Zm.497-1.539a.734.734 0 0 1 1.041 0 .737.737 0 0 1-1.04 1.042.737.737 0 0 1 0-1.042ZM8.41 3.109a1.168 1.168 0 0 0 1.428.824c.301-.08.553-.274.708-.543A1.167 1.167 0 0 0 9.235 1.68c-.62.166-.99.807-.824 1.428Zm1.007-.749a.46.46 0 0 1 .567.327.463.463 0 1 1-.567-.327ZM15.59 20.891c-.081-.3-.274-.552-.544-.707a1.158 1.158 0 0 0-.884-.117c-.301.08-.553.273-.708.543-.156.27-.197.584-.117.885.08.3.274.552.543.707a1.159 1.159 0 0 0 .885.117c.62-.166.99-.807.824-1.428Zm-1.007.749a.463.463 0 1 1-.239-.895.463.463 0 0 1 .239.895ZM5.27 6.435c.299 0 .597-.113.824-.34a1.167 1.167 0 1 0-1.648 0c.227.227.526.34.824.34Zm-.327-1.492a.461.461 0 0 1 .654 0 .463.463 0 1 1-.654 0ZM19.554 17.905a1.167 1.167 0 0 0-1.648 0 1.167 1.167 0 0 0 .824 1.99 1.167 1.167 0 0 0 .824-1.99Zm-.497 1.152a.463.463 0 1 1-.654-.656.463.463 0 0 1 .654.656ZM1.681 9.235c-.08.3-.04.615.116.885a1.158 1.158 0 0 0 1.012.583c.202 0 .401-.053.58-.157.27-.155.463-.407.544-.708.08-.3.04-.614-.117-.884a1.158 1.158 0 0 0-.707-.543c-.301-.08-.615-.04-.885.116s-.462.407-.543.708Zm.68.182a.46.46 0 0 1 .566-.327.46.46 0 0 1 .327.566.46.46 0 0 1-.567.327.46.46 0 0 1-.327-.566ZM22.319 14.765a1.167 1.167 0 0 0-1.709-1.311 1.167 1.167 0 0 0 .582 2.175c.515 0 .988-.344 1.127-.864Zm-1.573-.422a.46.46 0 0 1 .567-.327.463.463 0 1 1-.567.327ZM2.224 15.473a1.159 1.159 0 0 0 .885.116c.3-.08.552-.273.707-.543.156-.27.198-.584.117-.884-.08-.301-.274-.553-.543-.708a1.158 1.158 0 0 0-.885-.117c-.3.08-.552.274-.708.543-.155.27-.197.584-.116.885.08.3.273.552.543.708Zm.463-1.456a.464.464 0 0 1 .351.046.46.46 0 0 1 .17.632.46.46 0 0 1-.632.169.463.463 0 0 1 .112-.847ZM20.067 9.838c.08.301.274.553.543.708a1.16 1.16 0 0 0 .885.117c.3-.081.552-.274.708-.543a1.167 1.167 0 0 0-2.019-1.166c-.156.27-.197.584-.117.884Zm.726-.533a.463.463 0 1 1 .8.464.463.463 0 0 1-.8-.464ZM6.094 19.554c.22-.22.342-.513.342-.824a1.167 1.167 0 1 0-1.99.824c.227.227.526.34.824.34.299 0 .597-.113.824-.34Zm-1.286-.824a.46.46 0 0 1 .462-.463.461.461 0 0 1 .327.79.463.463 0 0 1-.79-.327ZM17.905 4.446a1.167 1.167 0 0 0 .825 1.99 1.167 1.167 0 0 0 .824-1.99 1.167 1.167 0 0 0-1.648 0Zm1.152.497a.463.463 0 1 1-.656.654.463.463 0 0 1 .656-.654ZM9.235 22.319a1.166 1.166 0 1 0 .604-2.253 1.166 1.166 0 0 0-.604 2.253Zm-.145-1.246a.463.463 0 1 1 .894.241.463.463 0 0 1-.894-.24ZM13.454 3.39a1.158 1.158 0 0 0 1.011.583c.202 0 .402-.053.581-.157a1.167 1.167 0 0 0-1.166-2.019c-.27.156-.462.407-.543.708-.08.3-.039.615.117.885Zm.563-.703a.463.463 0 1 1 .895.241.463.463 0 0 1-.896-.24Z"/></g><defs><clipPath id="bla"><path  d="M0 0h24v24H0z"/></clipPath></defs></svg></svg>